<svg version="1.1" id="Layer_1" xmlns="http://www.w3.org/2000/svg" xmlns:xlink="http://www.w3.org/1999/xlink" x="0px" y="0px"
	 width="100%" viewBox="125 110 775 780" enable-background="new 0 0 1024 1024" xml:space="preserve">
<path fill="#0379CC" opacity="1.000000" stroke="#0379CC" stroke-width="18" stroke-linejoin="round" 
	d="
M322.636383,542.581299 
	C325.517670,541.248596 328.062439,540.073181 331.389862,538.536255 
	C313.155914,524.916931 303.698395,507.105255 305.221832,484.724030 
	C306.341492,468.275330 313.715210,454.518066 326.644836,443.867950 
	C347.789185,426.451355 379.467621,427.804871 399.068573,447.319427 
	C412.273132,460.465729 417.894104,476.612244 416.181671,495.037933 
	C414.489990,513.240906 405.461060,527.534180 390.048126,538.767944 
	C409.930695,545.931885 425.156799,557.860901 437.198151,574.552063 
	C450.181061,563.921448 464.203705,555.860107 480.940674,550.723938 
	C472.296173,545.090820 465.084442,539.581604 459.133209,532.557922 
	C423.606079,490.628326 439.966827,421.077362 497.685211,405.783844 
	C534.997498,395.897308 573.340576,418.953064 585.136414,457.705078 
	C595.793396,492.715759 581.645813,530.045227 550.480469,549.171509 
	C550.081665,549.416260 549.752197,549.773804 548.784363,550.589233 
	C556.669617,553.725281 564.290161,556.405884 571.309326,560.401794 
	C578.240906,564.347900 584.737793,568.948608 591.372009,574.018616 
	C597.926147,566.078064 604.488770,558.808167 612.307373,552.802490 
	C620.015198,546.881836 628.556580,542.476807 638.411926,538.608887 
	C620.298767,525.405396 611.153320,507.932190 612.140320,486.181122 
	C612.905090,469.325043 620.170593,455.013733 633.360901,444.165100 
	C655.927185,425.605011 688.399536,428.298279 707.740479,449.600098 
	C728.239380,472.177307 729.454285,514.582458 697.450500,538.250244 
	C697.702942,539.952942 699.330383,539.983826 700.421875,540.446716 
	C734.431641,554.869751 753.531738,580.979797 760.003357,616.800049 
	C761.060181,622.649109 761.077393,628.729980 761.112976,634.706360 
	C761.143555,639.848572 757.915405,643.261230 753.853882,643.226562 
	C749.684143,643.190979 746.688843,639.914368 746.912415,634.571106 
	C747.730652,615.007202 742.362305,597.352173 730.865967,581.606750 
	C698.513000,537.296143 636.848206,537.357483 604.566833,580.798645 
	C602.609619,583.432434 602.641724,585.133240 604.819336,587.617249 
	C620.838196,605.889893 630.287170,627.261719 633.964966,651.184326 
	C635.433960,660.738831 635.640747,670.413086 635.255249,680.074524 
	C635.094055,684.115906 632.817444,686.695740 628.810913,687.108093 
	C624.678528,687.533325 622.311707,685.216980 621.438171,681.237732 
	C620.387146,676.449707 621.123901,671.603760 620.903503,666.789917 
	C618.792969,620.677368 596.882690,587.254211 554.949280,568.435364 
	C512.357605,549.321045 460.570557,563.573914 431.770874,600.482178 
	C415.714966,621.058655 407.654266,644.299500 408.013947,670.432617 
	C408.057495,673.595825 408.159821,676.783936 407.840881,679.920410 
	C407.363922,684.610657 404.033356,687.629761 399.925049,687.178589 
	C395.426422,686.684570 393.904877,683.526367 393.731079,679.456238 
	C392.289917,645.704285 401.021973,615.188843 422.949036,589.036926 
	C425.928925,585.482910 426.344543,583.319824 423.203888,579.443298 
	C405.734619,557.880615 383.413788,546.838440 355.640717,548.465393 
	C335.154785,549.665466 317.831268,558.747437 303.752563,573.470276 
	C287.721344,590.234924 279.999451,610.504822 280.234314,633.748535 
	C280.241058,634.414856 280.251526,635.083069 280.212524,635.747620 
	C279.965942,639.947266 277.983002,642.816589 273.628815,643.163757 
	C269.098480,643.524841 266.939819,640.575195 266.275421,636.574585 
	C265.309326,630.757385 266.113770,624.841980 266.974640,619.167480 
	C272.267639,584.278076 290.668335,558.667053 322.636383,542.581299 
M541.513794,537.980225 
	C574.927429,520.251770 585.129517,474.281281 562.697021,443.411987 
	C544.130432,417.862579 513.219055,411.664764 488.227783,424.700500 
	C463.263519,437.722137 450.370422,464.972931 455.417358,492.690308 
	C462.914673,533.864990 505.072662,556.801697 541.513794,537.980225 
M399.850067,504.293396 
	C402.351166,496.417572 403.438477,488.527466 401.658325,480.234436 
	C397.926117,462.847687 382.651672,447.944458 366.445679,446.351288 
	C335.013062,443.261261 311.300751,473.244476 321.427795,503.274475 
	C327.090118,520.065063 342.616516,532.344727 358.694916,532.748596 
	C377.616119,533.223877 391.768311,523.643921 399.850067,504.293396 
M696.085083,458.413971 
	C686.097534,448.352264 674.074890,443.941620 660.164917,447.012146 
	C629.542358,453.771851 616.144653,488.712677 633.976868,514.583618 
	C643.736938,528.743469 661.038513,535.676514 676.078552,532.013000 
	C706.479370,524.607849 720.495178,483.668671 696.085083,458.413971 
z"/>
<path fill="#0379CC" opacity="1.000000" stroke="#0379CC" stroke-width="18" stroke-linejoin="round" 
	d="
M690.485107,197.553741 
	C667.594421,183.949158 643.700134,173.498703 618.764282,165.296066 
	C593.900940,157.117279 568.308533,152.529419 542.744629,149.902496 
	C542.388000,148.980515 542.266235,148.820877 542.276550,148.670258 
	C543.041565,137.455261 543.054993,137.342361 554.237854,138.593979 
	C632.780151,147.384506 701.151733,178.636459 759.078613,232.308090 
	C812.885620,282.162537 847.810425,343.173309 864.781067,414.485535 
	C868.284729,429.208313 870.638306,444.139130 872.110840,459.203064 
	C872.270264,460.833954 872.626221,462.517517 871.723083,464.191956 
	C868.809021,464.468658 865.852905,464.730865 862.901001,465.034180 
	C858.837952,465.451691 859.245911,462.077942 859.083496,459.949463 
	C858.437012,451.477539 857.275757,443.089539 855.754944,434.742828 
	C850.539673,406.118286 842.026062,378.518219 829.827942,352.091766 
	C810.672668,310.593231 784.368958,274.229523 751.037659,242.962708 
	C732.618958,225.684906 712.554871,210.582138 690.485107,197.553741 
z"/>
<path fill="#0379CC" opacity="1.000000" stroke="#0379CC" stroke-width="18" stroke-linejoin="round" 
	d="
M455.793274,140.599548 
	C465.051208,139.169403 473.889526,137.972168 483.093140,137.751007 
	C483.709290,141.143631 483.274078,144.145126 484.043762,147.042099 
	C484.808655,149.921066 482.599701,150.133331 480.435974,150.345718 
	C460.376770,152.314819 440.602112,155.806259 421.167480,161.236343 
	C371.501343,175.113159 326.927887,198.536469 287.685547,232.053864 
	C245.411972,268.160248 213.095078,311.561371 191.684540,362.953827 
	C178.872131,393.707886 170.606155,425.634186 167.207413,458.799194 
	C166.650467,464.233826 160.156662,467.271484 155.361542,464.342407 
	C153.672134,463.310486 154.453964,461.704315 154.553329,460.269775 
	C155.994568,439.460968 159.970688,419.109406 165.684464,399.081940 
	C176.409943,361.487701 192.177399,326.154144 214.358383,293.924927 
	C259.515411,228.311310 319.713776,182.199112 394.960724,155.816101 
	C414.643341,148.914993 434.789398,143.966263 455.793274,140.599548 
z"/>
<path fill="#0379CC" opacity="1.000000" stroke="#0379CC" stroke-width="18" stroke-linejoin="round" 
	d="
M768.381592,748.382202 
	C705.354126,809.527100 630.479370,843.909119 543.705872,852.063171 
	C543.093689,850.969604 542.799622,850.687317 542.796814,850.402161 
	C542.764465,847.099243 542.776184,843.795959 542.776184,839.691345 
	C626.123169,831.280945 698.811340,798.624634 758.479553,739.268616 
	C818.054504,680.005432 851.159241,607.715881 859.956848,523.772949 
	C863.962708,524.028320 867.693970,524.266235 872.467957,524.570557 
	C863.993225,611.462341 829.428589,685.830017 768.381592,748.382202 
z"/>
<path fill="#0379CC" opacity="1.000000" stroke="#0379CC" stroke-width="18" stroke-linejoin="round" 
	d="
M316.656952,795.394653 
	C205.636215,724.099060 158.407700,605.522156 154.938583,524.781372 
	C155.644638,524.116577 156.504379,524.228943 157.285889,524.461121 
	C160.269577,525.347595 163.791214,521.921997 166.193634,524.952698 
	C168.071533,527.321655 167.067734,530.763367 167.435791,533.717041 
	C172.608078,575.222534 184.458008,614.739136 203.720932,651.861633 
	C238.664536,719.202881 290.301392,769.874329 357.961548,804.040771 
	C387.832581,819.124756 419.361481,829.674805 452.398499,835.389038 
	C460.744568,836.832642 469.196930,837.659912 477.597778,838.790344 
	C479.716125,839.075378 481.881256,839.228149 483.987122,840.497131 
	C483.751709,843.897644 483.056335,847.306458 483.828705,851.894043 
	C423.056641,846.979492 367.774689,828.031860 316.656952,795.394653 
z"/>
<path fill="#0379CC" opacity="1.000000" stroke="#0379CC" stroke-width="18" stroke-linejoin="round" 
	d="
M885.356812,511.330505 
	C875.918091,519.787354 865.127930,521.124451 855.261414,515.300659 
	C846.528687,510.146118 841.647217,498.839722 844.213074,488.997284 
	C846.905823,478.668488 853.570190,472.179810 864.175659,470.497894 
	C873.886902,468.957794 882.000671,472.266022 887.499695,480.543640 
	C893.265625,489.223175 893.340637,498.337097 888.243347,507.432312 
	C887.517212,508.728088 886.489136,509.854645 885.356812,511.330505 
z"/>
<path fill="#0379CC" opacity="1.000000" stroke="#0379CC" stroke-width="18" stroke-linejoin="round" 
	d="
M176.773941,510.731262 
	C168.081161,519.406311 157.855057,521.242615 147.824127,516.164856 
	C138.746292,511.569489 133.270752,500.947632 134.969711,491.228851 
	C137.019226,479.504761 144.457047,471.707611 155.953629,470.348297 
	C165.188034,469.256470 173.191895,472.514709 178.486542,480.349823 
	C184.163498,488.750763 184.548172,497.750519 179.549973,506.754913 
	C178.827087,508.057220 177.861115,509.224579 176.773941,510.731262 
z"/>
<path fill="#0379CC" opacity="1.000000" stroke="#0379CC" stroke-width="18" stroke-linejoin="round" 
	d="
M499.251831,122.119164 
	C510.010925,115.630592 521.735107,116.400551 529.580933,123.870331 
	C537.362183,131.278610 539.568665,143.403351 534.850464,152.826416 
	C528.431824,165.645493 513.093567,170.240723 500.867065,163.007645 
	C488.869202,155.909805 485.511902,139.236832 493.772705,127.701500 
	C495.231659,125.664215 496.868958,123.781967 499.251831,122.119164 
z"/>
<path fill="#0379CC" opacity="1.000000" stroke="#0379CC" stroke-width="18" stroke-linejoin="round" 
	d="
M528.162292,866.284668 
	C519.411072,872.332764 510.480286,873.034058 501.474945,868.228394 
	C493.073364,863.744873 489.411011,855.993164 489.005402,846.827759 
	C488.501038,835.430786 498.385284,824.597351 510.376953,822.832031 
	C521.500977,821.194336 533.162476,829.130920 536.233337,840.326965 
	C539.041931,850.566956 535.898621,858.951111 528.162292,866.284668 
z"/>
<path fill="#0379CC" opacity="1.000000" stroke="#0379CC" stroke-width="18" stroke-linejoin="round" 
	d="
M652.848694,339.551636 
	C660.121521,356.938934 648.688538,371.129883 636.642334,373.526611 
	C625.246704,375.793945 613.727295,369.244904 609.837952,357.963501 
	C605.906616,346.560455 611.301758,333.563202 622.085266,328.459015 
	C632.524719,323.517731 645.060059,327.204803 651.373535,337.077576 
	C651.821106,337.777435 652.241943,338.494324 652.848694,339.551636 
M631.532471,340.364960 
	C629.035889,340.397644 627.063110,341.605316 625.436584,343.331543 
	C622.610046,346.331177 621.302490,349.791687 623.200317,353.775970 
	C624.975037,357.502045 627.877502,359.785675 632.183838,359.710846 
	C636.542480,359.635132 639.222046,357.144440 640.750488,353.283844 
	C643.088135,347.379242 639.953674,342.644714 631.532471,340.364960 
z"/>
<path fill="#0379CC" opacity="1.000000" stroke="#0379CC" stroke-width="18" stroke-linejoin="round" 
	d="
M377.881409,363.929138 
	C369.912201,349.436432 374.313965,333.947052 387.713959,328.305756 
	C398.548859,323.744324 411.232880,327.784607 416.832367,337.580994 
	C423.188019,348.700348 420.397766,362.327942 410.283905,369.563599 
	C400.506378,376.558655 387.942566,375.169434 379.663849,366.167725 
	C379.102692,365.557587 378.608612,364.885681 377.881409,363.929138 
M398.156097,359.659515 
	C403.864746,357.895660 406.997375,354.166260 406.660492,349.534973 
	C406.350861,345.278412 402.389343,340.953461 397.926697,340.512024 
	C393.182861,340.042755 389.999023,342.619629 388.122803,346.745941 
	C385.365265,352.810516 389.719696,358.812439 398.156097,359.659515 
z"/>
<path fill="#0379CC" opacity="1.000000" stroke="#0379CC" stroke-width="18" stroke-linejoin="round" 
	d="
M501.316772,297.110565 
	C512.224854,291.330933 523.210205,292.492126 530.553528,299.952820 
	C538.086243,307.605957 539.520508,319.744019 534.041748,329.473969 
	C528.686340,338.984802 516.400330,343.311096 505.989960,339.351959 
	C495.573212,335.390411 489.209778,323.963623 491.073059,313.422699 
	C492.277710,306.607605 495.712677,301.463135 501.316772,297.110565 
M511.411011,307.762390 
	C506.104004,310.599762 503.681915,314.375519 504.683014,318.650177 
	C505.721680,323.085297 508.410400,326.014771 513.091187,326.612885 
	C518.444519,327.296997 523.522095,322.755127 523.719177,317.248871 
	C523.938721,311.116302 519.436157,307.338226 511.411011,307.762390 
z"/>
</svg>