<svg width="64" height="64" viewBox="0 0 64 64" fill="none" xmlns="http://www.w3.org/2000/svg">
<path d="M19.3608 51.1994H44.6408C45.3197 51.1994 45.9709 50.9297 46.451 50.4496C46.9311 49.9695 47.2008 49.3184 47.2008 48.6394V47.6738C47.2008 45.8883 46.6574 44.145 45.6428 42.6758C44.6282 41.2065 43.1905 40.0808 41.5208 39.4482C35.3867 37.1252 28.6149 37.1252 22.4808 39.4482C19.0624 40.7426 16.8008 44.0178 16.8008 47.6738V48.6394C16.8008 49.3184 17.0705 49.9695 17.5506 50.4496C18.0307 50.9297 18.6818 51.1994 19.3608 51.1994Z" stroke="#0379CC" stroke-width="2.66667" stroke-linecap="round" stroke-linejoin="round"/>
<path d="M31.844 32.2091C30.5442 32.185 29.2675 31.8608 28.1136 31.2618C27.0068 30.687 26.0412 29.874 25.2863 28.8813C24.5313 27.8887 24.0056 26.7411 23.7472 25.521L23.5832 24.7482C23.3176 23.4946 23.3211 22.1988 23.5935 20.9466C23.8658 19.6944 24.4009 18.5143 25.1632 17.4842L25.4272 17.1274C26.1874 16.0995 27.1782 15.2641 28.3198 14.6885C29.4615 14.1128 30.7222 13.813 32.0008 13.813C33.2793 13.813 34.5401 14.1128 35.6817 14.6885C36.8234 15.2641 37.8141 16.0995 38.5744 17.1274L38.8384 17.4842C39.6007 18.5143 40.1357 19.6944 40.4081 20.9466C40.6805 22.1988 40.684 23.4946 40.4184 24.7482L40.2544 25.521C39.9851 26.7929 39.4256 27.9854 38.6194 29.0053C37.8133 30.0253 36.7823 30.8451 35.607 31.4009C34.4317 31.9566 33.1439 32.2332 31.844 32.2091Z" stroke="#0379CC" stroke-width="2.66667" stroke-linecap="round" stroke-linejoin="round"/>
<path d="M6.40234 44.9062C6.40234 45.731 7.07114 46.3998 7.89594 46.3998H16.8951C17.0953 45.0339 17.6141 43.7343 18.4094 42.6059C19.2048 41.4776 20.2544 40.5522 21.4735 39.9046C21.2389 39.7686 20.9925 39.6512 20.7343 39.5526C17.1716 38.1934 13.2331 38.1934 9.67034 39.5526C8.70937 39.9195 7.88243 40.5695 7.29889 41.4166C6.71535 42.2637 6.40272 43.2679 6.40234 44.2966V44.9062ZM19.9751 31.4446C19.7448 32.5399 19.1447 33.5227 18.2756 34.2281C17.4065 34.9334 16.3213 35.3184 15.2019 35.3184C14.0826 35.3184 12.9974 34.9334 12.1283 34.2281C11.2592 33.5227 10.6591 32.5399 10.4287 31.4446L10.3247 30.9502C10.1726 30.2244 10.175 29.4748 10.3319 28.75C10.4888 28.0253 10.7965 27.3417 11.2351 26.7438L11.4031 26.515C11.8408 25.9186 12.4128 25.4336 13.0728 25.0993C13.7327 24.765 14.4621 24.5908 15.2019 24.5908C15.9417 24.5908 16.6711 24.765 17.3311 25.0993C17.9911 25.4336 18.563 25.9186 19.0007 26.515L19.1687 26.7438C19.6074 27.3417 19.9151 28.0253 20.072 28.75C20.2288 29.4748 20.2313 30.2244 20.0791 30.9502L19.9751 31.4446ZM56.1095 46.3998H47.1095C46.9094 45.034 46.3908 43.7344 45.5956 42.6061C44.8004 41.4778 43.7509 40.5523 42.5319 39.9046C42.7655 39.7686 43.0117 39.6512 43.2703 39.5526C46.8331 38.1934 50.7716 38.1934 54.3343 39.5526C55.2953 39.9195 56.1223 40.5695 56.7058 41.4166C57.2893 42.2637 57.602 43.2679 57.6023 44.2966V44.9062C57.6023 45.3022 57.4451 45.682 57.1652 45.962C56.8852 46.2421 56.5055 46.3996 56.1095 46.3998ZM44.0287 31.4446C44.2591 32.5399 44.8592 33.5227 45.7283 34.2281C46.5974 34.9334 47.6826 35.3184 48.8019 35.3184C49.9213 35.3184 51.0065 34.9334 51.8756 34.2281C52.7447 33.5227 53.3448 32.5399 53.5751 31.4446L53.6791 30.9502C53.8313 30.2244 53.8288 29.4748 53.672 28.75C53.5151 28.0253 53.2074 27.3417 52.7687 26.7438L52.6007 26.515C52.163 25.9186 51.5911 25.4336 50.9311 25.0993C50.2711 24.765 49.5417 24.5908 48.8019 24.5908C48.0621 24.5908 47.3327 24.765 46.6728 25.0993C46.0128 25.4336 45.4408 25.9186 45.0031 26.515L44.8351 26.7438C44.3965 27.3417 44.0888 28.0253 43.9319 28.75C43.775 29.4748 43.7726 30.2244 43.9247 30.9502L44.0287 31.4446Z" stroke="#0379CC" stroke-width="2.66667" stroke-linecap="round" stroke-linejoin="round"/>
</svg>
