<svg width="64" height="64" viewBox="0 0 64 64" fill="none" xmlns="http://www.w3.org/2000/svg">
<path d="M26.6719 32.0007H37.3385M26.6719 21.334H37.3385M37.3385 56.0007V48.0007C37.3385 46.5862 36.7766 45.2296 35.7764 44.2294C34.7762 43.2292 33.4197 42.6673 32.0052 42.6673C30.5907 42.6673 29.2342 43.2292 28.234 44.2294C27.2338 45.2296 26.6719 46.5862 26.6719 48.0007V56.0007" stroke="#0379CC" stroke-width="2.66667" stroke-linecap="round" stroke-linejoin="round"/>
<path d="M16.0026 26.667H10.6693C9.25478 26.667 7.89823 27.2289 6.89803 28.2291C5.89784 29.2293 5.33594 30.5858 5.33594 32.0003V50.667C5.33594 52.0815 5.89784 53.438 6.89803 54.4382C7.89823 55.4384 9.25478 56.0003 10.6693 56.0003H53.3359C54.7504 56.0003 56.107 55.4384 57.1072 54.4382C58.1074 53.438 58.6693 52.0815 58.6693 50.667V24.0003C58.6693 22.5858 58.1074 21.2293 57.1072 20.2291C56.107 19.2289 54.7504 18.667 53.3359 18.667H48.0026" stroke="#0379CC" stroke-width="2.66667" stroke-linecap="round" stroke-linejoin="round"/>
<path d="M16 56V13.3333C16 11.9188 16.5619 10.5623 17.5621 9.5621C18.5623 8.5619 19.9188 8 21.3333 8H42.6667C44.0812 8 45.4377 8.5619 46.4379 9.5621C47.4381 10.5623 48 11.9188 48 13.3333V56" stroke="#0379CC" stroke-width="2.66667" stroke-linecap="round" stroke-linejoin="round"/>
</svg>
