<svg width="58" height="58" viewBox="0 0 58 58" fill="none" xmlns="http://www.w3.org/2000/svg">
<path d="M55.5726 26.4524H55.1226C54.7369 26.7899 53.162 27.0792 51.6192 27.0792C50.6228 27.0792 49.755 27.3845 49.2568 27.8345H48.6139C48.4211 22.8847 46.4444 18.401 43.3106 15.0101L43.6481 14.6726C44.3552 14.7369 45.3034 14.3351 46.0908 13.5476C47.1837 12.4548 48.5015 11.5388 49.0157 11.5227L49.3371 11.2013C49.98 10.5585 49.8032 9.32102 48.9193 8.43713C48.0354 7.55324 46.798 7.37646 46.1551 8.01929L45.8337 8.34071C45.8016 8.85497 44.8855 10.1728 43.7927 11.2656C43.0856 11.9727 42.6838 12.7923 42.6517 13.4673L42.1857 13.9333C38.8108 10.8156 34.3592 8.8389 29.4576 8.62998V8.06751C29.9558 7.58538 30.3094 6.66935 30.3094 5.60868C30.3094 4.06589 30.5987 2.49096 30.9361 2.10527V1.65529C30.9361 0.739253 29.9237 0 28.6862 0C27.4488 0 26.4363 0.739253 26.4363 1.65529V2.10527C26.7899 2.49096 27.0631 4.06589 27.0631 5.60868C27.0631 6.66935 27.4006 7.58538 27.9149 8.06751V8.62998C22.9329 8.79069 18.4171 10.7835 15.0101 13.9494L14.6726 13.6119C14.7369 12.9048 14.3351 11.9566 13.5476 11.1692C12.4548 10.0763 11.5388 8.75855 11.5066 8.24428L11.1852 7.92287C10.5424 7.28004 9.30495 7.45682 8.42106 8.34071C7.53717 9.2246 7.36039 10.462 8.00322 11.1049L8.32464 11.4263C8.8389 11.4584 10.1567 12.3745 11.2495 13.4512C11.9566 14.1583 12.7762 14.5601 13.4512 14.5922L13.9172 15.0583C10.7674 18.4492 8.79069 22.9329 8.61391 27.8827H8.13179C7.68181 27.3363 6.71756 26.9506 5.60868 26.9506C4.06589 26.9506 2.49096 26.6613 2.10527 26.3239H1.65528C0.739253 26.3239 0 27.3363 0 28.5738C0 29.8112 0.739253 30.8237 1.65528 30.8237H2.10527C2.49096 30.4701 4.06589 30.1969 5.60868 30.1969C6.60507 30.1969 7.47289 29.8916 7.97108 29.4416H8.61391C8.80676 34.3914 10.7835 38.8751 13.9172 42.266L13.5798 42.6035C12.8727 42.5392 11.9245 42.941 11.137 43.7285C10.0442 44.8213 8.7264 45.7373 8.21214 45.7534L7.89073 46.0748C7.2479 46.7176 7.42468 47.9551 8.30857 48.8389C9.19246 49.7228 10.4299 49.8996 11.0727 49.2568L11.3941 48.9354C11.4263 48.4211 12.3423 47.1033 13.4191 46.0105C14.1262 45.3034 14.5279 44.4677 14.5601 43.8088L15.0261 43.3428C18.4331 46.5087 22.949 48.4854 27.9309 48.6622V49.08C27.3363 49.4978 26.9024 50.5103 26.9024 51.6835C26.9024 53.2263 26.6131 54.8012 26.2756 55.1869V55.6369C26.2756 56.5529 27.2881 57.2921 28.5255 57.2921C29.763 57.2921 30.7754 56.5529 30.7754 55.6369V55.1869C30.438 54.8012 30.1487 53.2263 30.1487 51.6835C30.1487 50.7514 29.8916 49.9318 29.4737 49.4175V48.6622C34.3914 48.4532 38.8269 46.4765 42.2017 43.3588L42.5392 43.6963C42.4749 44.4034 42.8767 45.3516 43.6642 46.1391C44.757 47.2319 45.673 48.5497 45.6891 49.0639L46.0105 49.3853C46.6533 50.0282 47.8908 49.8514 48.7747 48.9675C49.6585 48.0836 49.8353 46.8462 49.1925 46.2033L48.8711 45.8819C48.3568 45.8498 47.039 44.9338 45.9462 43.857C45.2391 43.1499 44.4195 42.7481 43.7445 42.716L43.2945 42.266C46.4444 38.8751 48.4211 34.3914 48.5979 29.4416H49.08C49.53 29.988 50.4942 30.3737 51.6031 30.3737C53.1459 30.3737 54.7208 30.6629 55.1065 31.0004H55.5565C56.4725 31.0004 57.2118 29.988 57.2118 28.7505C57.2118 27.5131 56.4725 26.5006 55.5565 26.5006L55.5726 26.4524ZM48.7104 8.64605C49.4014 9.33709 49.53 10.3495 48.9996 10.912C49.2246 10.3013 49.0157 9.51387 48.4372 8.93532C47.8586 8.35678 47.0551 8.14786 46.4605 8.37285C47.0229 7.84251 48.0193 7.95501 48.7264 8.66212L48.7104 8.64605ZM8.91925 8.79069C8.34071 9.36923 8.13179 10.1728 8.35678 10.7674C7.82644 10.2049 7.93894 9.20853 8.64605 8.50142C9.33709 7.81037 10.3495 7.68181 10.912 8.21214C10.3174 7.98715 9.51387 8.19607 8.93532 8.77462L8.91925 8.79069ZM1.67136 30.3255C0.899961 30.3255 0.273202 29.5059 0.273202 28.5255C0.273202 27.5452 0.899961 26.7417 1.67136 26.7256C1.09281 26.9988 0.674971 27.7059 0.674971 28.5255C0.674971 29.3451 1.09281 30.0523 1.67136 30.3255ZM8.51748 48.5818C7.82644 47.8908 7.69788 46.8783 8.22821 46.3158C8.00322 46.9265 8.21214 47.714 8.79069 48.2925C9.36923 48.8711 10.1728 49.08 10.7674 48.855C10.2049 49.3853 9.20853 49.2729 8.50141 48.5657L8.51748 48.5818ZM48.3086 48.4211C48.8871 47.8426 49.0961 47.039 48.8711 46.4444C49.4014 46.9908 49.2889 48.0033 48.5818 48.7104C47.8908 49.4014 46.8783 49.53 46.3158 48.9996C46.9105 49.2246 47.714 49.0157 48.2925 48.4372L48.3086 48.4211ZM26.9024 1.67136C26.9024 0.899961 27.722 0.273202 28.7023 0.273202C29.6826 0.273202 30.4862 0.899961 30.5022 1.67136C30.229 1.09281 29.5219 0.674971 28.7023 0.674971C27.8827 0.674971 27.1756 1.09281 26.9024 1.67136ZM30.3255 55.5404C30.3255 56.3118 29.5059 56.9386 28.5255 56.9386C27.5452 56.9386 26.7417 56.3118 26.7256 55.5404C26.9988 56.119 27.7059 56.5368 28.5255 56.5368C29.3451 56.5368 30.0523 56.119 30.3255 55.5404ZM28.6059 46.8462C18.5456 46.8462 10.3656 38.6662 10.3656 28.6059C10.3656 18.5456 18.5456 10.3656 28.6059 10.3656C38.6662 10.3656 46.8462 18.5456 46.8462 28.6059C46.8462 38.6662 38.6662 46.8462 28.6059 46.8462ZM55.5404 30.5022C56.119 30.229 56.5368 29.5219 56.5368 28.7023C56.5368 27.8827 56.119 27.1756 55.5404 26.9024C56.3118 26.9024 56.9386 27.722 56.9386 28.7023C56.9386 29.6826 56.3118 30.4862 55.5404 30.5022Z" fill="#0379CC"/>
<path d="M28.5977 27.3521C27.9067 27.3521 27.3281 27.9145 27.3281 28.6216C27.3281 29.3287 27.8906 29.8912 28.5977 29.8912C29.3048 29.8912 29.8673 29.3287 29.8673 28.6216C29.8673 27.9145 29.3048 27.3521 28.5977 27.3521ZM28.5977 29.4734C28.1156 29.4734 27.7299 29.0877 27.7299 28.6056C27.7299 28.1234 28.1156 27.7377 28.5977 27.7377C29.0798 27.7377 29.4655 28.1234 29.4655 28.6056C29.4655 29.0877 29.0798 29.4734 28.5977 29.4734Z" fill="#0379CC"/>
<path d="M28.6038 23.1904C25.6146 23.1904 23.1719 25.6171 23.1719 28.6223C23.1719 31.6276 25.5986 34.0542 28.6038 34.0542C31.609 34.0542 34.0357 31.6276 34.0357 28.6223C34.0357 25.6171 31.5929 23.1904 28.6038 23.1904ZM33.0875 27.8349H30.4841L32.3322 25.9867C32.7179 26.5331 32.975 27.1599 33.1036 27.8349H33.0875ZM29.4716 24.1386C30.1144 24.2672 30.709 24.5243 31.2233 24.8939L29.4716 26.6456V24.1386ZM27.9288 24.1225V26.8385L26.0003 24.91C26.5628 24.5082 27.2217 24.235 27.9288 24.1386V24.1225ZM24.8914 25.9867L26.7396 27.8349H24.1361C24.2486 27.1599 24.5218 26.5331 24.9075 25.9867H24.8914ZM24.1361 29.3777H26.7396L24.8914 31.2258C24.5057 30.6794 24.2486 30.0526 24.12 29.3777H24.1361ZM27.9288 33.1061C27.2217 32.9936 26.5628 32.7204 26.0003 32.3347L27.9288 30.4062V33.1221V33.1061ZM27.0771 28.6063C27.0771 27.7545 27.7681 27.0635 28.6198 27.0635C29.4716 27.0635 30.1626 27.7545 30.1626 28.6063C30.1626 29.458 29.4716 30.1491 28.6198 30.1491C27.7681 30.1491 27.0771 29.458 27.0771 28.6063ZM29.4716 33.0739V30.5669L31.2233 32.3186C30.709 32.6882 30.1144 32.9454 29.4716 33.0739ZM32.3322 31.2258L30.4841 29.3777H33.0875C32.975 30.0526 32.7018 30.6794 32.3161 31.2258H32.3322Z" fill="#0379CC"/>
<path d="M28.6077 10.6387C18.6921 10.6387 10.6406 18.7062 10.6406 28.6057C10.6406 38.5053 18.7081 46.5728 28.6077 46.5728C38.5073 46.5728 46.5748 38.5053 46.5748 28.6057C46.5748 18.7062 38.5073 10.6387 28.6077 10.6387ZM28.6077 45.6889C19.1903 45.6889 11.5245 38.0232 11.5245 28.6057C11.5245 19.1883 19.1903 11.5226 28.6077 11.5226C38.0251 11.5226 45.6909 19.1883 45.6909 28.6057C45.6909 38.0232 38.0251 45.6889 28.6077 45.6889Z" fill="#0379CC"/>
<path d="M28.6078 12.3423C19.6403 12.3423 12.3281 19.6384 12.3281 28.6219C12.3281 37.6055 19.6242 44.9016 28.6078 44.9016C37.5913 44.9016 44.8874 37.6055 44.8874 28.6219C44.8874 19.6384 37.5913 12.3423 28.6078 12.3423ZM29.4756 13.2744C33.0915 13.4672 36.386 14.9297 38.9091 17.2117L32.8183 23.3025C31.8701 22.5472 30.7291 22.049 29.4595 21.8883V13.2744H29.4756ZM27.9328 13.2744V21.8722C26.615 22.0008 25.3936 22.5151 24.4133 23.3025L18.3225 17.2117C20.8938 14.8975 24.2365 13.419 27.9328 13.2583V13.2744ZM17.2136 18.3206L23.3044 24.4114C22.533 25.3756 22.0188 26.5649 21.8741 27.8505H13.2763C13.4531 24.1864 14.9155 20.8758 17.2297 18.3206H17.2136ZM13.2763 29.3773H21.8902C22.0348 30.6629 22.5491 31.8521 23.3205 32.8164L17.2297 38.9072C14.9316 36.368 13.4691 33.0414 13.2763 29.3773ZM27.9328 43.9534C24.2365 43.7927 20.8938 42.3303 18.3225 40L24.4133 33.9092C25.4097 34.6967 26.615 35.2109 27.9328 35.3395V43.9373V43.9534ZM22.6455 28.6059C22.6455 25.3114 25.3133 22.6436 28.6078 22.6436C31.9023 22.6436 34.57 25.3274 34.57 28.6059C34.57 31.8843 31.9023 34.5681 28.6078 34.5681C25.3133 34.5681 22.6455 31.8843 22.6455 28.6059ZM29.4756 43.9534V35.3395C30.7291 35.1788 31.8862 34.6806 32.8344 33.9253L38.9252 40.0161C36.4021 42.2981 33.1076 43.7606 29.4917 43.9534H29.4756ZM40.0019 38.9072L33.9111 32.8164C34.6825 31.8521 35.1807 30.6629 35.3414 29.3773H43.9392C43.7625 33.0414 42.3 36.3519 40.0019 38.9072ZM35.3414 27.8345C35.1968 26.5488 34.6825 25.3596 33.9111 24.3953L40.0019 18.3045C42.3 20.8437 43.7625 24.1703 43.9392 27.8345H35.3414Z" fill="#0379CC"/>
</svg>
