<svg version="1.1" id="Layer_1" xmlns="http://www.w3.org/2000/svg" xmlns:xlink="http://www.w3.org/1999/xlink" x="0px" y="0px"
	 width="100%" viewBox="95 80 835 820" enable-background="new 0 0 1024 1024" xml:space="preserve">
<path fill="#0379CC" opacity="1.000000" stroke="#0379CC" stroke-width="20" stroke-linejoin="round" 
	d="
M584.186951,516.209229 
	C585.521179,513.291626 586.578613,510.655518 587.892883,508.154388 
	C589.297974,505.480347 591.596497,503.845459 594.681213,503.721161 
	C618.208740,502.773010 641.381409,504.439484 662.972107,514.906677 
	C698.893677,532.321411 720.697449,560.561523 727.375244,600.162415 
	C729.912537,615.209167 729.074158,630.380676 729.150940,645.516724 
	C729.227966,660.682617 729.213135,675.849182 729.188416,691.015320 
	C729.174500,699.542297 726.315979,702.378906 717.783936,702.379517 
	C579.787842,702.389404 441.791687,702.391785 303.795563,702.386780 
	C295.542603,702.386475 292.715790,699.615540 292.701141,691.275696 
	C292.658325,666.943176 292.241516,642.600220 292.791656,618.279846 
	C294.163971,557.609802 335.735931,515.001587 389.829803,505.492584 
	C401.935272,503.364624 414.038330,503.822052 426.173462,503.679138 
	C431.056976,503.621643 433.595367,506.488892 435.474243,510.638672 
	C447.153503,536.434509 458.934174,562.184387 470.689362,587.945801 
	C471.513611,589.752197 472.402893,591.528870 473.437744,593.685852 
	C475.189728,592.079224 475.487823,590.105286 476.111115,588.354553 
	C479.126465,579.885071 481.964447,571.350342 485.114868,562.932129 
	C486.417084,559.452454 486.430237,556.443542 484.903473,552.941406 
	C478.354095,537.918335 478.478821,537.894348 491.900055,528.518616 
	C496.543335,525.274963 501.109375,521.918762 505.662933,518.549377 
	C509.325745,515.839050 512.806396,515.612366 516.616638,518.457397 
	C523.423279,523.539917 530.377747,528.426025 537.308594,533.340271 
	C541.252930,536.136963 542.386414,539.732544 540.723938,544.246094 
	C540.321228,545.339355 540.137878,546.578857 539.501099,547.510071 
	C534.333313,555.067383 536.235291,562.395569 539.454346,570.109192 
	C542.642212,577.748108 544.933777,585.761047 548.160339,595.194153 
	C560.506714,568.119690 572.264954,542.334961 584.186951,516.209229 
M455.341858,589.108582 
	C445.200897,567.009094 435.030334,544.923157 424.958710,522.792114 
	C423.780792,520.203918 422.708496,518.301147 419.324799,518.202820 
	C401.795502,517.693665 384.695190,519.718628 368.596893,527.017090 
	C330.628632,544.230774 309.976105,573.648804 308.342987,615.410767 
	C307.464569,637.873291 308.253387,660.398315 308.075043,682.893494 
	C308.041901,687.074402 309.802795,687.881775 313.461090,687.876587 
	C373.618591,687.791199 433.776184,687.802063 493.933746,687.746338 
	C495.502960,687.744873 497.255402,688.304688 499.172363,686.579956 
	C484.707611,654.404480 470.184723,622.099731 455.341858,589.108582 
M713.756653,634.500000 
	C713.430786,623.861206 714.504272,613.186340 712.738892,602.583069 
	C708.323853,576.066223 695.856506,554.383240 673.973816,538.517029 
	C653.536316,523.698730 630.477661,517.540833 605.350891,518.136780 
	C600.875610,518.242859 598.529602,519.498230 596.671326,523.625488 
	C574.791138,572.221741 552.725830,620.734619 530.734924,669.281128 
	C528.080566,675.140686 525.577393,681.068726 522.830017,687.364075 
	C524.589417,687.539917 525.710632,687.749512 526.831970,687.750061 
	C587.496826,687.779663 648.161743,687.758545 708.826416,687.878296 
	C712.986023,687.886475 713.832825,686.188721 713.801086,682.498291 
	C713.666199,666.833191 713.751526,651.166260 713.756653,634.500000 
M491.588715,588.009094 
	C489.123260,595.252136 486.773987,602.537842 484.139709,609.718994 
	C482.956482,612.944458 483.243805,615.758606 484.631287,618.828369 
	C492.375458,635.962463 499.977356,653.160828 507.681610,670.313049 
	C508.584564,672.323303 509.208374,674.604431 511.241699,676.073608 
	C511.746796,675.406494 512.132202,675.052124 512.330505,674.613159 
	C520.962769,655.505615 529.546204,636.375854 538.234619,617.293945 
	C539.401428,614.731323 538.841553,612.525208 537.995667,610.104614 
	C532.838318,595.345337 527.989868,580.472717 522.533447,565.825989 
	C520.408508,560.121887 520.315796,555.090515 522.728271,549.519897 
	C525.766724,542.503784 525.486511,542.382446 519.092163,537.942505 
	C510.915009,532.264648 510.915039,532.264648 502.732300,537.966003 
	C496.002838,542.654785 496.056549,542.632507 499.327423,550.522095 
	C500.759247,553.975769 502.757385,557.188660 501.098694,561.425110 
	C497.765045,569.939270 494.930634,578.648804 491.588715,588.009094 
z"/>
<path fill="#0379CC" opacity="1.000000" stroke="#0379CC" stroke-width="20" stroke-linejoin="round" 
	d="
M484.182465,502.127808 
	C433.750397,487.850616 404.299164,454.513092 396.146332,403.784271 
	C386.328491,342.695007 426.463226,282.119965 488.611115,270.321381 
	C544.063599,259.793945 595.771545,287.829163 617.617920,339.528412 
	C637.275330,386.047394 625.632629,441.360199 588.988770,474.814484 
	C570.330383,491.848816 548.562012,501.885101 523.265320,504.465546 
	C510.174255,505.800903 497.369568,504.866547 484.182465,502.127808 
M544.891235,288.667755 
	C528.187622,282.822205 511.005493,281.605835 493.716248,284.637115 
	C438.474762,294.322571 404.283569,347.035339 410.135315,397.209137 
	C413.278717,424.161469 424.441895,446.739777 444.494080,465.071686 
	C476.139343,494.002045 526.796509,499.043732 562.760864,475.862427 
	C598.326782,452.937927 615.323364,419.791260 611.537476,377.627197 
	C607.724426,335.160980 585.400024,305.274597 544.891235,288.667755 
z"/>
<path fill="#0379CC" opacity="1.000000" stroke="#0379CC" stroke-width="20" stroke-linejoin="round" 
	d="
M307.917419,179.967804 
	C263.155884,208.799103 226.182083,245.170258 197.045563,289.193359 
	C168.792160,331.882080 149.629211,378.426514 141.315292,429.160828 
	C140.106750,436.535797 139.086441,443.949982 138.279755,451.378693 
	C137.897141,454.902191 136.411026,455.680511 133.056808,455.377472 
	C122.609276,454.433624 122.638657,454.567352 123.826828,444.914093 
	C128.306747,408.516907 137.778503,373.469421 152.419083,339.852203 
	C175.041397,287.907501 207.612076,243.141739 249.735657,205.267487 
	C290.834320,168.314804 337.658203,141.290268 390.206421,124.272125 
	C416.852051,115.642731 444.167084,109.972160 472.037140,107.002815 
	C475.289856,106.656265 476.799103,107.476929 476.391479,110.947868 
	C476.218231,112.423195 476.294037,113.953636 476.453979,115.437775 
	C477.145264,121.853676 477.142090,121.592735 470.543793,122.353477 
	C442.699829,125.563744 415.473053,131.638718 388.945221,140.696136 
	C360.452728,150.424362 333.519592,163.422699 307.917419,179.967804 
z"/>
<path fill="#0379CC" opacity="1.000000" stroke="#0379CC" stroke-width="20" stroke-linejoin="round" 
	d="
M643.986938,126.862259 
	C699.647888,147.079361 747.595825,178.707001 788.727905,220.469376 
	C839.054016,271.566650 872.927979,332.094391 889.924866,401.900940 
	C893.741821,417.577301 896.115784,433.506897 898.139099,449.500732 
	C898.676636,453.749573 897.140320,454.987610 892.980591,455.066132 
	C883.823730,455.239014 883.763550,455.459320 882.838989,447.125092 
	C879.369080,415.846252 871.543884,385.646423 859.916504,356.460754 
	C832.674438,288.081268 788.656311,232.781555 729.195435,189.604614 
	C693.801208,163.903442 655.277222,144.618118 612.985352,133.180359 
	C593.545044,127.922760 573.841553,123.895439 553.717651,122.212578 
	C551.264465,122.007431 548.844360,121.406677 546.126770,120.940903 
	C546.341309,116.889694 546.423340,113.122688 546.772034,109.380531 
	C547.118958,105.658333 550.125916,106.694443 552.185486,106.933441 
	C562.419495,108.121025 572.682007,109.205330 582.835083,110.915985 
	C603.543884,114.405144 623.774780,119.857918 643.986938,126.862259 
z"/>
<path fill="#0379CC" opacity="1.000000" stroke="#0379CC" stroke-width="20" stroke-linejoin="round" 
	d="
M720.278564,797.236084 
	C815.741516,731.097168 869.823669,640.368774 884.099121,525.342712 
	C887.912659,525.552917 891.507996,525.721680 895.098938,525.957764 
	C898.278198,526.166809 898.111694,528.327026 897.859314,530.658264 
	C895.635864,551.194641 891.767700,571.407104 886.278564,591.325806 
	C873.390564,638.093201 852.571167,680.971863 823.506714,719.826416 
	C793.709656,759.660278 757.393372,792.392578 715.055176,818.358643 
	C671.259766,845.218445 624.000977,862.909851 573.064758,870.423279 
	C566.321594,871.417908 559.557556,872.269714 552.807678,873.219910 
	C548.604370,873.811584 546.413879,872.863342 546.546814,867.782898 
	C546.779968,858.873657 546.453003,858.871704 555.687134,857.814026 
	C615.336243,850.981628 670.086975,830.815796 720.278564,797.236084 
z"/>
<path fill="#0379CC" opacity="1.000000" stroke="#0379CC" stroke-width="20" stroke-linejoin="round" 
	d="
M158.097885,614.024231 
	C182.715485,681.622681 223.991272,736.702454 279.938599,780.801453 
	C329.827271,820.124817 386.450378,844.738281 449.064117,855.464905 
	C457.082306,856.838562 465.188110,857.747803 473.280975,858.613647 
	C476.332062,858.940125 477.577148,859.949707 476.645081,863.034668 
	C476.408722,863.816772 476.410370,864.679749 476.364166,865.508972 
	C475.884979,874.107666 475.926666,873.773010 466.985291,872.753113 
	C436.939850,869.325745 407.630188,862.812439 379.208313,852.451355 
	C317.272491,829.872986 264.171722,794.097778 220.018875,745.183411 
	C173.555649,693.709412 143.179581,633.973083 129.205475,566.014099 
	C126.997566,555.276550 125.485039,544.388367 123.896034,533.533936 
	C122.863846,526.482971 123.368408,526.075928 130.143326,525.754028 
	C137.547363,525.402283 137.861282,525.362732 138.798279,532.795166 
	C141.822220,556.781555 146.734451,580.334534 154.251877,603.323792 
	C155.389206,606.801880 156.723801,610.215393 158.097885,614.024231 
z"/>
<path fill="#0379CC" opacity="1.000000" stroke="#0379CC" stroke-width="20" stroke-linejoin="round" 
	d="
M489.354675,101.692734 
	C495.312439,89.680511 506.335815,84.603592 518.410339,88.030212 
	C529.417236,91.153847 536.753601,102.020889 535.658569,113.579254 
	C534.512939,125.672066 525.489441,134.861404 513.462952,136.182983 
	C496.731842,138.021545 483.614410,121.741768 488.253296,104.884651 
	C488.517181,103.925720 488.876862,102.993149 489.354675,101.692734 
z"/>
<path fill="#0379CC" opacity="1.000000" stroke="#0379CC" stroke-width="20" stroke-linejoin="round" 
	d="
M895.706177,466.042297 
	C914.299988,467.941467 922.304871,486.125885 916.569946,499.757050 
	C912.391418,509.688812 901.437683,516.591370 891.587585,514.998108 
	C879.054504,512.970825 870.317505,503.546387 869.717712,491.407227 
	C869.175110,480.424622 877.194946,469.499054 887.890137,466.884308 
	C890.283081,466.299316 892.813477,466.276398 895.706177,466.042297 
z"/>
<path fill="#0379CC" opacity="1.000000" stroke="#0379CC" stroke-width="20" stroke-linejoin="round" 
	d="
M113.792267,510.363617 
	C104.767982,503.169159 101.803009,494.251343 104.743286,483.478577 
	C107.329689,474.002258 113.802887,468.584991 123.216461,466.576691 
	C136.605652,463.720276 148.526489,472.116608 151.760071,486.547821 
	C154.375748,498.221375 145.723465,511.254822 133.591980,514.254456 
	C126.448799,516.020630 120.099350,514.424561 113.792267,510.363617 
z"/>
<path fill="#0379CC" opacity="1.000000" stroke="#0379CC" stroke-width="20" stroke-linejoin="round" 
	d="
M512.804932,843.686768 
	C526.563171,845.502441 534.923889,854.424927 535.664795,867.612793 
	C536.293396,878.800598 527.963623,888.944519 515.871704,891.717102 
	C504.687073,894.281616 492.493378,887.227722 488.561218,875.918335 
	C484.531982,864.329712 489.733734,851.181396 500.308289,846.283630 
	C504.123322,844.516541 508.053528,843.216431 512.804932,843.686768 
z"/>
</svg>