<svg width="101" height="100" viewBox="-3 -3 107 106" fill="none" xmlns="http://www.w3.org/2000/svg">
<path d="M100.924 46.58C101.057 49.8231 101.047 52.9961 100.635 56.1504C100.046 60.6501 98.9032 65.0058 97.1387 69.1972C94.1642 76.2628 89.7684 82.3108 84.0091 87.3523C76.911 93.5658 68.718 97.553 59.3972 99.1894C55.2512 99.9173 51.0797 100.19 46.8845 99.8637C36.985 99.0939 28.0241 95.7919 20.0671 89.831C14.8594 85.9296 10.5221 81.2228 7.16815 75.6552C3.94799 70.3097 1.80557 64.5464 0.74229 58.3829C0.113786 54.7397 -0.129823 51.0731 0.0661383 47.3949C0.434989 40.4714 2.15421 33.883 5.28719 27.6793C8.84467 20.6352 13.8207 14.7662 20.138 10.0549C26.2728 5.47975 33.1421 2.51339 40.6482 0.997156C44.3456 0.250278 48.0758 -0.0962088 51.8414 0.023038C59.9904 0.281091 67.6755 2.29077 74.8521 6.18755C80.8613 9.45046 85.9929 13.7581 90.2351 19.109C95.4161 25.6442 98.7724 33.0097 100.234 41.2285C100.545 42.9802 100.739 44.7442 100.924 46.58ZM84.9252 21.1729C80.9683 22.875 76.8681 24.1488 72.6669 25.1493C72.7135 25.4418 72.726 25.6343 72.7757 25.8168C74.7451 33.0412 75.5978 40.4159 75.7392 47.8838C75.7501 48.4584 75.8931 48.6858 76.5119 48.6842C83.5481 48.666 90.5843 48.6663 97.6205 48.6828C98.2309 48.6842 98.4462 48.4725 98.388 47.8846C98.2223 46.2126 98.1511 44.5272 97.901 42.8683C97.286 38.7875 96.1466 34.8496 94.4794 31.0661C92.7903 27.233 90.6067 23.7067 87.9732 20.4518C87.6892 20.1009 87.4289 19.9866 86.9924 20.2209C86.3573 20.5619 85.6845 20.8329 84.9252 21.1729ZM98.092 55.5354C98.1879 54.4113 98.304 53.2885 98.3735 52.1629C98.4297 51.2519 98.3799 51.2194 97.4839 51.2187C94.8584 51.2166 92.2329 51.2189 89.6074 51.2189C85.2958 51.2188 80.9841 51.2361 76.6728 51.2012C75.9257 51.1951 75.717 51.4388 75.7307 52.147C75.7496 53.1302 75.6754 54.1159 75.6228 55.0996C75.496 57.4732 75.3275 59.8455 75.0088 62.2007C74.4713 66.1727 73.8355 70.1299 72.7202 73.9898C72.5414 74.6087 72.7308 74.7539 73.3069 74.8843C78.063 75.9607 82.6741 77.4686 87.0481 79.6461C87.4649 79.8536 87.698 79.8343 88.0095 79.4495C91.701 74.8896 94.421 69.8121 96.2093 64.2325C97.1054 61.4364 97.706 58.5751 98.092 55.5354ZM26.7904 67.3049C26.7536 67.1408 26.7083 66.9781 26.6812 66.8125C25.8769 61.9012 25.3931 56.9586 25.2588 51.9839C25.2445 51.4522 25.1193 51.2075 24.5254 51.2087C17.4658 51.2237 10.4061 51.2229 3.34648 51.2075C2.72247 51.2061 2.55813 51.4467 2.60053 52.0293C2.87121 55.7483 3.399 59.4181 4.44648 63.0106C6.20593 69.0449 9.00957 74.5252 12.986 79.4046C13.2772 79.7619 13.5287 79.8657 13.9598 79.6402C14.7054 79.2502 15.4702 78.8931 16.2432 78.56C19.9445 76.9649 23.7804 75.7804 27.7079 74.8934C28.3105 74.7573 28.4338 74.5404 28.2696 73.9613C27.6603 71.812 27.2141 69.6239 26.7904 67.3049ZM17.9929 21.9782C16.6896 21.4125 15.3696 20.8815 14.0915 20.2639C13.5835 20.0184 13.3069 20.1311 12.992 20.5173C11.176 22.7447 9.5972 25.1289 8.22334 27.6502C4.79324 33.9449 3.02084 40.6994 2.59322 47.8309C2.55705 48.4341 2.69327 48.6863 3.36658 48.6843C10.4048 48.6638 17.4432 48.6675 24.4815 48.6826C25.0384 48.6838 25.2345 48.5146 25.2531 47.9462C25.3598 44.6804 25.5191 41.4192 25.9112 38.1695C26.3169 34.806 26.8467 31.4682 27.6291 28.1719C27.8649 27.1783 28.1273 26.191 28.3893 25.1544C24.8308 24.325 21.4257 23.295 17.9929 21.9782ZM51.7589 66.8454C51.7604 68.5048 51.7733 70.1643 51.7562 71.8236C51.7512 72.3045 51.8902 72.5177 52.4109 72.5115C54.5778 72.4857 56.7382 72.6266 58.8995 72.7802C62.3067 73.0223 65.6871 73.4638 69.0524 74.0325C70.0346 74.1985 70.0783 74.1833 70.3254 73.2099C72.0929 66.2489 73.0439 59.1814 73.1527 51.9981C73.1628 51.3295 72.9598 51.2038 72.3473 51.2057C65.7959 51.2252 59.2444 51.2286 52.6931 51.2035C51.9754 51.2008 51.74 51.3821 51.7447 52.1271C51.7756 56.9849 51.7596 61.843 51.7589 66.8454ZM72.9382 42.7392C72.819 40.7984 72.6246 38.8661 72.3717 36.9372C71.9125 33.4348 71.2326 29.9791 70.367 26.5546C70.1826 25.8251 69.8239 25.7042 69.1872 25.8281C63.6965 26.8971 58.1448 27.3833 52.559 27.5047C51.9139 27.5187 51.7479 27.7298 51.7497 28.3464C51.7683 34.8401 51.7699 41.3339 51.7482 47.8275C51.746 48.4997 51.9625 48.6899 52.6198 48.6853C56.2809 48.6594 59.9423 48.6742 63.6036 48.6738C66.5664 48.6735 69.5292 48.6638 72.4918 48.6771C73.0015 48.6794 73.2311 48.5729 73.1809 47.9862C73.0353 46.2865 73.1526 44.5727 72.9382 42.7392ZM41.071 27.1094C38.0528 26.8362 35.052 26.438 32.0761 25.8616C30.9047 25.6348 30.898 25.6325 30.5948 26.8051C29.6023 30.6433 28.8892 34.5303 28.4484 38.4725C28.0983 41.604 27.8775 44.7386 27.851 47.8889C27.8467 48.4089 27.951 48.6838 28.5614 48.6822C35.2109 48.665 41.8603 48.6649 48.5097 48.6759C49.0405 48.6767 49.2308 48.4994 49.2298 47.9668C49.2175 41.3756 49.2168 34.7844 49.2269 28.1932C49.2276 27.6943 49.0516 27.5297 48.5548 27.5152C46.1019 27.4433 43.6491 27.3534 41.071 27.1094ZM47.5903 51.2203C41.4231 51.2197 35.2558 51.2187 29.0886 51.2188C27.8531 51.2189 27.8514 51.2208 27.8707 52.4883C27.9068 54.867 28.0866 57.2356 28.3076 59.6044C28.7388 64.2244 29.5525 68.7735 30.6798 73.2719C30.8392 73.908 30.9864 74.2494 31.8082 74.0965C37.2315 73.0876 42.707 72.5619 48.2254 72.505C49.2159 72.4948 49.2183 72.4985 49.2184 71.5025C49.2191 65.2243 49.221 58.9462 49.217 52.6681C49.216 51.039 49.3851 51.2313 47.5903 51.2203ZM67.637 18.447C65.9442 14.5413 63.9253 10.8345 60.9409 7.7388C58.6476 5.35996 56.0449 3.47344 52.7069 2.82965C51.7921 2.65323 51.7642 2.67046 51.7631 3.59763C51.7587 7.13313 51.7588 10.6686 51.7585 14.2041C51.7582 17.4751 51.7585 20.746 51.7609 24.017C51.7616 24.9974 51.7824 25.019 52.7823 24.9756C53.3353 24.9517 53.8869 24.8835 54.4398 24.873C58.2924 24.7995 62.1151 24.3923 65.9203 23.8198C67.0456 23.6505 68.1934 23.5429 69.3167 23.1436C68.8893 21.5245 68.2423 20.0512 67.637 18.447ZM34.187 23.6843C38.8455 24.4473 43.5404 24.8047 48.2546 24.9632C49.1268 24.9926 49.2129 24.9655 49.2182 24.1723C49.2248 23.1864 49.2205 22.2005 49.2205 21.2146C49.2203 15.299 49.2161 9.3835 49.2262 3.46799C49.2272 2.89882 49.1501 2.65538 48.4534 2.78953C44.335 3.58254 41.3382 6.05779 38.7817 9.17235C35.8928 12.6918 33.9561 16.7403 32.3958 20.9822C32.1346 21.6924 31.8117 22.3903 31.7017 23.1632C32.4857 23.4936 33.2991 23.4649 34.187 23.6843ZM58.6521 94.2718C59.8545 93.2998 60.9476 92.2177 61.9385 91.0315C64.4172 88.0644 66.2491 84.7188 67.708 81.1598C68.2987 79.7189 68.873 78.2688 69.2621 76.7618C69.0036 76.5735 68.7421 76.5389 68.4825 76.4995C66.6285 76.2182 64.7746 75.9445 62.9101 75.729C59.4644 75.3309 56.0129 75.0781 52.5446 75.0268C51.9534 75.0181 51.7483 75.1976 51.7498 75.802C51.7671 82.7088 51.7671 89.6156 51.7539 96.5224C51.7527 97.1384 51.9762 97.2499 52.5407 97.1475C54.802 96.7375 56.7671 95.7142 58.6521 94.2718ZM41.5451 93.6111C43.4965 95.3125 45.6521 96.6198 48.2413 97.1076C49.1687 97.2824 49.222 97.2558 49.222 96.2924C49.2222 89.4865 49.2114 82.6805 49.2324 75.8746C49.2345 75.2005 49.0253 75.0147 48.3655 75.0256C45.7899 75.068 43.2248 75.2472 40.6596 75.4659C37.9031 75.7008 35.1685 76.0897 32.4383 76.5223C31.8957 76.6083 31.708 76.8275 31.9047 77.4051C32.4475 78.9987 33.0331 80.5738 33.7053 82.1173C35.576 86.4121 37.9259 90.3818 41.5451 93.6111ZM17.6973 80.6881C16.854 81.0633 15.9832 81.3869 15.142 81.945C22.2914 89.5042 30.8128 94.3708 40.9608 96.3618C40.9303 96.2444 40.8455 96.1994 40.7706 96.1419C38.1989 94.1681 36.137 91.7404 34.4265 89.005C32.2586 85.5382 30.688 81.7979 29.4171 77.9278C29.2265 77.3475 29.0103 77.1921 28.3928 77.333C24.7726 78.1591 21.2376 79.2456 17.6973 80.6881ZM64.4507 91.9709C63.1127 93.5777 61.6597 95.0704 60.0395 96.4096C70.1806 94.348 78.7366 89.5083 85.86 81.9387C85.5688 81.7665 85.4119 81.6549 85.2403 81.5751C81.2319 79.7097 77.0483 78.367 72.751 77.3441C71.9946 77.164 71.7607 77.3989 71.5389 78.0711C69.902 83.0315 67.7893 87.7571 64.4507 91.9709ZM82.1324 14.3852C75.7703 8.86245 68.4327 5.32982 60.1919 3.62474C60.2365 3.76651 60.3129 3.85298 60.4027 3.92228C62.6184 5.63342 64.4053 7.74067 65.9818 10.0283C68.516 13.7056 70.249 17.7709 71.6475 21.9861C71.8302 22.5367 72.0214 22.6947 72.6113 22.5531C76.5537 21.6062 80.4027 20.385 84.1167 18.7547C84.6357 18.5269 85.1982 18.364 85.6947 17.9058C84.6451 16.6091 83.4067 15.5506 82.1324 14.3852ZM24.6543 10.0762C21.2159 12.3059 18.0462 14.8489 15.2345 17.9861C16.4738 18.6181 17.623 19.0976 18.7825 19.5578C21.9435 20.8124 25.193 21.7759 28.4998 22.562C28.9899 22.6785 29.1756 22.5464 29.3306 22.0838C29.7503 20.8307 30.1986 19.5853 30.6878 18.3576C32.8702 12.8807 35.7912 7.89601 40.3599 4.02177C40.4276 3.96442 40.4792 3.88834 40.5487 3.80922C40.2817 3.6409 40.0598 3.76644 39.8343 3.81635C34.4431 5.00959 29.4331 7.12617 24.6543 10.0762Z" fill="#ffffff" stroke="#ffffff" stroke-width="4" stroke-linejoin="round"/>
</svg>
