<svg width="102" height="100" viewBox="0 0 102 100" fill="none" xmlns="http://www.w3.org/2000/svg">
<path d="M95.675 56.2417C95.6791 58.7084 95.6833 61.1751 95.6231 63.7214C95.5189 64.0325 95.4442 64.264 95.444 64.4955C95.4373 75.6005 95.4364 86.7055 95.4409 97.8105C95.441 98.0454 95.5133 98.2803 95.5519 98.5152C95.5594 98.7034 95.5669 98.8917 95.5063 99.1426C95.1312 99.2439 94.8243 99.3159 94.5173 99.3163C89.3983 99.3235 84.2792 99.322 79.1602 99.3214C78.2624 99.3213 78.2595 99.3189 78.2595 98.4366C78.259 90.4115 78.2597 82.3865 78.2599 74.2989C78.2597 72.5928 78.2432 70.9491 78.2636 69.3059C78.2922 67.0081 78.3827 64.7106 78.3868 62.4129C78.4021 53.804 78.3931 45.195 78.3933 36.586C78.3933 36.4072 78.384 36.2275 78.3971 36.0495C78.4401 35.4635 78.6499 35.1551 79.3488 35.1596C84.2233 35.1909 89.0982 35.1595 93.9726 35.1993C94.5056 35.2037 95.036 35.533 95.5685 35.7746C95.5703 42.3796 95.57 48.9217 95.5763 55.4638C95.5765 55.7231 95.6406 55.9824 95.675 56.2417Z" fill="#ffffff"/>
<path d="M56.9935 36.9022C56.9935 36.9022 57.0511 36.9228 57.0605 37.0029C57.4237 37.8476 58.0419 38.2885 58.8301 38.5214C58.8734 38.5177 58.9078 38.5333 58.9512 38.641C59.0643 38.7739 59.1595 38.8343 59.2547 38.8946C59.2547 38.8946 59.2365 38.9008 59.2292 38.9437C59.5155 39.746 60.2313 40.0493 60.7346 39.5997C61.161 39.2188 61.5684 38.8097 61.9348 38.3717C62.0751 38.204 62.0781 37.9216 62.1436 37.6915C62.1398 37.6481 62.1558 37.6139 62.2704 37.5838C62.7172 37.4062 63.1366 37.2733 63.0082 36.7201C63.0082 36.7201 63.0239 36.7142 63.0771 36.7291C63.7292 36.7782 63.8791 36.3184 64.1792 35.9228C64.8063 35.0962 65.5841 34.3854 66.2672 33.5986C66.442 33.3973 66.4941 33.0895 66.6025 32.8306C66.6025 32.8306 66.6224 32.8003 66.6807 32.8181C67.2459 32.5343 67.812 32.2809 67.7906 31.5478C67.7906 31.5478 67.7923 31.5524 67.8417 31.551C68.0315 31.3639 68.172 31.1783 68.3125 30.9926C68.3125 30.9926 68.3207 31.0059 68.3627 31.0051C69.1357 30.6953 69.6013 30.1586 69.7932 29.3868C69.7932 29.3868 69.7992 29.3993 69.845 29.4003C69.9954 29.3743 70.1336 29.3808 70.1992 29.315C70.5421 28.9709 70.8068 28.4947 71.2127 28.2816C71.7025 28.0245 71.7832 27.6793 71.7953 27.2288C71.7953 27.2288 71.7996 27.2433 71.8298 27.232C71.8846 27.1775 71.9092 27.1343 71.9339 27.091C71.9339 27.091 71.9371 27.1099 71.9656 27.0964C72.0132 27.036 72.0324 26.9892 72.0517 26.9424C72.0517 26.9424 72.0585 26.963 72.0879 26.9529C72.1362 26.8955 72.155 26.8481 72.1738 26.8007C72.1738 26.8007 72.1896 26.8507 72.2225 26.8394C72.443 26.7502 72.679 26.7194 72.8091 26.5856C73.2371 26.1456 73.6449 25.6823 74.022 25.1981C74.1675 25.0113 74.2098 24.7443 74.299 24.5138C74.299 24.5138 74.3189 24.524 74.3633 24.5322C74.8344 24.4479 75.1071 24.2359 75.0241 23.7473C75.0241 23.7473 75.0315 23.7609 75.0784 23.7626C75.3228 23.6438 75.5331 23.5397 75.7137 23.3979C75.8602 23.2829 76.0024 23.1394 76.0894 22.9777C76.1902 22.7907 76.2286 22.57 76.294 22.3638C76.294 22.3638 76.3106 22.3485 76.3611 22.369C77.284 22.5857 77.0323 21.8658 77.1679 21.4616C77.1679 21.4616 77.1752 21.4757 77.219 21.4786C77.8243 21.1855 78.3066 20.8236 78.3902 20.1293C78.4902 20.0055 78.5902 19.8818 78.7811 19.7485C79.5143 19.7524 79.5124 19.2498 79.6056 18.8234C81.2913 16.9892 82.9748 15.153 84.6638 13.3217C85.4488 12.4706 86.2443 11.6293 87.1108 10.7633C87.1559 10.6174 87.1252 10.4916 87.0945 10.3659C87.0945 10.3659 87.1076 10.358 87.0941 10.3298C87.0394 10.2768 86.9982 10.2521 86.957 10.2273C86.957 10.2273 86.9698 10.225 86.9681 10.1837C86.6824 9.81028 86.4189 9.45744 86.1098 9.15045C85.5933 8.63751 84.9437 8.22342 84.55 7.63422C84.2727 7.2193 84.0432 7.07998 83.608 7.14114C83.608 7.14114 83.6221 7.13419 83.6218 7.0904C83.4532 6.77726 83.3453 6.41988 83.1052 6.25464C82.3023 5.70203 82.4482 5.12311 82.949 4.48574C82.949 4.48574 83.0041 4.45606 83.0525 4.50996C83.2181 4.5945 83.3496 4.67642 83.45 4.64806C84.8681 4.24763 86.2728 3.7969 87.6988 3.42809C90.3179 2.75069 92.9479 2.11477 95.5755 1.47074C97.0545 1.10825 98.5316 0.733557 100.022 0.423592C100.864 0.248448 101.094 0.545232 100.89 1.4284C100.766 1.96171 100.551 2.47617 100.456 3.01311C100.295 3.92754 100.23 4.85935 100.062 5.77224C99.8507 6.92025 99.5481 8.05143 99.3349 9.19918C99.0356 10.811 98.7966 12.4339 98.5051 14.0473C98.263 15.3876 97.9212 16.7131 97.7489 18.0612C97.6805 18.5969 97.3377 18.7218 97.0265 18.8901C96.6219 19.1088 96.6333 18.6423 96.4736 18.4456C96.3369 18.2771 96.1461 18.1499 95.9699 18.0168C95.6582 17.7812 95.342 17.5514 95.023 17.3258C94.5259 16.9743 94.0249 16.6283 93.5256 16.28C93.5256 16.28 93.5435 16.2667 93.5424 16.2271C93.1475 15.3679 92.5994 14.7558 91.7475 14.7724C91.1612 15.4146 90.6101 15.9858 90.0988 16.5907C89.7969 16.9479 89.2472 17.1711 89.366 17.7904C89.366 17.7904 89.3499 17.8151 89.2929 17.7987C88.5148 17.8434 88.2608 18.3143 88.2042 18.9583C88.2042 18.9583 88.1988 18.9454 88.1559 18.9481C87.6907 19.2824 87.2881 19.6442 86.8405 19.9373C86.384 20.2363 86.2502 20.6407 86.2811 21.1433C86.2811 21.1433 86.2633 21.168 86.203 21.1502C85.4791 21.1017 85.5223 21.6464 85.3945 22.0518C85.3945 22.0518 85.3809 22.0346 85.3449 22.0365C84.7079 22.2076 84.22 22.4994 84.0222 23.147C83.9919 23.2464 83.8143 23.2917 83.7481 23.3909C83.4305 23.8667 83.1278 24.3525 82.8197 24.8347C81.0352 26.7676 79.2593 28.7087 77.4643 30.6319C72.6526 35.7872 67.8328 40.9349 63.0156 46.0851C62.8636 46.2476 62.7051 46.4041 62.4576 46.5767C62.1452 46.715 61.9034 46.8132 61.7081 46.9695C60.8128 47.6866 59.757 47.6539 58.9112 46.9168C58.7044 46.7366 58.3765 46.6955 58.1043 46.5904C58.0604 46.592 58.025 46.5754 57.9943 46.4631C58.1103 45.5587 57.4983 45.706 57.0292 45.6632C57.0292 45.6632 57.0452 45.6549 57.047 45.6098C57.0108 45.4212 57.019 45.229 56.9274 45.1421C56.188 44.4411 55.4547 43.7294 54.6661 43.0866C54.3085 42.7951 53.8298 42.6524 53.406 42.4421C53.406 42.4421 53.4208 42.4344 53.4234 42.3939C53.4573 41.7953 53.0901 41.5081 52.3352 41.5002C52.3352 41.5002 52.3475 41.4964 52.3342 41.4668C52.277 41.4156 52.233 41.394 52.1891 41.3725C52.1891 41.3725 52.2035 41.3693 52.2087 41.324C52.1478 40.7695 51.8808 40.5397 51.3592 40.6645C51.3592 40.6645 51.3194 40.6447 51.3381 40.5818C51.1587 40.3916 50.9607 40.2642 50.7626 40.1369C48.3806 38.058 45.9962 35.9817 43.6172 33.8993C41.6226 32.1534 39.6344 30.4002 37.5947 28.6076C36.8928 29.2426 36.2212 29.8503 35.4566 30.4703C35.1765 30.5475 34.9431 30.5622 34.8102 30.6854C34.1369 31.3094 33.4895 31.9614 32.8337 32.6043C32.7223 32.7135 32.621 32.8341 32.5035 32.9362C31.5557 33.7596 30.5873 34.5606 29.6682 35.4148C29.4412 35.6258 29.3719 36.0065 29.2301 36.3092C29.2301 36.3092 29.2139 36.3207 29.1699 36.3175C29.1098 36.3569 29.0937 36.3995 29.0775 36.4422C29.0775 36.4422 29.0649 36.4422 29.0149 36.4287C28.3355 36.8977 27.6919 37.3632 27.0808 37.8679C26.5458 38.3097 26.0782 38.8378 25.5208 39.2456C25.2009 39.4796 25.0437 39.6796 25.1676 40.0575C25.1676 40.0575 25.1257 40.0069 25.0951 40.0214C24.5167 40.3064 23.8286 40.4282 23.7907 41.2387C23.7907 41.2387 23.787 41.2265 23.758 41.239C23.704 41.2925 23.6791 41.3335 23.6542 41.3745C23.6542 41.3745 23.6513 41.3619 23.6078 41.3627C23.3179 41.3941 23.0714 41.4247 22.8159 41.4565C22.7845 41.7188 22.7492 42.0135 22.7139 42.3082C22.7139 42.3082 22.7063 42.2948 22.6582 42.2941C22.1984 42.2968 21.8704 42.3851 21.6563 42.8191C21.5072 43.1212 21.181 43.3309 20.9677 43.6079C20.8036 43.8208 20.692 44.0741 20.5571 44.3094C20.5571 44.3094 20.5539 44.3014 20.5264 44.3161C20.4726 44.367 20.4461 44.4031 20.4197 44.4392C20.4197 44.4392 20.4189 44.435 20.3687 44.4351C19.7369 44.5385 19.1167 45.1603 19.0922 45.6646C19.0922 45.6646 19.0826 45.6508 19.039 45.6503C18.5762 45.6683 18.4016 45.9076 18.4035 46.306C18.3738 46.3452 18.344 46.3844 18.2301 46.4374C17.7387 46.6194 17.1583 46.6191 17.2991 47.3208C17.2991 47.3208 17.28 47.3378 17.2251 47.3206C16.5592 47.6308 15.9481 47.9582 15.3147 48.2977C15.3296 48.3769 15.4277 48.5803 15.3696 48.6464C15.1275 48.9218 14.8554 49.1784 14.5624 49.3995C14.1637 49.7002 13.685 49.9097 13.3314 50.2521C12.6572 50.9049 12.0341 51.6125 11.4215 52.3248C11.2929 52.4744 11.3014 52.742 11.2468 52.9553C11.2468 52.9553 11.2306 52.9643 11.1781 52.949C10.4661 53.148 9.83241 53.3879 9.82784 54.2486C9.82784 54.2486 9.8213 54.2356 9.77985 54.2359C9.36212 54.0959 9.12214 54.2607 8.90908 54.5656C8.72501 54.8289 8.44035 55.0319 8.29685 55.3112C8.10971 55.6755 7.41689 55.6946 7.62415 56.3098C7.62415 56.3098 7.60848 56.3188 7.55358 56.3021C6.80971 56.2195 6.6819 56.69 6.61057 57.2145C6.06205 57.7355 5.54287 58.2925 4.95819 58.7691C4.06131 59.5002 2.72954 59.3996 1.90601 58.583C1.47816 58.1588 1.06247 57.7214 0.656999 57.2757C-0.271181 56.2554 -0.209222 54.8169 0.80055 53.8705C4.53168 50.3735 8.26484 46.8787 12.0902 43.3706C12.3415 43.2916 12.5302 43.2595 12.6523 43.1518C12.9957 42.8488 13.3031 42.5054 13.6402 42.1947C14.4857 41.4153 15.3457 40.6516 16.1819 39.8626C16.2761 39.7737 16.2551 39.5628 16.2875 39.4085C16.2875 39.4085 16.3065 39.3858 16.3675 39.4043C17.0191 39.4016 18.4146 37.9909 18.4335 37.396C18.4335 37.396 18.4525 37.3687 18.5053 37.3878C18.6624 37.4336 18.8136 37.5184 18.8636 37.478C19.292 37.1316 19.7435 36.7988 20.103 36.3875C20.3401 36.1162 20.4369 35.7223 20.5966 35.3833C20.5966 35.3833 20.6126 35.3712 20.6702 35.3881C21.3595 35.4952 21.4428 35.0783 21.4667 34.6063C21.4667 34.6063 21.4809 34.6254 21.5233 34.627C22.0317 34.5288 22.5331 34.4608 22.3395 33.768C22.3395 33.768 22.3568 33.7554 22.4095 33.7717C23.4429 33.3115 24.1321 32.506 24.8134 31.6937C24.8422 31.6593 24.8015 31.5666 24.7933 31.5011C24.8117 31.517 24.8302 31.5328 24.8729 31.5391C25.7972 31.2045 26.3206 30.4253 26.9671 29.7971C27.023 29.7428 26.9754 29.582 26.976 29.4707C26.9752 29.4337 26.9916 29.4073 27.1023 29.3941C27.3572 29.3253 27.5703 29.2945 27.7063 29.1756C28.2158 28.7297 28.7262 28.2791 29.1851 27.783C29.5226 27.4181 29.7804 26.9794 30.0737 26.5735C30.0737 26.5735 30.0777 26.5849 30.1234 26.5843C30.3896 26.3434 30.61 26.1029 30.8305 25.8624C30.8305 25.8624 30.8753 25.9109 30.9048 25.8993C31.3725 25.7955 31.7314 25.6307 31.671 25.0824C31.671 25.0824 31.6759 25.0961 31.7053 25.085C31.7603 25.0322 31.786 24.9904 31.8117 24.9487C31.8117 24.9487 31.8143 24.9649 31.8421 24.9532C31.8966 24.9013 31.9233 24.861 31.9501 24.8207C31.9501 24.8207 31.9518 24.8324 31.9916 24.8301C32.0958 24.7408 32.1603 24.6539 32.2247 24.567C32.2247 24.567 32.2281 24.5739 32.275 24.5726C32.5142 24.4766 32.7358 24.4163 32.8942 24.2817C33.9869 23.3522 35.0735 22.4152 36.1409 21.4571C36.2698 21.3413 36.2717 21.0842 36.3325 20.8926C36.3325 20.8926 36.3447 20.8889 36.3813 20.9108C36.4935 20.8822 36.5691 20.8316 36.6447 20.781C37.6624 20.3499 38.5589 20.6248 39.3417 21.3087C42.3824 23.965 45.409 26.6374 48.4553 29.3978C48.5463 30.1364 48.9284 30.3904 49.5505 30.3378C49.5505 30.3378 49.5412 30.3437 49.5422 30.3886C49.7452 30.8577 49.8035 31.4695 50.5395 31.1967C50.5395 31.1967 50.5497 31.212 50.5362 31.2633C50.8134 32.0239 51.3814 32.469 51.8809 32.3789C51.8809 32.3789 51.9146 32.395 51.8966 32.456C51.8413 32.7071 51.8042 32.8973 51.7447 33.2012C52.1011 33.1649 52.3902 33.1354 52.6793 33.106C52.6793 33.106 52.6511 33.1553 52.6662 33.1695C52.7262 33.1918 52.771 33.1999 52.8159 33.208C52.8159 33.208 52.8318 33.2224 52.8188 33.2753C52.8596 33.4397 52.8871 33.5791 52.9712 33.6586C53.6774 34.3265 54.3656 35.018 55.117 35.6319C55.6596 36.0752 56.2903 36.4109 56.8817 36.7946C56.8817 36.7946 56.9182 36.7971 56.9317 36.8268C56.9452 36.8565 56.9935 36.9022 56.9935 36.9022Z" fill="#ffffff"/>
<path d="M44.3885 91.4061C44.3884 94.1078 44.3884 96.7425 44.3884 99.4238C38.6488 99.4238 32.9876 99.4238 27.259 99.4238C27.259 99.168 27.259 98.9283 27.259 98.6885C27.2605 81.1835 27.2618 63.6784 27.2634 46.1733C27.2635 45.2443 27.2642 45.2426 28.1798 45.2426C33.2994 45.2427 38.419 45.2436 43.5386 45.2443C43.782 45.2443 44.0253 45.2443 44.3886 45.2443C44.3886 60.6441 44.3886 75.9916 44.3885 91.4061Z" fill="#ffffff"/>
<path d="M52.7171 99.3302C52.692 99.1146 52.6449 98.899 52.6448 98.6834C52.6416 84.0561 52.6422 69.4289 52.6422 54.8016C52.6423 53.8481 52.6417 53.8415 53.6006 53.841C58.8118 53.8383 64.023 53.8383 69.2342 53.8422C69.4285 53.8424 69.6229 53.8929 69.868 54.0092C69.9222 54.3218 69.9286 54.5453 69.9286 54.7687C69.9288 68.9168 69.9289 83.0649 69.9268 97.213C69.9267 97.9502 69.9077 98.6874 69.8976 99.4245C69.8976 99.4245 69.9169 99.4365 69.8715 99.4341C69.7742 99.4344 69.7223 99.4372 69.6282 99.4036C69.454 99.3526 69.322 99.3252 69.1901 99.3252C63.6991 99.3254 58.2081 99.328 52.7171 99.3302Z" fill="#ffffff"/>
<path d="M19.0359 65.2398C19.0447 65.2993 19.0534 65.3588 18.9988 65.4791C18.8932 65.8151 18.8143 66.0901 18.8141 66.3652C18.8053 77.2621 18.8037 88.159 18.7463 99.0633C18.2825 99.1102 17.8734 99.1482 17.4647 99.1899C17.0627 99.2309 16.661 99.2757 16.1965 99.3204C15.4596 99.3211 14.7854 99.3203 14.0712 99.2808C13.3425 99.2675 12.6538 99.2929 11.9054 99.3197C11.5271 99.3202 11.2086 99.3194 10.8498 99.2799C8.31988 99.2262 5.83015 99.2101 3.34039 99.2012C3.26408 99.2009 3.1875 99.2756 3.06022 99.3168C2.90778 99.3157 2.80616 99.3131 2.69915 99.2652C2.52257 98.9431 2.35139 98.6662 2.17821 98.3434C2.17593 98.2359 2.17563 98.1745 2.21352 98.073C2.26842 97.9014 2.29975 97.77 2.29979 97.6386C2.30212 90.1126 2.3028 82.5866 2.29642 75.0606C2.29626 74.8727 2.21533 74.685 2.17089 74.4375C2.17073 74.0592 2.17175 73.7406 2.21139 73.3819C2.26477 70.8502 2.28064 68.3587 2.28906 65.8672C2.28931 65.7917 2.21183 65.7159 2.17004 65.5952C2.1702 65.4904 2.1709 65.4304 2.20446 65.3467C2.25539 65.2454 2.27346 65.1679 2.33421 65.0532C2.68724 64.9982 2.99758 64.9653 3.30796 64.965C7.9351 64.9598 12.5622 64.959 17.2263 64.9975C17.6589 65.0628 18.0938 65.3309 18.4085 64.8534C18.4305 64.8475 18.4526 64.8417 18.5271 64.884C18.7317 65.0347 18.8838 65.1372 19.0359 65.2398Z" fill="#ffffff"/>
<path d="M69.9509 99.428C69.9077 98.6874 69.9267 97.9502 69.9268 97.213C69.9288 83.065 69.9288 68.9169 69.9286 54.7688C69.9286 54.5453 69.9222 54.3219 69.9163 54.0362C70.0555 54.1098 70.2359 54.2243 70.3263 54.3883C70.3926 54.5088 70.3417 54.6942 70.3417 54.8507C70.3418 69.3804 70.344 83.9101 70.3276 98.4397C70.3273 98.7704 70.1168 99.1008 69.9509 99.428Z" fill="#ffffff"/>
<path d="M95.5675 35.7116C95.0359 35.533 94.5056 35.2037 93.9725 35.1993C89.0982 35.1595 84.2232 35.1909 79.3488 35.1596C78.6498 35.1551 78.44 35.4635 78.397 36.0495C78.384 36.2275 78.3932 36.4072 78.3932 36.586C78.393 45.195 78.4021 53.804 78.3867 62.4129C78.3826 64.7106 78.2922 67.0081 78.2636 69.3059C78.2431 70.9491 78.2597 72.5928 78.2306 74.2995C78.2014 74.3626 78.143 74.3656 78.143 74.3656C78.1353 71.6831 78.1202 69.0006 78.1213 66.3181C78.1257 56.1888 78.1353 46.0594 78.1429 35.93C78.1436 35.0355 78.1433 35.0348 79.032 35.0349C84.3538 35.0352 89.6757 35.0386 94.9975 35.0311C95.418 35.0306 95.7724 35.0416 95.6857 35.6549C95.6144 35.71 95.591 35.7108 95.5675 35.7116Z" fill="#ffffff"/>
<path d="M93.5446 16.3202C94.0249 16.6283 94.5259 16.9743 95.0229 17.3258C95.3419 17.5514 95.6582 17.7812 95.9699 18.0168C96.146 18.1499 96.3368 18.2771 96.4736 18.4456C96.6333 18.6423 96.6219 19.1088 97.0265 18.8901C97.3377 18.7219 97.6804 18.5969 97.7489 18.0612C97.9211 16.7131 98.2629 15.3876 98.5051 14.0473C98.7966 12.4339 99.0356 10.811 99.3349 9.19919C99.548 8.05144 99.8506 6.92026 100.062 5.77225C100.23 4.85936 100.295 3.92755 100.456 3.01312C100.551 2.47618 100.766 1.96172 100.89 1.42841C101.094 0.545242 100.864 0.248458 100.022 0.423602C98.5315 0.733567 97.0544 1.10826 95.5755 1.47075C92.9478 2.11478 90.3179 2.7507 87.6988 3.42809C86.2728 3.7969 84.8681 4.24764 83.45 4.64807C83.3496 4.67643 83.218 4.59451 83.0836 4.51343C85.4076 3.84797 87.7473 3.22579 90.0911 2.61961C93.3774 1.76966 96.665 0.924348 99.9559 0.092581C101.048 -0.183396 101.341 0.143279 101.127 1.26619C100.079 6.76504 99.0413 12.2659 98.0001 17.7661C97.996 17.788 97.9998 17.8119 97.9932 17.8326C97.8365 18.3187 97.9389 18.9592 97.2927 19.1655C96.6377 19.3746 96.2717 18.8777 95.868 18.5035C95.0987 17.7904 94.3317 17.075 93.5446 16.3202Z" fill="#ffffff"/>
<path d="M18.8011 99.0559C18.8036 88.159 18.8053 77.2621 18.814 66.3652C18.8142 66.0901 18.8932 65.815 18.9847 65.5225C19.0408 68.8588 19.0523 72.2127 19.0536 75.5666C19.0566 83.3043 19.0547 91.042 19.054 98.7797C19.054 98.936 19.0435 99.0922 18.9653 99.2942C18.8654 99.3443 18.8382 99.3485 18.8088 99.3032C18.8048 99.1878 18.8029 99.1219 18.8011 99.0559Z" fill="#ffffff"/>
<path d="M69.6704 99.4399C69.7223 99.4372 69.7742 99.4344 69.8657 99.4243C69.7251 99.5816 69.5459 99.8878 69.3644 99.8892C67.1868 99.9059 65.0087 99.8853 62.8309 99.8557C62.2548 99.8478 61.6797 99.7746 61.1039 99.7346C60.9703 99.7253 60.8315 99.7065 60.7023 99.7306C58.8302 100.08 56.9429 99.745 55.0663 99.8621C54.4902 99.898 53.9154 99.9554 53.3393 99.9924C53.0429 100.011 52.7245 100.035 52.8224 99.5193C53.5756 99.4605 54.2668 99.4616 54.9579 99.4606C59.8621 99.4539 64.7663 99.4469 69.6704 99.4399Z" fill="#ffffff"/>
<path d="M14.1111 99.3195C14.7853 99.3203 15.4596 99.3211 16.2589 99.3221C17.0562 99.3616 17.7283 99.4007 18.4005 99.4398C12.9733 99.4398 7.54604 99.4398 2.0213 99.4398C2.0213 88.0367 2.0213 76.6329 2.06708 65.1628C2.1373 65.0959 2.16174 65.0953 2.18098 65.1405C2.17437 65.2478 2.17297 65.3091 2.17157 65.3705C2.17087 65.4304 2.17017 65.4903 2.16875 65.658C2.1696 68.3178 2.17117 70.8699 2.17273 73.422C2.17171 73.7406 2.17069 74.0592 2.16898 74.5003C2.17063 82.4529 2.17296 90.283 2.1753 98.1131C2.1756 98.1745 2.17589 98.2359 2.1748 98.401C2.21809 98.8606 1.96033 99.4157 2.70451 99.3105C2.80613 99.3131 2.90775 99.3157 3.1225 99.3197C5.7871 99.3202 8.33856 99.3194 10.89 99.3185C11.2086 99.3193 11.5271 99.3202 11.9678 99.3217C12.7637 99.3215 13.4374 99.3205 14.1111 99.3195Z" fill="#ffffff"/>
<path d="M78.1337 74.4277C78.143 74.3656 78.2015 74.3626 78.2307 74.3621C78.2596 82.3865 78.259 90.4115 78.2595 98.4366C78.2595 99.3189 78.2623 99.3213 79.1602 99.3214C84.2792 99.322 89.3982 99.3235 94.5173 99.3163C94.8243 99.3159 95.1312 99.2439 95.4922 99.1975C95.4043 99.2821 95.2625 99.4548 95.1205 99.455C89.4877 99.4639 83.8549 99.4572 78.2221 99.4508C78.2051 99.4507 78.1881 99.4245 78.1245 99.3722C78.1245 91.1037 78.1245 82.7967 78.1337 74.4277Z" fill="#ffffff"/>
<path d="M95.5609 98.453C95.5133 98.2802 95.441 98.0454 95.4409 97.8105C95.4364 86.7055 95.4373 75.6005 95.444 64.4955C95.4442 64.264 95.5189 64.0325 95.607 63.7827C95.6359 67.1348 95.6058 70.5053 95.5994 73.8758C95.5837 82.0475 95.579 90.2192 95.5609 98.453Z" fill="#ffffff"/>
<path d="M11.284 52.9336C11.3015 52.742 11.2929 52.4744 11.4216 52.3248C12.0341 51.6126 12.6573 50.9049 13.3314 50.2521C13.685 49.9097 14.1637 49.7002 14.5624 49.3995C14.8555 49.1784 15.1275 48.9218 15.3696 48.6464C15.4277 48.5803 15.3296 48.3769 15.3148 48.2977C15.9482 47.9582 16.5592 47.6308 17.2156 47.3291C15.9925 48.5439 14.7247 49.7335 13.4554 50.9216C12.7453 51.5864 12.0327 52.2485 11.284 52.9336Z" fill="#ffffff"/>
<path d="M29.2657 36.2855C29.3719 36.0065 29.4412 35.6258 29.6682 35.4148C30.5873 34.5606 31.5557 33.7596 32.5035 32.9362C32.621 32.8341 32.7222 32.7135 32.8337 32.6042C33.4895 31.9614 34.1369 31.3094 34.8102 30.6854C34.9431 30.5622 35.1765 30.5475 35.4141 30.4846C33.4103 32.4116 31.3559 34.3367 29.2657 36.2855Z" fill="#ffffff"/>
<path d="M95.5685 35.7746C95.591 35.7108 95.6145 35.71 95.6731 35.7107C95.7088 38.9233 95.7111 42.1344 95.7094 45.3456C95.7074 48.9364 95.7018 52.5272 95.6863 56.1798C95.6406 55.9824 95.5765 55.7231 95.5763 55.4638C95.5699 48.9217 95.5703 42.3796 95.5685 35.7746Z" fill="#ffffff"/>
<path d="M69.6281 99.4036C64.7662 99.4469 59.8621 99.454 54.9579 99.4606C54.2668 99.4616 53.5756 99.4606 52.8215 99.4639C52.748 99.4457 52.7376 99.4239 52.7221 99.3662C58.2081 99.328 63.6991 99.3254 69.1901 99.3253C69.322 99.3253 69.4539 99.3526 69.6281 99.4036Z" fill="#ffffff"/>
<path d="M2.1862 65.0947C2.16176 65.0953 2.13731 65.0959 2.07642 65.1007C2.27425 65.0113 2.50829 64.8371 2.74287 64.8364C7.52041 64.8211 12.298 64.8257 17.1346 64.8644C17.1937 64.9025 17.1894 64.9571 17.1894 64.9571C12.5622 64.959 7.93508 64.9598 3.30794 64.965C2.99757 64.9653 2.68722 64.9982 2.30794 65.0548C2.23901 65.0936 2.1862 65.0947 2.1862 65.0947Z" fill="#ffffff"/>
<path d="M89.4005 17.7665C89.2472 17.1711 89.7969 16.9479 90.0988 16.5907C90.6101 15.9858 91.1612 15.4146 91.7475 14.7724C92.5994 14.7558 93.1476 15.3679 93.537 16.2368C93.0505 15.8746 92.5683 15.463 92.0397 15.0117C91.1664 15.9273 90.3007 16.8349 89.4005 17.7665Z" fill="#ffffff"/>
<path d="M25.2086 40.0402C25.0437 39.6796 25.2009 39.4796 25.5208 39.2456C26.0782 38.8378 26.5458 38.3097 27.0808 37.8679C27.6919 37.3632 28.3355 36.8977 29.0157 36.4349C27.7942 37.6441 26.5219 38.8335 25.2086 40.0402Z" fill="#ffffff"/>
<path d="M36.2885 20.9047C36.2717 21.0842 36.2698 21.3413 36.1409 21.457C35.0735 22.4152 33.9869 23.3522 32.8942 24.2817C32.7359 24.4163 32.5143 24.4766 32.2718 24.5705C33.5626 23.3521 34.9036 22.1345 36.2885 20.9047Z" fill="#ffffff"/>
<path d="M16.2521 39.4311C16.2552 39.5628 16.2761 39.7737 16.182 39.8626C15.3458 40.6516 14.4857 41.4153 13.6403 42.1947C13.3032 42.5054 12.9958 42.8488 12.6524 43.1518C12.5303 43.2595 12.3415 43.2916 12.1328 43.3568C13.4605 42.0548 14.8385 40.7542 16.2521 39.4311Z" fill="#ffffff"/>
<path d="M66.5684 32.8538C66.4941 33.0895 66.442 33.3973 66.2672 33.5986C65.5842 34.3854 64.8063 35.0962 64.1792 35.9228C63.8791 36.3184 63.7292 36.7782 63.0804 36.7213C64.1984 35.4249 65.3663 34.151 66.5684 32.8538Z" fill="#ffffff"/>
<path d="M53.4253 42.483C53.8298 42.6523 54.3085 42.7951 54.666 43.0865C55.4547 43.7294 56.1879 44.4411 56.9274 45.1421C57.019 45.2289 57.0108 45.4212 57.0423 45.6175C55.8387 44.6215 54.6416 43.5727 53.4253 42.483Z" fill="#ffffff"/>
<path d="M56.8604 36.7574C56.2903 36.4109 55.6596 36.0753 55.117 35.6319C54.3656 35.0181 53.6774 34.3265 52.9712 33.6586C52.8871 33.5791 52.8596 33.4398 52.8273 33.2819C54.1789 34.3972 55.5089 35.5587 56.8604 36.7574Z" fill="#ffffff"/>
<path d="M83.625 7.18309C84.0432 7.07998 84.2727 7.21931 84.55 7.63422C84.9438 8.22343 85.5934 8.63751 86.1098 9.15045C86.4189 9.45744 86.6825 9.81028 86.9667 10.1901C85.8587 9.23345 84.7503 8.22925 83.625 7.18309Z" fill="#ffffff"/>
<path d="M82.8596 24.8148C83.1278 24.3525 83.4305 23.8668 83.7481 23.391C83.8143 23.2918 83.9919 23.2465 84.0222 23.147C84.22 22.4994 84.7079 22.2076 85.3544 22.042C84.5664 22.962 83.7329 23.8785 82.8596 24.8148Z" fill="#ffffff"/>
<path d="M58.1232 46.6327C58.3765 46.6955 58.7044 46.7366 58.9112 46.9168C59.757 47.6539 60.8128 47.6866 61.7081 46.9696C61.9034 46.8132 62.1452 46.715 62.4177 46.5944C61.6285 47.8164 59.5994 48.2933 58.1232 46.6327Z" fill="#ffffff"/>
<path d="M62.1014 37.7096C62.0781 37.9216 62.0751 38.204 61.9348 38.3717C61.5685 38.8097 61.1611 39.2188 60.7346 39.5997C60.2313 40.0493 59.5155 39.746 59.2342 38.9355C59.5715 39.1402 59.8966 39.396 60.2595 39.6817C60.8694 39.0195 61.4643 38.3736 62.1014 37.7096Z" fill="#ffffff"/>
<path d="M82.8985 4.49326C82.4483 5.1231 82.3023 5.70203 83.1052 6.25463C83.3453 6.41987 83.4532 6.77726 83.6177 7.09708C83.2812 6.85757 82.9438 6.57281 82.6169 6.2766C81.812 5.54744 81.875 5.07745 82.8985 4.49326Z" fill="#ffffff"/>
<path d="M30.031 26.5887C29.7805 26.9794 29.5227 27.4181 29.1852 27.783C28.7263 28.2791 28.2158 28.7297 27.7063 29.1756C27.5704 29.2945 27.3573 29.3253 27.1268 29.3922C28.0454 28.4597 29.0168 27.5317 30.031 26.5887Z" fill="#ffffff"/>
<path d="M86.3145 21.1182C86.2503 20.6408 86.384 20.2363 86.8405 19.9373C87.2881 19.6442 87.6907 19.2824 88.1624 18.9508C87.5904 19.6649 86.9691 20.379 86.3145 21.1182Z" fill="#ffffff"/>
<path d="M7.6601 56.2862C7.41689 55.6946 8.10971 55.6755 8.29685 55.3112C8.44035 55.0319 8.72501 54.8289 8.90908 54.5656C9.12214 54.2607 9.36212 54.0959 9.78598 54.2398C9.12106 54.9164 8.40856 55.5895 7.6601 56.2862Z" fill="#ffffff"/>
<path d="M20.5997 44.2939C20.6921 44.0741 20.8036 43.8208 20.9677 43.6079C21.1811 43.331 21.5072 43.1212 21.6563 42.8192C21.8705 42.3851 22.1984 42.2968 22.6651 42.2976C22.0274 42.9607 21.3348 43.6195 20.5997 44.2939Z" fill="#ffffff"/>
<path d="M71.754 27.2472C71.7832 27.6793 71.7025 28.0245 71.2127 28.2816C70.8068 28.4947 70.5421 28.9709 70.1992 29.315C70.1336 29.3808 69.9954 29.3743 69.8387 29.3973C70.4287 28.6842 71.0707 27.9749 71.754 27.2472Z" fill="#ffffff"/>
<path d="M20.5607 35.4064C20.437 35.7223 20.3401 36.1162 20.103 36.3875C19.7436 36.7988 19.292 37.1316 18.8636 37.478C18.8137 37.5184 18.6624 37.4336 18.5188 37.3781C19.1613 36.7094 19.8431 36.0694 20.5607 35.4064Z" fill="#ffffff"/>
<path d="M18.3991 37.4199C18.4146 37.9909 17.0191 39.4016 16.3791 39.3952C17.008 38.7263 17.6864 38.0851 18.3991 37.4199Z" fill="#ffffff"/>
<path d="M24.7519 31.5176C24.8016 31.5666 24.8422 31.6593 24.8134 31.6937C24.1321 32.506 23.4429 33.3115 22.4166 33.7636C23.1508 33.0042 23.9307 32.2691 24.7519 31.5176Z" fill="#ffffff"/>
<path d="M26.9339 29.4922C26.9754 29.5821 27.023 29.7428 26.9671 29.7971C26.3206 30.4253 25.7972 31.2045 24.8455 31.5149C25.4931 30.838 26.1925 30.1758 26.9339 29.4922Z" fill="#ffffff"/>
<path d="M74.2619 24.5369C74.2097 24.7443 74.1674 25.0114 74.022 25.1981C73.6449 25.6824 73.2371 26.1456 72.8091 26.5857C72.6789 26.7194 72.4429 26.7502 72.212 26.8154C72.854 26.0551 73.5395 25.3075 74.2619 24.5369Z" fill="#ffffff"/>
<path d="M9.87014 54.2327C9.83237 53.3879 10.466 53.148 11.1729 52.9568C10.7844 53.3922 10.3484 53.8045 9.87014 54.2327Z" fill="#ffffff"/>
<path d="M58.8099 38.4802C58.0419 38.2885 57.4237 37.8475 57.0728 37.0309C57.6469 37.4655 58.2183 37.9522 58.8099 38.4802Z" fill="#ffffff"/>
<path d="M69.7518 29.4055C69.6013 30.1586 69.1357 30.6954 68.3554 31.0022C68.7743 30.4748 69.2423 29.9494 69.7518 29.4055Z" fill="#ffffff"/>
<path d="M76.2597 22.3893C76.2285 22.57 76.1902 22.7907 76.0894 22.9778C76.0023 23.1394 75.8601 23.2829 75.7136 23.3979C75.533 23.5398 75.3228 23.6438 75.0714 23.7592C75.4201 23.3077 75.8227 22.8612 76.2597 22.3893Z" fill="#ffffff"/>
<path d="M51.8558 32.3462C51.3814 32.469 50.8135 32.0239 50.5441 31.2682C50.9871 31.5857 51.4088 31.9496 51.8558 32.3462Z" fill="#ffffff"/>
<path d="M23.8367 41.2306C23.8286 40.4282 24.5166 40.3064 25.1149 40.0476C24.7378 40.447 24.3103 40.8348 23.8367 41.2306Z" fill="#ffffff"/>
<path d="M19.1333 45.6461C19.1167 45.1603 19.7369 44.5385 20.3705 44.4362C20.0066 44.8339 19.5905 45.2307 19.1333 45.6461Z" fill="#ffffff"/>
<path d="M88.2477 18.9457C88.2608 18.3143 88.5148 17.8434 89.2825 17.8092C88.9831 18.2017 88.6372 18.5674 88.2477 18.9457Z" fill="#ffffff"/>
<path d="M52.3534 41.5416C53.0901 41.5082 53.4573 41.7954 53.4198 42.4015C53.0663 42.1606 52.7189 41.8717 52.3534 41.5416Z" fill="#ffffff"/>
<path d="M78.3482 20.1467C78.3066 20.8236 77.8244 21.1855 77.2118 21.4754C77.5425 21.0342 77.9243 20.5991 78.3482 20.1467Z" fill="#ffffff"/>
<path d="M67.7486 31.5649C67.812 32.2809 67.2459 32.5343 66.6952 32.8074C67.0032 32.3799 67.3549 31.981 67.7486 31.5649Z" fill="#ffffff"/>
<path d="M52.6593 33.0678C52.3903 33.1355 52.1012 33.1649 51.7448 33.2012C51.8042 32.8973 51.8414 32.7072 51.9088 32.4701C52.1725 32.6254 52.4058 32.8275 52.6593 33.0678Z" fill="#ffffff"/>
<path d="M49.5326 30.2963C48.9284 30.3904 48.5464 30.1364 48.472 29.4392C48.821 29.6759 49.1679 29.9654 49.5326 30.2963Z" fill="#ffffff"/>
<path d="M22.7563 42.2927C22.7492 42.0135 22.7845 41.7188 22.8159 41.4565C23.0714 41.4248 23.3179 41.3941 23.614 41.3646C23.3754 41.6695 23.087 41.9733 22.7563 42.2927Z" fill="#ffffff"/>
<path d="M6.65265 57.198C6.6819 56.69 6.80972 56.2195 7.54962 56.3102C7.29861 56.6172 6.99666 56.8993 6.65265 57.198Z" fill="#ffffff"/>
<path d="M50.5165 31.1612C49.8036 31.4695 49.7452 30.8577 49.5452 30.384C49.8626 30.5982 50.1781 30.862 50.5165 31.1612Z" fill="#ffffff"/>
<path d="M18.4346 99.4516C17.7283 99.4007 17.0562 99.3615 16.3216 99.3206C16.661 99.2757 17.0626 99.2308 17.4647 99.1898C17.8734 99.1481 18.2825 99.1102 18.7462 99.0632C18.8029 99.1218 18.8048 99.1878 18.8079 99.3271C18.8092 99.4004 18.8055 99.4487 18.8055 99.4487C18.8055 99.4487 18.7409 99.4663 18.6953 99.4406C18.6133 99.4276 18.5768 99.4404 18.5404 99.4531C18.5165 99.4566 18.4926 99.46 18.4346 99.4516Z" fill="#ffffff"/>
<path d="M57.0486 45.7041C57.4983 45.706 58.1103 45.5587 57.986 46.434C57.6771 46.2366 57.3726 45.9908 57.0486 45.7041Z" fill="#ffffff"/>
<path d="M17.3351 47.2991C17.1583 46.6191 17.7387 46.6194 18.1944 46.4495C17.9524 46.7244 17.6617 47.0009 17.3351 47.2991Z" fill="#ffffff"/>
<path d="M77.1267 21.4796C77.0323 21.8658 77.284 22.5857 76.3693 22.3611C76.5797 22.0544 76.8326 21.776 77.1267 21.4796Z" fill="#ffffff"/>
<path d="M21.4249 34.6218C21.4428 35.0783 21.3595 35.4952 20.6761 35.38C20.8774 35.1159 21.1303 34.8766 21.4249 34.6218Z" fill="#ffffff"/>
<path d="M22.3029 33.7893C22.5331 34.4608 22.0317 34.5289 21.5132 34.6207C21.7292 34.3453 21.9978 34.078 22.3029 33.7893Z" fill="#ffffff"/>
<path d="M51.382 40.6981C51.8809 40.5397 52.1478 40.7695 52.2059 41.3307C51.9334 41.1658 51.6691 40.9488 51.382 40.6981Z" fill="#ffffff"/>
<path d="M85.4355 22.035C85.5223 21.6464 85.4791 21.1017 86.1912 21.1597C85.9853 21.4641 85.7309 21.7411 85.4355 22.035Z" fill="#ffffff"/>
<path d="M79.5667 18.8432C79.5124 19.2498 79.5143 19.7524 78.8188 19.7343C79.0196 19.4407 79.2737 19.1518 79.5667 18.8432Z" fill="#ffffff"/>
<path d="M31.6297 25.0992C31.7314 25.6308 31.3725 25.7955 30.8839 25.8738C31.0851 25.6119 31.3367 25.364 31.6297 25.0992Z" fill="#ffffff"/>
<path d="M17.2263 64.9975C17.1894 64.9571 17.1937 64.9025 17.1968 64.8753C17.5629 64.843 17.9258 64.838 18.3486 64.8431C18.0938 65.3309 17.6589 65.0628 17.2263 64.9975Z" fill="#ffffff"/>
<path d="M62.9703 36.7405C63.1366 37.2733 62.7172 37.4062 62.2991 37.5771C62.4766 37.304 62.7045 37.0325 62.9703 36.7405Z" fill="#ffffff"/>
<path d="M74.9835 23.7659C75.1071 24.2359 74.8343 24.4479 74.3572 24.5229C74.5188 24.2651 74.7309 24.0247 74.9835 23.7659Z" fill="#ffffff"/>
<path d="M30.7906 25.8801C30.61 26.1029 30.3896 26.3434 30.1183 26.5812C30.2952 26.3516 30.523 26.1246 30.7906 25.8801Z" fill="#ffffff"/>
<path d="M18.4447 46.2915C18.4016 45.9076 18.5762 45.6683 19.0466 45.654C18.8938 45.8645 18.6898 46.0708 18.4447 46.2915Z" fill="#ffffff"/>
<path d="M50.7801 40.1742C50.9607 40.2642 51.1587 40.3916 51.3261 40.5631C51.1295 40.4754 50.9635 40.3435 50.7801 40.1742Z" fill="#ffffff"/>
<path d="M68.2734 31.0112C68.172 31.1783 68.0315 31.364 67.8394 31.5503C67.9365 31.3773 68.0854 31.2036 68.2734 31.0112Z" fill="#ffffff"/>
<path d="M19.0464 65.2018C18.8837 65.1372 18.7316 65.0347 18.5599 64.8937C18.5995 64.849 18.6588 64.8429 18.7829 64.8703C18.8794 64.9385 18.9186 64.9559 18.9655 64.956C18.996 65.0253 19.0264 65.0946 19.0464 65.2018Z" fill="#ffffff"/>
<path d="M87.1173 10.4143C87.1252 10.4916 87.1559 10.6174 87.1513 10.7436C87.1241 10.6503 87.1321 10.5566 87.1173 10.4143Z" fill="#ffffff"/>
<path d="M36.6052 20.7867C36.5691 20.8316 36.4934 20.8822 36.3846 20.9054C36.4228 20.8495 36.4943 20.8209 36.6052 20.7867Z" fill="#ffffff"/>
<path d="M59.2361 38.8569C59.1595 38.8343 59.0643 38.7739 58.9586 38.6695C59.0378 38.69 59.1276 38.7545 59.2361 38.8569Z" fill="#ffffff"/>
<path d="M32.1868 24.58C32.1603 24.6539 32.0959 24.7408 31.9859 24.8286C32.0099 24.7507 32.0794 24.6719 32.1868 24.58Z" fill="#ffffff"/>
<path d="M18.958 64.9173C18.9187 64.9559 18.8794 64.9385 18.8272 64.8782C18.8545 64.8612 18.9025 64.8699 18.958 64.9173Z" fill="#ffffff"/>
<path d="M52.7991 33.1834C52.771 33.1999 52.7262 33.1918 52.6796 33.1451C52.7193 33.1109 52.7541 33.1284 52.7991 33.1834Z" fill="#ffffff"/>
<path d="M72.1405 26.8163C72.155 26.8481 72.1362 26.8955 72.0773 26.9505C72.0606 26.916 72.0839 26.874 72.1405 26.8163Z" fill="#ffffff"/>
<path d="M72.0177 26.9582C72.0325 26.9892 72.0133 27.036 71.9562 27.0949C71.9401 27.0626 71.9618 27.0183 72.0177 26.9582Z" fill="#ffffff"/>
<path d="M31.9148 24.8322C31.9233 24.861 31.8966 24.9013 31.834 24.952C31.8253 24.9229 31.8524 24.8832 31.9148 24.8322Z" fill="#ffffff"/>
<path d="M31.7762 24.9608C31.786 24.9904 31.7603 25.0322 31.6981 25.0842C31.6879 25.054 31.7143 25.0135 31.7762 24.9608Z" fill="#ffffff"/>
<path d="M29.1036 36.4316C29.0937 36.3995 29.1098 36.3569 29.1634 36.325C29.1863 36.3718 29.1626 36.4003 29.1036 36.4316Z" fill="#ffffff"/>
<path d="M56.9898 36.8825C56.9928 36.9014 56.945 36.8563 56.9331 36.8449C56.9502 36.8282 56.9721 36.8382 56.9898 36.8825Z" fill="#ffffff"/>
<path d="M86.9695 10.2621C86.9982 10.2521 87.0394 10.2769 87.0915 10.337C87.0623 10.3472 87.0222 10.322 86.9695 10.2621Z" fill="#ffffff"/>
<path d="M71.8978 27.1024C71.9092 27.1343 71.8845 27.1775 71.8223 27.2306C71.8104 27.1982 71.8361 27.156 71.8978 27.1024Z" fill="#ffffff"/>
<path d="M18.5739 99.464C18.5768 99.4404 18.6133 99.4276 18.6623 99.4348C18.6524 99.4615 18.6299 99.4682 18.5739 99.464Z" fill="#ffffff"/>
<path d="M18.8451 99.454C18.8055 99.4487 18.8093 99.4004 18.8101 99.3765C18.8382 99.3485 18.8655 99.3443 18.9341 99.3417C18.9452 99.3821 18.915 99.4207 18.8451 99.454Z" fill="#ffffff"/>
<path d="M52.2021 41.4075C52.2331 41.3941 52.277 41.4156 52.3335 41.4732C52.3024 41.487 52.2588 41.4648 52.2021 41.4075Z" fill="#ffffff"/>
<path d="M20.4553 44.4325C20.4462 44.4031 20.4726 44.367 20.5305 44.3176C20.5383 44.3448 20.5146 44.3853 20.4553 44.4325Z" fill="#ffffff"/>
<path d="M23.6891 41.3627C23.6791 41.3335 23.704 41.2925 23.7642 41.2403C23.7743 41.2696 23.7491 41.3102 23.6891 41.3627Z" fill="#ffffff"/>
<path d="M2.21348 98.073C2.17297 90.283 2.17063 82.4529 2.17017 74.56C2.2153 74.685 2.29623 74.8727 2.29639 75.0606C2.30276 82.5866 2.30209 90.1126 2.29976 97.6386C2.29971 97.77 2.26839 97.9014 2.21348 98.073Z" fill="#ffffff"/>
<path d="M10.8498 99.2799C8.33857 99.3194 5.78711 99.3202 3.17334 99.3182C3.18748 99.2756 3.26406 99.2009 3.34037 99.2012C5.83013 99.2101 8.31986 99.2263 10.8498 99.2799Z" fill="#ffffff"/>
<path d="M2.21137 73.3819C2.17119 70.8699 2.16962 68.3178 2.16931 65.7029C2.21181 65.7159 2.2893 65.7917 2.28905 65.8672C2.28063 68.3587 2.26476 70.8502 2.21137 73.3819Z" fill="#ffffff"/>
<path d="M14.0711 99.2808C13.4374 99.3205 12.7637 99.3215 12.0275 99.3204C12.6537 99.2929 13.3424 99.2675 14.0711 99.2808Z" fill="#ffffff"/>
<path d="M2.69912 99.2652C1.96032 99.4158 2.21809 98.8606 2.17679 98.4471C2.35136 98.6662 2.52254 98.9431 2.69912 99.2652Z" fill="#ffffff"/>
<path d="M2.18097 65.1406C2.18618 65.0947 2.239 65.0936 2.26525 65.092C2.27342 65.1679 2.25535 65.2454 2.20442 65.3467C2.17296 65.3091 2.17436 65.2478 2.18097 65.1406Z" fill="#ffffff"/>
</svg>
