<svg width="847" height="524" viewBox="0 0 847 524" fill="none" xmlns="http://www.w3.org/2000/svg">
<path d="M1.24219 0.189941L228.098 179.576C261.004 205.56 285.465 233.095 311.361 279.013C337.287 324.984 353.242 380.948 353.242 444.408V824.19" stroke="white" stroke-width="4"/>
<path d="M170.242 0.189941L306.871 179.576C326.69 205.56 341.422 233.095 357.018 279.013C372.633 324.984 382.242 380.948 382.242 444.408C382.242 578.663 382.242 689.935 382.242 824.19" stroke="white" stroke-width="4"/>
<path d="M340.242 0.189941L385.356 179.576C391.899 205.56 396.764 233.095 401.914 279.013C407.069 324.984 410.242 380.948 410.242 444.408V824.19" stroke="white" stroke-width="4"/>
<path d="M845.242 0.189941L618.387 179.576C585.48 205.56 561.02 233.095 535.123 279.013C509.197 324.984 493.242 380.948 493.242 444.408V824.19" stroke="white" stroke-width="4"/>
<path d="M675.242 0.189941L539.902 179.576C520.271 205.56 505.678 233.095 490.228 279.013C474.761 324.984 465.242 380.948 465.242 444.408V824.19" stroke="white" stroke-width="4"/>
<path d="M508.242 0.189941L463.129 179.576C456.585 205.56 451.721 233.095 446.571 279.013C441.415 324.984 438.242 380.948 438.242 444.408V824.19" stroke="white" stroke-width="4"/>
</svg>
