<svg width="663" height="460" viewBox="0 0 663 460" fill="none" xmlns="http://www.w3.org/2000/svg">
<path d="M422.737 455.765C422.056 456.105 421.374 456.447 420.672 456.798C420.577 456.418 420.482 456.038 420.386 455.654C421.171 455.614 421.954 455.572 422.737 455.531V455.765ZM645.202 363.753C646.315 365.67 647.326 367.446 647.891 369.6C648.023 370.1 648.156 370.601 648.292 371.117C648.803 371.373 648.803 371.373 649.324 371.634C652.781 382.638 651.342 395.462 646.228 405.699C643.829 410.253 641.073 414.914 637.453 418.603H636.421C636.299 418.897 636.177 419.191 636.052 419.494C633.93 423.248 629.317 426.356 625.582 428.409H624.549V429.441C620.764 431.334 616.979 433.227 613.194 435.119V436.151H612.162V437.184H608.032V440.281C607.692 439.941 607.351 439.599 607 439.248C606.585 439.408 606.17 439.568 605.742 439.732C603.582 440.377 601.496 440.608 599.258 440.797C599.428 441.308 599.599 441.819 599.774 442.346H591.516C591.345 443.027 591.175 443.708 591 444.41H587.903L586.871 445.442L585.839 444.41C584.834 444.285 584.833 444.285 583.741 444.346C581.71 444.41 581.709 444.41 581.193 444.41C580.895 444.57 580.597 444.729 580.29 444.894C579.045 445.482 577.902 445.732 576.548 445.958V444.41C576.378 444.921 576.207 445.432 576.031 445.958C574.258 446.28 572.681 446.475 570.87 446.475C570.7 447.156 570.53 447.837 570.354 448.539C569.673 448.198 568.991 447.858 568.289 447.507C568.119 447.847 567.949 448.188 567.773 448.539C567.507 448.443 567.241 448.348 566.967 448.249C565.265 447.944 563.787 448.246 562.096 448.539V450.088C561.606 450.067 561.117 450.045 560.612 450.023C558.946 449.907 558.946 449.907 557.967 451.12H556.935C556.764 450.78 556.593 450.439 556.418 450.088C555.907 450.428 555.396 450.769 554.87 451.12C554.005 450.788 553.145 450.443 552.289 450.088C551.139 450.117 551.138 450.116 550.225 450.604C550.054 451.115 549.883 451.626 549.708 452.152C549.197 451.982 548.687 451.811 548.16 451.636V450.604C546.606 451.64 546.286 452.069 545.579 453.7C545.409 453.019 545.239 452.338 545.063 451.636C542.785 452.291 542.784 452.291 540.934 453.7H539.901C539.731 453.36 539.561 453.019 539.386 452.668C537.2 452.206 535.339 451.973 533.191 452.668C533.021 453.009 532.851 453.349 532.676 453.7C530.287 454.22 528.323 454.35 525.966 453.7C525.796 454.041 525.625 454.382 525.449 454.732C524.896 454.626 524.343 454.52 523.772 454.41C521.901 454.223 521.277 454.225 519.771 455.249V453.7C518.92 454.041 518.069 454.382 517.191 454.732V453.7C515.401 453.937 513.747 454.16 512.03 454.732C511.604 454.637 511.178 454.541 510.739 454.442C509.325 454.042 509.325 454.042 507.9 455.249L506.868 454.217L504.804 455.249C504.463 454.738 504.122 454.227 503.771 453.7C503.601 454.041 503.431 454.382 503.256 454.732C501.553 454.392 499.849 454.051 498.094 453.7C497.923 454.041 497.754 454.382 497.578 454.732V453.7C497.301 453.796 497.024 453.893 496.739 453.991C495.193 454.276 493.945 454.013 492.416 453.7V454.732L490.352 455.765V454.217C490.181 454.557 490.011 454.898 489.836 455.249C489.531 455.163 489.225 455.076 488.91 454.987C485.689 454.143 485.689 454.143 482.609 455.249C482.439 454.908 482.269 454.568 482.094 454.217C481.753 454.728 481.412 455.238 481.062 455.765C480.891 455.424 480.72 455.083 480.545 454.732H478.48V453.7H477.448C477.278 454.041 477.107 454.382 476.932 454.732C476.421 454.562 475.91 454.392 475.384 454.217C475.213 454.387 475.043 454.557 474.867 454.732C473.426 454.505 472.125 454.162 470.738 453.7C470.568 454.041 470.397 454.382 470.222 454.732V453.7C469.711 454.041 469.2 454.382 468.674 454.732C467.39 454.72 467.389 454.721 465.932 454.539C463.904 454.31 461.943 454.162 459.899 454.217L458.867 456.281H457.318C457.239 455.786 457.239 455.786 457.157 455.281C457.04 454.93 456.923 454.579 456.803 454.217C456.333 454.06 455.863 453.903 455.381 453.742C478.414 452.423 500.209 451.08 520.065 449.941C569.861 447.087 601.411 436.862 620.668 423.893C622.818 422.793 624.792 421.174 626.618 419.493C650.014 400.447 650.319 376.967 644.158 361.968C644.505 362.563 644.852 363.159 645.202 363.753ZM413.405 456.006C412.633 456.242 411.914 456.228 411.163 456.118C411.911 456.081 412.659 456.043 413.405 456.006ZM426.006 455.36C425.617 455.484 425.219 455.62 424.802 455.765C424.454 455.636 424.205 455.544 424.007 455.465C424.674 455.43 425.34 455.395 426.006 455.36ZM454.738 455.765C454.398 455.424 454.056 455.083 453.705 454.732C452.849 454.54 451.989 454.368 451.125 454.217C450.986 454.147 450.847 454.078 450.708 454.008C452.224 453.922 453.735 453.836 455.241 453.75C455.075 454.415 454.909 455.08 454.738 455.765ZM449.576 454.732C443.487 454.732 439.964 454.731 437.8 454.729C441.871 454.506 445.911 454.279 449.916 454.053L449.576 454.732ZM146.138 451.102C146.12 451.107 146.102 451.114 146.084 451.12V451.094C146.102 451.096 146.12 451.099 146.138 451.102ZM140.123 450.154C140.799 450.265 141.477 450.374 142.156 450.482C141.537 450.486 140.928 450.382 140.123 450.154ZM132.582 448.854C134.242 449.154 135.915 449.448 137.602 449.733C137.246 449.786 136.838 449.901 136.277 450.088C134.361 450.088 133.661 449.761 132.582 448.854ZM482.609 10.8486C483.196 10.7708 483.783 10.6935 484.388 10.6133C504.919 8.07046 525.12 12.49 543.515 21.6875V22.7197C544.067 22.9213 544.067 22.9213 544.63 23.127C547.195 24.2206 549.445 25.8432 551.772 27.3652C552.635 27.9081 552.635 27.9083 553.515 28.4619C555 29.5225 556.161 30.718 557.45 32.0107C558.008 32.5255 558.57 33.0368 559.134 33.5449C559.424 33.8067 559.713 34.0691 560.012 34.3389C560.609 34.8771 561.209 35.4128 561.811 35.9473C564.49 38.3791 564.49 38.3797 565.192 40.2695H566.225C567.56 41.7157 568.696 43.3356 569.87 44.9141C570.22 45.3835 570.57 45.8532 570.931 46.3369C573.642 50.0326 576.011 53.7963 578.106 57.8691C578.608 58.8403 579.125 59.8011 579.646 60.7617C584.332 69.5668 587.381 79.1746 590.39 88.6523C591.518 92.1421 592.866 95.3677 594.613 98.5938H595.646C595.683 99.022 595.719 99.4504 595.758 99.8916C596.265 102.153 597.241 103.758 598.484 105.69C598.826 106.232 598.826 106.233 599.175 106.785C600.933 109.503 602.866 111.856 605.134 114.171C605.968 115.11 605.968 115.11 605.968 116.143C606.263 116.27 606.559 116.396 606.863 116.527C608.221 117.279 609.125 118.179 610.227 119.271C614.457 123.122 619.551 125.508 624.618 128.068C630.539 131.07 636.066 133.935 641.065 138.337C641.575 138.771 642.085 139.204 642.61 139.651C645.188 141.893 645.188 141.893 646.228 142.981V144.014H647.26C655.753 153.726 659.83 165.839 661.548 178.437C661.656 179.223 661.77 180.009 661.892 180.793C662.771 186.552 662.756 192.147 662.389 197.951C662.329 198.92 662.329 198.92 662.268 199.909C661.962 203.968 661.239 207.711 660.163 211.629C659.937 212.575 659.716 213.523 659.498 214.472C657.095 224.667 653.652 234.463 649.838 244.209C649.24 245.676 649.24 245.677 649.324 247.243H648.292C648.2 247.561 648.107 247.879 648.012 248.207C647.128 251.206 646.153 254.152 645.08 257.088C644.759 257.976 644.437 258.865 644.116 259.754C643.95 260.213 643.784 260.672 643.612 261.145C640.146 270.728 636.819 280.336 633.84 290.083C633.678 290.606 633.517 291.13 633.351 291.669C628.766 306.708 628.748 320.659 631.259 336.02H632.808C632.708 336.315 632.609 336.611 632.507 336.916C632.25 338.309 632.463 338.947 632.98 340.254C633.226 340.879 633.227 340.878 633.478 341.516C633.753 342.18 633.753 342.18 634.033 342.858C634.222 343.32 634.411 343.783 634.605 344.259C636.253 348.193 638.211 351.862 640.388 355.523C641.446 357.304 642.489 359.094 643.526 360.887C619.713 336.43 628.073 293.652 635.268 275.246C680.895 180.714 650.645 141.642 625.688 132.314C605.724 124.853 593.338 105.342 589.641 96.5186C572.594 27.3199 526.588 12.0302 488.207 14.916C484.473 15.0593 480.772 15.5318 477.116 16.2646C466.254 18.0852 456.385 21.2008 448.473 24.6738L448.465 24.6797C444.038 27.5762 439.686 30.4191 435.364 33.1885C430.369 35.9499 425.507 38.9109 420.65 41.9111C417.081 44.105 413.483 46.2526 409.885 48.4004C382.317 63.2265 352.065 73.021 307.054 71.3096C240.755 68.7887 153.281 3.49896 85.7227 46.6055C70.2916 56.4514 58.2411 68.8229 48.8311 82.2861C33.9934 99.5529 25.4151 120.156 21.1768 142.981C21.0712 143.546 21.0715 143.546 20.9639 144.122C20.5723 146.313 20.3354 148.508 20.1445 150.724C20.1022 151.177 20.0602 151.631 20.0166 152.098C19.9226 153.14 19.8339 154.183 19.751 155.227C15.778 176.269 15.3916 193.559 15.3916 200.882V266.488C15.2766 268.298 15.1639 270.108 15.0479 271.917C15.0245 272.283 15.0007 272.649 14.9766 273.025C14.6313 278.414 14.2555 283.799 13.8535 289.184C13.8045 289.842 13.7556 290.501 13.7051 291.18C13.4694 294.332 13.2298 297.484 12.9863 300.636C12.9011 301.766 12.8165 302.896 12.7314 304.026C12.6902 304.545 12.648 305.064 12.6055 305.598C12.5707 306.065 12.5368 306.534 12.501 307.016C12.4694 307.424 12.4368 307.832 12.4043 308.252C12.4035 308.558 12.4032 308.865 12.4023 309.181C12.5726 309.351 12.7435 309.521 12.9189 309.696C13.0081 310.992 13.0647 312.274 13.0996 313.571C13.1116 313.963 13.1234 314.355 13.1357 314.759C13.1604 315.591 13.1839 316.423 13.2061 317.255C13.2155 317.603 13.2271 317.95 13.2373 318.298C10.0197 362.611 22.9723 390.287 30.7695 399.272C45.9065 424.371 82.8334 439.697 131.33 448.624C131.259 448.766 131.188 448.911 131.115 449.056C129.923 448.715 128.731 448.373 127.503 448.022L126.986 449.056V448.022C126.305 447.852 125.624 447.682 124.922 447.507C124.752 447.848 124.581 448.188 124.405 448.539C124.065 448.369 123.724 448.198 123.373 448.022C123.203 448.363 123.033 448.705 122.857 449.056V448.022C122.496 448.129 122.134 448.236 121.761 448.346C119.966 448.58 118.845 448.165 117.18 447.507C116.839 448.018 116.498 448.529 116.147 449.056C115.115 447.507 115.115 447.507 114.599 446.475H108.921C108.751 446.985 108.581 447.496 108.405 448.022C108.044 447.648 108.043 447.648 107.675 447.267C105.681 446.083 103.782 446.223 101.502 446.185C97.1925 446.047 93.0474 445.651 88.792 444.926C88.6217 445.266 88.4508 445.607 88.2754 445.958C88.1051 445.447 87.9352 444.936 87.7598 444.41C87.4192 444.921 87.0784 445.432 86.7275 445.958C85.5137 445.649 84.3086 445.303 83.1143 444.926C82.944 444.585 82.7731 444.244 82.5977 443.894C81.698 443.574 81.6977 443.575 80.5938 443.374C79.9536 443.236 79.9536 443.235 79.3008 443.095C78.6017 442.947 78.6009 442.947 77.8877 442.797C72.1021 441.509 66.5957 439.628 61.04 437.581C59.9753 437.214 58.9197 436.922 57.8232 436.668C57.9936 436.498 58.1634 436.327 58.3389 436.151C57.8566 435.911 57.8564 435.911 57.3643 435.665C50.9869 432.463 44.8192 429.276 39.2422 424.797C38.9566 424.569 38.6702 424.341 38.376 424.105C26.7829 414.759 17.2518 402.677 11.8857 388.666V387.634L9.82129 386.602C10.0767 385.324 10.0773 385.324 10.3379 384.021C9.99728 383.851 9.65659 383.68 9.30566 383.505C9.10764 382.305 8.94055 381.099 8.78906 379.892C8.4871 378.548 8.17065 377.222 7.82129 375.892C7.6966 375.382 7.69659 375.382 7.56934 374.861C7.07732 372.981 6.58951 371.912 5.17676 370.602C5.3189 369.393 5.49557 368.189 5.69238 366.988C5.60186 365.589 5.39586 364.247 5.17676 362.859H4.14355C4.08101 362.567 4.01854 362.275 3.9541 361.974C3.86767 361.595 3.78144 361.217 3.69238 360.827C3.60855 360.45 3.52485 360.072 3.43848 359.684C3.19981 358.623 3.19932 358.623 2.0791 358.214C2.24942 357.533 2.42022 356.851 2.5957 356.149H1.56348V352.021C1.22292 352.531 0.882123 353.042 0.53125 353.568C0.0468504 349.935 -0.0411356 346.393 0.0146484 342.729H1.04688C1.39617 340.973 1.39662 340.973 1.56348 339.116L0.53125 338.084C0.797324 337.69 1.06375 337.296 1.33789 336.891C1.58262 336.433 1.82696 335.975 2.0791 335.504C1.82361 334.737 1.82412 334.737 1.56348 333.955C1.64862 333.519 1.73357 333.082 1.82129 332.633C2.05714 331.011 2.01264 329.852 1.82129 328.245C1.60142 326.391 1.58285 324.936 2.0791 323.116V321.567C1.73857 321.397 1.39772 321.227 1.04688 321.052H2.0791C1.98329 320.509 1.88778 319.966 1.78906 319.406C1.58046 317.588 1.65589 316.593 2.0791 314.857C2.35906 312.965 2.59566 311.097 2.5957 309.181C3.00862 306.29 3.00856 306.29 3.62793 305.051C3.28736 304.88 2.94659 304.711 2.5957 304.535C2.766 303.513 2.93587 302.491 3.11133 301.438H3.62793C3.62523 300.996 3.6229 300.553 3.62012 300.097C3.61131 298.45 3.6045 296.803 3.59961 295.156C3.59702 294.444 3.59334 293.732 3.58887 293.021C3.58259 291.996 3.5797 290.97 3.57715 289.945C3.57445 289.329 3.57212 288.713 3.56934 288.078C3.61876 286.722 3.80949 285.7 4.14355 284.405C4.17928 283.44 4.18817 282.474 4.17676 281.508C4.17277 280.949 4.16817 280.39 4.16406 279.813C4.15069 278.644 4.13753 277.475 4.12402 276.306C4.10363 273.439 4.13888 270.711 4.66016 267.889H3.62793C3.71164 267.616 3.79559 267.343 3.88184 267.062C4.2067 265.53 4.21132 264.101 4.21289 262.533C4.21356 261.897 4.21416 261.262 4.21484 260.606C4.21285 259.944 4.21104 259.28 4.20898 258.598C4.21098 257.935 4.21279 257.272 4.21484 256.59C4.21418 255.954 4.21358 255.317 4.21289 254.662C4.21231 254.081 4.21154 253.499 4.21094 252.9C4.20252 251.45 4.20241 251.45 3.88379 250.396C3.47446 248.654 3.57611 246.894 3.5957 245.114C3.59766 244.71 3.59955 244.305 3.60156 243.888C3.60999 242.161 3.62471 240.434 3.63867 238.707C3.648 237.445 3.65406 236.182 3.66016 234.92C3.66658 234.336 3.6663 234.336 3.67285 233.74C3.6811 231.973 3.67243 230.35 3.11133 228.662H4.14355C4.03178 227.896 4.032 227.895 3.91797 227.113C3.87206 226.783 3.82659 226.453 3.7793 226.113C3.67989 225.413 3.57405 224.714 3.46094 224.017C3.10325 221.638 3.18434 219.672 3.62793 217.307C3.28727 217.136 2.94668 216.966 2.5957 216.79H3.62793C3.59068 216.255 3.55303 215.72 3.51465 215.169C3.46623 214.462 3.41846 213.755 3.37012 213.048C3.34551 212.696 3.32027 212.344 3.29492 211.981C2.97396 207.259 2.97429 207.258 3.62793 205.951H2.5957C2.75535 205.137 2.75507 205.136 2.91797 204.306C3.11773 202.274 2.8159 201.575 2.0791 199.758C2.41795 199.067 2.76284 198.379 3.11133 197.693C3.302 196.569 3.30199 196.568 3.33789 195.366C3.36223 194.906 3.38703 194.446 3.41211 193.973C3.43409 193.476 3.45587 192.979 3.47852 192.467C3.53465 191.396 3.59089 190.324 3.64746 189.253C3.67555 188.693 3.70445 188.132 3.7334 187.555C4.24269 177.583 4.9827 167.791 6.72461 157.95C6.83271 157.312 6.94136 156.675 7.05273 156.018C7.38721 154.047 7.731 152.079 8.08008 150.111C8.18645 149.506 8.29275 148.9 8.40234 148.276C8.50488 147.725 8.60725 147.173 8.71289 146.604C8.80241 146.116 8.89214 145.627 8.98438 145.123C9.09041 144.757 9.19641 144.391 9.30566 144.014C9.64622 143.843 9.98702 143.673 10.3379 143.498C10.3259 143.143 10.3141 142.788 10.3018 142.423C10.2924 141.958 10.283 141.493 10.2734 141.014C10.2615 140.553 10.2496 140.092 10.2373 139.617C10.3381 138.337 10.3378 138.337 11.3701 136.788C11.4109 135.584 11.4155 134.378 11.3701 133.175C11.7108 133.345 12.0514 133.516 12.4023 133.691C12.4812 133.185 12.4811 133.185 12.5615 132.669C13.0257 130.642 13.7526 128.758 14.499 126.82C14.6443 126.438 14.7897 126.056 14.9395 125.662C15.2962 124.725 15.656 123.789 16.0156 122.853C15.6751 122.682 15.3343 122.511 14.9834 122.336H16.5312C16.5928 121.969 16.6543 121.602 16.7178 121.224C17.0633 119.684 17.5721 118.354 18.1904 116.902C18.417 116.366 18.6436 115.829 18.877 115.276C19.1141 114.721 19.3513 114.166 19.5957 113.594C20.0638 112.493 20.531 111.391 20.9971 110.289C21.3084 109.56 21.3084 109.56 21.626 108.815C22.2424 107.341 22.2426 107.341 22.7363 105.669C23.2412 104.271 23.2414 104.271 24.2734 103.755C24.6344 102.902 24.9734 102.039 25.3057 101.174C29.5488 92.1346 35.0967 83.8042 41.123 75.8633C41.9124 74.822 41.9127 74.8216 42.3389 73.3027C43.1806 72.4246 44.0434 71.5661 44.9189 70.7217C45.7636 69.8132 46.6027 68.8988 47.4355 67.9795C47.8493 67.5238 48.2631 67.0681 48.6895 66.5986C49.4371 65.7696 50.1759 64.9342 50.9053 64.0889C53.1241 61.5173 55.4473 59.0829 57.8555 56.6885C58.207 56.3349 58.5587 55.9814 58.9209 55.6172C60.8868 53.6551 62.8939 51.8276 65.0488 50.0762L66.0811 49.0439C68.7835 46.8922 71.6261 44.9686 74.5332 43.1074C74.8898 42.8766 75.2469 42.646 75.6143 42.4082C76.7333 41.6877 77.858 40.9769 78.9854 40.2695C79.3902 40.0138 79.7948 39.7576 80.2119 39.4941C83.3212 37.5736 86.5009 36.0022 89.8564 34.5596C90.6239 34.2269 90.6242 34.2261 91.4072 33.8867C95.7783 32.0323 100.195 30.602 104.792 29.4297V28.3975C105.324 28.4188 105.857 28.44 106.405 28.4619C108.413 28.4654 110.325 28.2181 112.309 27.9141C122.198 26.4276 131.849 26.7993 141.765 27.6211C145.199 27.9029 148.633 28.0813 152.076 28.2207C153.848 28.4004 155.24 28.8642 156.923 29.4297C157.886 29.6569 158.854 29.8683 159.824 30.0635C160.385 30.1787 160.945 30.2934 161.522 30.4121C162.123 30.535 162.723 30.6585 163.342 30.7852C168.971 31.9633 174.55 33.2811 180.117 34.7207C180.463 34.8096 180.809 34.8986 181.166 34.9902C187.33 36.5777 187.331 36.5777 189.956 37.6885C190.126 37.3479 190.296 37.0071 190.472 36.6562C190.68 36.8933 190.889 37.1298 191.104 37.374C192.15 38.3207 192.975 38.6522 194.309 39.0977C194.771 39.2545 195.233 39.4116 195.709 39.5732C196.459 39.8201 196.46 39.8195 197.225 40.0713C197.743 40.2462 198.262 40.4214 198.797 40.6016C200.461 41.1617 202.128 41.7161 203.795 42.2695C205.437 42.8193 207.078 43.3705 208.72 43.9219C209.782 44.2782 210.845 44.6331 211.907 44.9873C215.336 46.1328 218.734 47.3361 222.111 48.626C223.483 49.1147 223.483 49.1149 224.886 49.0107C226.438 49.0528 226.571 49.5109 227.635 50.5918C228.877 51.0997 230.087 51.5418 231.36 51.9531C231.733 52.0773 232.105 52.2012 232.489 52.3291C233.708 52.7335 234.929 53.1308 236.15 53.5273C236.996 53.8052 237.843 54.0833 238.688 54.3613C251.234 58.4679 263.846 62.3853 276.861 64.6895C277.612 64.8224 277.612 64.8224 278.378 64.958C280.759 65.3597 283.018 65.67 285.442 65.5605V66.5928C285.859 66.6181 286.276 66.6429 286.705 66.6689C287.645 66.7268 287.645 66.7271 288.604 66.7861C288.963 66.8077 289.323 66.8293 289.693 66.8516C292.176 67.0037 294.655 67.1804 297.135 67.373C306.515 68.0826 315.778 68.3157 325.186 68.1406C325.651 68.1334 326.117 68.1266 326.597 68.1191C337.012 67.9152 347.434 66.2564 357.573 63.9473C358.44 63.751 358.44 63.751 359.324 63.5508C361.372 63.0763 361.372 63.0756 363.38 62.4629C363.55 62.1223 363.721 61.7816 363.896 61.4307C364.869 61.3111 365.842 61.1947 366.817 61.0947C368.956 60.7757 370.936 60.0086 372.961 59.2695C373.416 59.1057 373.872 58.9422 374.342 58.7734C375.68 58.2888 377.015 57.7962 378.349 57.3018C378.686 57.1787 379.023 57.0555 379.371 56.9287C392.706 52.0315 405.236 44.896 417.41 37.6523C460.11 12.2565 460.111 12.2562 474.352 12.9131C474.522 12.5726 474.692 12.2317 474.867 11.8809C476.236 11.5724 476.236 11.5729 477.932 11.333C480.085 11.0651 480.085 11.0652 482.094 10.333V9.30078C482.264 9.81154 482.434 10.3224 482.609 10.8486ZM570.354 445.442H572.935V444.926H570.354V445.442ZM577.064 444.41H580.161V443.894H577.064V444.41ZM583.773 443.378H586.354V442.861H583.773V443.378ZM595.129 441.313C593.636 440.625 593.636 440.625 592.451 441.281C592.143 441.462 591.834 441.643 591.516 441.829C593.304 441.574 593.305 441.574 595.129 441.313ZM1.56348 349.955C1.73373 349.444 1.90369 348.933 2.0791 348.407H1.04688C1.21716 348.918 1.38803 349.429 1.56348 349.955ZM12.4023 313.31H12.9189V310.729H12.4023V313.31Z" fill="url(#paint0_linear_55452_1500)"/>
<path d="M640.286 141.351C659.556 158.983 672 199.143 635.268 275.246C628.041 293.732 619.639 336.805 643.839 361.207C655.351 387.76 646.712 442.681 520.065 449.941C390.533 457.367 178.474 473.567 78.5938 434.332C181.671 470.362 385.337 454.452 511.142 447.045C637.761 439.59 646.398 383.195 634.889 355.929C610.694 330.872 619.094 286.642 626.319 267.659C656.859 202.673 653.397 163.212 640.286 141.351ZM566.87 47.0732C576.476 59.181 584.418 75.3196 589.641 96.5186C590.519 98.6144 591.891 101.311 593.734 104.309C587.06 96.817 582.661 88.9325 580.702 84.1309C577.206 69.5537 572.488 57.3078 566.87 47.0732Z" fill="#E5F3FA"/>
<path opacity="0.4" d="M439.657 10.0868C476.797 -6.21465 557.027 -14.668 580.824 81.9305C584.521 90.7535 596.907 110.265 616.872 117.726C633.539 123.955 652.564 143.451 649.776 183.871C647.483 154.137 631.538 139.053 617.33 133.743C597.638 126.383 585.421 107.138 581.774 98.4354C558.301 3.15378 479.165 11.492 442.531 27.5712L442.523 27.5761C402.246 53.9303 368.429 76.0575 303.039 73.5712C237.645 71.0845 151.365 6.68503 84.7279 49.203C18.0904 91.7217 15.3558 181.981 15.3558 201.376V299.094C7.98061 344.853 17.6253 375.936 26.0501 390.585C24.5458 388.681 23.177 386.715 21.9525 384.684C13.1295 374.517 -2.29778 340.418 6.57553 285.363V186.294C6.57555 166.631 9.34804 75.1248 76.9066 32.0184C144.465 -11.088 231.938 54.2016 298.237 56.7225C364.53 59.2432 398.814 36.8103 439.648 10.0917L439.657 10.0868ZM619.455 310.992C620.846 324.011 625.304 336.821 635.022 346.62C637.881 353.216 639.497 361.562 638.37 370.493C637.76 366.495 636.651 362.787 635.233 359.516C622.308 346.483 618.813 328.05 619.455 310.992Z" fill="url(#paint1_linear_55452_1500)"/>
<defs>
<linearGradient id="paint0_linear_55452_1500" x1="-9.8739e-06" y1="456.797" x2="715.008" y2="120.756" gradientUnits="userSpaceOnUse">
<stop stop-color="#257AD6"/>
<stop offset="1" stop-color="#F6FCFF"/>
</linearGradient>
<linearGradient id="paint1_linear_55452_1500" x1="-42.086" y1="465.503" x2="506.961" y2="66.5143" gradientUnits="userSpaceOnUse">
<stop stop-color="#257AD6"/>
<stop offset="1" stop-color="#CEEDFF"/>
</linearGradient>
</defs>
</svg>
