<svg width="663" height="460" viewBox="0 0 663 460" fill="none" xmlns="http://www.w3.org/2000/svg">
<path d="M15.3556 299.094C6.60326 353.399 21.8205 387.032 30.5231 397.061C79.2588 477.871 356.996 455.99 513.147 447.039C638.067 439.878 646.588 385.706 635.233 359.515C611.363 335.446 619.651 292.961 626.779 274.726C671.784 181.484 641.946 142.943 617.33 133.743C597.637 126.383 585.42 107.138 581.774 98.4355C558.301 3.15384 479.165 11.4918 442.531 27.571L442.523 27.5765C402.245 53.9307 368.43 76.0571 303.04 73.5708C237.646 71.0843 151.365 6.68468 84.7275 49.2034C18.09 91.7221 15.3556 181.981 15.3556 201.376V299.094Z" fill="#000"/>
</svg>
