<svg width="663" height="460" viewBox="0 0 663 460" fill="none" xmlns="http://www.w3.org/2000/svg">
<defs>
<linearGradient id="paint0_linear_55455_245" x1="0" y1="456.797" x2="715.008" y2="120.756" gradientUnits="userSpaceOnUse">
<stop stop-color="#257AD6"/>
<stop offset="1" stop-color="#F6FCFF"/>
</linearGradient>
<linearGradient id="paint1_linear_55455_245" x1="-42.086" y1="465.5" x2="506.958" y2="66.5105" gradientUnits="userSpaceOnUse">
<stop stop-color="#257AD6"/>
<stop offset="1" stop-color="#CEEDFF"/>
</linearGradient>
</defs>
<path d="M482.093 9.30042C482.264 9.8114 482.434 10.3224 482.609 10.8488C483.196 10.771 483.783 10.6932 484.388 10.613C504.919 8.07013 525.119 12.4903 543.515 21.6879C543.515 22.0285 543.515 22.3692 543.515 22.7202C544.066 22.9218 544.066 22.9218 544.63 23.1274C547.195 24.2212 549.445 25.8434 551.773 27.3655C552.635 27.9084 552.635 27.9084 553.515 28.4623C555 29.5229 556.161 30.718 557.45 32.0108C558.008 32.5256 558.57 33.0369 559.134 33.5451C559.424 33.8069 559.714 34.0687 560.012 34.3384C560.61 34.8766 561.209 35.4129 561.81 35.9474C564.49 38.3792 564.49 38.3792 565.193 40.2691C565.533 40.2691 565.874 40.2691 566.225 40.2691C567.561 41.7153 568.696 43.3358 569.87 44.9144C570.22 45.3839 570.57 45.8535 570.931 46.3373C573.642 50.033 576.011 53.7966 578.106 57.8694C578.607 58.8405 579.126 59.801 579.647 60.7616C584.332 69.5667 587.381 79.1744 590.39 88.6522C591.518 92.1419 592.866 95.3673 594.613 98.5934C594.953 98.5934 595.294 98.5934 595.645 98.5934C595.682 99.0218 595.72 99.4503 595.758 99.8918C596.265 102.153 597.241 103.758 598.484 105.69C598.826 106.232 598.826 106.232 599.175 106.785C600.933 109.503 602.866 111.856 605.133 114.17C605.968 115.11 605.968 115.11 605.968 116.142C606.263 116.269 606.559 116.396 606.863 116.527C608.221 117.279 609.124 118.179 610.226 119.271C614.456 123.122 619.55 125.508 624.618 128.068C630.539 131.07 636.066 133.934 641.066 138.336C641.575 138.77 642.085 139.204 642.61 139.651C645.188 141.893 645.188 141.893 646.227 142.982C646.227 143.322 646.227 143.663 646.227 144.014C646.568 144.014 646.909 144.014 647.26 144.014C655.752 153.726 659.83 165.839 661.548 178.437C661.656 179.223 661.77 180.009 661.891 180.793C662.771 186.552 662.757 192.147 662.389 197.951C662.329 198.92 662.329 198.92 662.268 199.909C661.962 203.968 661.239 207.711 660.163 211.629C659.937 212.576 659.715 213.523 659.498 214.472C657.095 224.667 653.652 234.462 649.838 244.209C649.24 245.676 649.24 245.676 649.324 247.243C648.983 247.243 648.643 247.243 648.292 247.243C648.199 247.561 648.107 247.879 648.012 248.207C647.128 251.206 646.153 254.152 645.08 257.088C644.759 257.977 644.437 258.865 644.116 259.754C643.95 260.213 643.784 260.672 643.612 261.144C640.146 270.728 636.819 280.336 633.84 290.083C633.678 290.606 633.517 291.129 633.35 291.669C628.766 306.708 628.748 320.659 631.259 336.02C631.77 336.02 632.281 336.02 632.807 336.02C632.708 336.316 632.609 336.611 632.506 336.916C632.25 338.309 632.463 338.946 632.981 340.254C633.227 340.878 633.227 340.878 633.477 341.516C633.753 342.18 633.753 342.18 634.033 342.859C634.222 343.321 634.411 343.783 634.605 344.259C636.253 348.193 638.211 351.862 640.388 355.524C641.453 357.317 642.503 359.119 643.548 360.924C644.096 361.869 644.647 362.813 645.203 363.753C646.315 365.671 647.326 367.446 647.891 369.599C648.023 370.1 648.155 370.601 648.292 371.117C648.803 371.373 648.803 371.373 649.324 371.634C652.781 382.637 651.342 395.461 646.227 405.699C643.829 410.253 641.072 414.914 637.453 418.603C637.112 418.603 636.771 418.603 636.42 418.603C636.299 418.897 636.177 419.191 636.052 419.494C633.929 423.248 629.317 426.357 625.581 428.409C625.241 428.409 624.9 428.409 624.549 428.409C624.549 428.75 624.549 429.091 624.549 429.442C620.764 431.334 616.979 433.227 613.194 435.119C613.194 435.46 613.194 435.801 613.194 436.152C612.853 436.152 612.513 436.152 612.162 436.152C612.162 436.492 612.162 436.833 612.162 437.184C610.785 437.184 609.409 437.184 608.033 437.184C608.033 438.206 608.033 439.228 608.033 440.281C607.692 439.94 607.351 439.599 607 439.249C606.585 439.408 606.17 439.568 605.742 439.732C603.582 440.377 601.497 440.608 599.258 440.797C599.428 441.308 599.599 441.819 599.774 442.345C597.049 442.345 594.324 442.345 591.516 442.345C591.346 443.027 591.175 443.708 591 444.41C589.968 444.41 588.935 444.41 587.903 444.41C587.562 444.751 587.222 445.091 586.871 445.442C586.53 445.102 586.189 444.761 585.838 444.41C584.833 444.285 584.833 444.285 583.742 444.345C581.709 444.41 581.709 444.41 581.193 444.41C580.895 444.57 580.597 444.729 580.29 444.894C579.044 445.482 577.902 445.733 576.548 445.958C576.548 445.447 576.548 444.936 576.548 444.41C576.377 444.921 576.207 445.432 576.032 445.958C574.259 446.281 572.682 446.475 570.87 446.475C570.7 447.156 570.529 447.837 570.354 448.539C569.673 448.198 568.991 447.858 568.289 447.507C568.119 447.847 567.949 448.188 567.773 448.539C567.507 448.443 567.241 448.347 566.967 448.249C565.265 447.943 563.787 448.246 562.096 448.539C562.096 449.05 562.096 449.561 562.096 450.088C561.606 450.066 561.116 450.045 560.612 450.023C558.946 449.907 558.946 449.907 557.967 451.12C557.626 451.12 557.285 451.12 556.934 451.12C556.764 450.779 556.594 450.439 556.418 450.088C555.907 450.428 555.396 450.769 554.87 451.12C554.005 450.787 553.145 450.442 552.289 450.088C551.138 450.116 551.138 450.116 550.224 450.604C550.054 451.115 549.884 451.626 549.708 452.152C549.197 451.982 548.686 451.811 548.16 451.636C548.16 451.295 548.16 450.955 548.16 450.604C546.606 451.64 546.286 452.069 545.579 453.701C545.409 453.019 545.238 452.338 545.063 451.636C542.784 452.291 542.784 452.291 540.934 453.701C540.593 453.701 540.253 453.701 539.902 453.701C539.731 453.36 539.561 453.019 539.385 452.668C537.2 452.206 535.339 451.973 533.192 452.668C533.021 453.009 532.851 453.35 532.676 453.701C530.287 454.22 528.322 454.351 525.966 453.701C525.795 454.041 525.625 454.382 525.449 454.733C524.896 454.626 524.342 454.52 523.772 454.41C521.9 454.223 521.277 454.225 519.772 455.249C519.772 454.738 519.772 454.227 519.772 453.701C518.92 454.041 518.069 454.382 517.191 454.733C517.191 454.392 517.191 454.052 517.191 453.701C515.4 453.937 513.746 454.161 512.03 454.733C511.604 454.637 511.178 454.541 510.739 454.443C509.325 454.042 509.325 454.042 507.901 455.249C507.56 454.908 507.219 454.568 506.868 454.217C506.187 454.557 505.506 454.898 504.804 455.249C504.463 454.738 504.122 454.227 503.771 453.701C503.601 454.041 503.431 454.382 503.255 454.733C501.552 454.392 499.849 454.052 498.094 453.701C497.924 454.041 497.753 454.382 497.578 454.733C497.578 454.392 497.578 454.052 497.578 453.701C497.301 453.796 497.024 453.892 496.739 453.991C495.193 454.276 493.945 454.013 492.416 453.701C492.416 454.041 492.416 454.382 492.416 454.733C491.735 455.073 491.054 455.414 490.352 455.765C490.352 455.254 490.352 454.743 490.352 454.217C490.181 454.557 490.011 454.898 489.836 455.249C489.53 455.162 489.225 455.076 488.91 454.987C485.689 454.143 485.689 454.143 482.609 455.249C482.439 454.908 482.269 454.568 482.093 454.217C481.753 454.728 481.412 455.239 481.061 455.765C480.891 455.424 480.72 455.084 480.545 454.733C479.864 454.733 479.182 454.733 478.48 454.733C478.48 454.392 478.48 454.052 478.48 453.701C478.14 453.701 477.799 453.701 477.448 453.701C477.278 454.041 477.107 454.382 476.932 454.733C476.421 454.562 475.91 454.392 475.383 454.217C475.213 454.387 475.043 454.557 474.867 454.733C473.426 454.505 472.125 454.163 470.738 453.701C470.568 454.041 470.398 454.382 470.222 454.733C470.222 454.392 470.222 454.052 470.222 453.701C469.711 454.041 469.2 454.382 468.674 454.733C467.389 454.721 467.389 454.721 465.932 454.539C463.904 454.311 461.943 454.161 459.899 454.217C459.559 454.898 459.218 455.579 458.867 456.281C458.356 456.281 457.845 456.281 457.318 456.281C457.239 455.786 457.239 455.786 457.157 455.281C457.04 454.93 456.923 454.579 456.802 454.217C456.291 454.046 455.78 453.876 455.254 453.701C455.084 454.382 454.913 455.063 454.738 455.765C454.397 455.424 454.056 455.084 453.705 454.733C452.85 454.54 451.989 454.368 451.125 454.217C450.784 454.046 450.443 453.876 450.092 453.701C449.922 454.041 449.752 454.382 449.576 454.733C435.124 454.733 435.124 454.733 433.451 454.697C432.832 454.687 432.213 454.678 431.576 454.668C430.96 454.656 430.344 454.644 429.709 454.632C427.888 454.733 426.512 455.172 424.801 455.765C423.576 455.313 423.576 455.313 422.737 454.733C422.737 455.073 422.737 455.414 422.737 455.765C422.055 456.106 421.374 456.446 420.672 456.797C420.502 456.116 420.332 455.435 420.156 454.733C419.645 454.733 419.134 454.733 418.608 454.733C418.267 455.073 417.926 455.414 417.575 455.765C417.171 455.68 416.766 455.595 416.35 455.507C415.018 455.107 415.018 455.107 414.027 455.765C412.385 456.538 411.054 456.099 409.317 455.765C409.487 455.424 409.658 455.084 409.833 454.733C407.962 454.629 406.806 454.806 405.188 455.765C405.188 455.424 405.188 455.084 405.188 454.733C404.507 454.903 403.825 455.073 403.123 455.249C403.123 455.419 403.123 455.59 403.123 455.765C402.027 455.793 400.93 455.813 399.833 455.83C399.222 455.842 398.611 455.854 397.982 455.866C396.413 455.765 396.413 455.765 395.381 454.733C394.7 454.733 394.019 454.733 393.317 454.733C393.317 455.073 393.317 455.414 393.317 455.765C392.635 455.765 391.954 455.765 391.252 455.765C391.082 455.595 390.911 455.424 390.736 455.249C390.417 455.345 390.097 455.441 389.768 455.539C389.406 455.614 389.044 455.688 388.671 455.765C388.16 455.424 387.649 455.084 387.123 454.733C385.913 454.862 384.707 455.035 383.51 455.249C382.999 455.249 382.488 455.249 381.961 455.249C381.536 455.345 381.11 455.441 380.671 455.539C379.381 455.765 379.381 455.765 377.832 455.249C377.353 455.419 376.874 455.59 376.381 455.765C374.549 456.34 373.482 456.204 371.639 455.765C371.468 455.254 371.298 454.743 371.122 454.217C370.271 454.387 369.419 454.557 368.542 454.733C368.542 455.073 368.542 455.414 368.542 455.765C368.084 455.669 367.626 455.573 367.155 455.475C365.521 455.259 364.439 455.348 362.864 455.765C362.694 455.424 362.523 455.084 362.348 454.733C360.266 454.301 358.696 454.119 356.67 454.733C355.961 454.814 355.251 454.889 354.541 454.959C352.539 455.046 352.539 455.046 351.509 456.281C350.998 456.452 350.487 456.622 349.96 456.797C349.96 456.457 349.96 456.116 349.96 455.765C349.662 455.882 349.364 455.999 349.057 456.12C348.482 456.2 348.482 456.2 347.896 456.281C347.433 455.898 347.433 455.898 346.96 455.507C345.823 454.554 345.823 454.554 344.122 454.862C343.493 454.99 342.865 455.117 342.218 455.249C339.754 455.716 338.286 455.898 336.025 454.733C335.854 455.244 335.684 455.755 335.508 456.281C335.045 455.898 335.045 455.898 334.573 455.507C333.459 454.587 333.459 454.587 331.895 454.733C331.895 455.073 331.895 455.414 331.895 455.765C331.044 456.106 330.192 456.446 329.315 456.797C329.144 456.553 328.974 456.308 328.799 456.055C327.199 454.806 325.64 454.897 323.637 454.733C323.467 455.073 323.296 455.414 323.121 455.765C323.121 455.424 323.121 455.084 323.121 454.733C321.758 454.733 320.396 454.733 318.992 454.733C318.992 455.073 318.992 455.414 318.992 455.765C318.428 455.68 317.863 455.595 317.282 455.507C315.443 455.214 315.443 455.214 313.83 455.249C313.49 455.079 313.149 454.908 312.798 454.733C311.831 454.697 310.863 454.689 309.895 454.701C309.118 454.708 309.118 454.708 308.326 454.715C307.928 454.721 307.53 454.727 307.121 454.733C306.95 455.073 306.78 455.414 306.604 455.765C305.412 455.424 304.22 455.084 302.991 454.733C302.991 455.073 302.991 455.414 302.991 455.765C302.468 455.685 301.945 455.604 301.407 455.521C300.709 455.419 300.011 455.318 299.314 455.217C298.799 455.136 298.799 455.136 298.273 455.054C296.095 454.745 294.303 454.834 292.152 455.249C291.982 455.079 291.812 454.908 291.636 454.733C290.508 454.695 289.378 454.69 288.249 454.701C287.322 454.708 287.322 454.708 286.376 454.715C285.658 454.724 285.658 454.724 284.926 454.733C284.756 455.073 284.586 455.414 284.41 455.765C283.899 455.595 283.388 455.424 282.862 455.249C282.691 455.419 282.521 455.59 282.346 455.765C281.835 455.765 281.324 455.765 280.797 455.765C280.797 455.424 280.797 455.084 280.797 454.733C280.286 454.903 279.775 455.073 279.249 455.249C278.212 455.107 277.178 454.938 276.152 454.733C276.152 454.392 276.152 454.052 276.152 453.701C275.811 453.701 275.471 453.701 275.12 453.701C275.12 454.041 275.12 454.382 275.12 454.733C272.254 454.798 272.254 454.798 270.99 454.443C269.535 454.124 268.305 454.437 266.861 454.733C266.861 454.392 266.861 454.052 266.861 453.701C266.35 454.041 265.839 454.382 265.313 454.733C263.938 454.852 263.938 454.852 262.41 454.83C261.903 454.826 261.396 454.823 260.873 454.82C259.635 454.733 259.635 454.733 259.119 454.217C258.059 454.428 258.059 454.428 257.055 454.733C257.055 454.392 257.055 454.052 257.055 453.701C256.714 453.701 256.373 453.701 256.022 453.701C255.852 454.041 255.682 454.382 255.506 454.733C255.506 454.392 255.506 454.052 255.506 453.701C255.251 453.882 254.995 454.062 254.732 454.249C253.15 454.842 251.968 454.598 250.327 454.332C249.051 454.187 247.973 454.441 246.732 454.733C246.391 454.562 246.05 454.392 245.699 454.217C244.403 454.166 243.124 454.145 241.828 454.152C241.472 454.15 241.116 454.148 240.75 454.146C238.772 454.118 238.772 454.118 236.925 454.733C236.925 454.392 236.925 454.052 236.925 453.701C236.414 453.871 235.903 454.041 235.376 454.217C233.989 453.991 233.989 453.991 232.796 453.701C232.625 454.041 232.455 454.382 232.28 454.733C231.939 454.733 231.598 454.733 231.247 454.733C231.247 454.392 231.247 454.052 231.247 453.701C230.683 453.786 230.119 453.871 229.538 453.959C227.492 454.236 225.991 454.244 224.021 453.701C224.021 453.36 224.021 453.019 224.021 452.668C223.681 452.668 223.34 452.668 222.989 452.668C222.648 453.009 222.308 453.35 221.957 453.701C221.957 453.36 221.957 453.019 221.957 452.668C220.914 452.979 219.881 453.325 218.86 453.701C218.69 454.041 218.519 454.382 218.344 454.733C218.003 454.392 217.662 454.052 217.311 453.701C216.289 454.041 215.268 454.382 214.215 454.733C213.874 454.222 213.533 453.711 213.182 453.184C212.82 453.27 212.458 453.355 212.085 453.442C210.531 453.713 209.079 453.701 207.505 453.701C207.164 453.871 206.823 454.041 206.472 454.217C206.472 453.876 206.472 453.535 206.472 453.184C206.142 453.28 205.812 453.376 205.472 453.475C205.121 453.549 204.77 453.624 204.408 453.701C204.238 453.53 204.067 453.36 203.892 453.184C203.551 453.695 203.21 454.206 202.859 454.733C202.519 454.733 202.178 454.733 201.827 454.733C201.486 454.222 201.146 453.711 200.795 453.184C200.252 453.488 200.252 453.488 199.698 453.797C198.214 454.217 198.214 454.217 196.601 453.507C196.111 453.23 195.622 452.953 195.117 452.668C194.606 452.668 194.095 452.668 193.569 452.668C193.398 452.839 193.228 453.009 193.053 453.184C192.712 453.355 192.371 453.525 192.02 453.701C192.02 453.36 192.02 453.019 192.02 452.668C191.68 452.668 191.339 452.668 190.988 452.668C190.988 453.35 190.988 454.031 190.988 454.733C190.477 454.733 189.966 454.733 189.44 454.733C189.44 454.222 189.44 453.711 189.44 453.184C187.08 452.714 187.08 452.714 184.73 452.959C183.32 453.287 182.485 452.724 181.181 452.152C180.325 451.962 179.465 451.784 178.601 451.636C178.43 451.977 178.26 452.317 178.084 452.668C177.574 452.498 177.063 452.328 176.536 452.152C176.195 452.493 175.855 452.833 175.504 453.184C175.046 453.014 174.588 452.844 174.117 452.668C172.488 452.087 172.488 452.087 171.052 452.152C169.66 452.152 168.985 451.732 167.762 451.12C166.152 451.453 166.152 451.453 165.697 452.668C165.356 452.328 165.016 451.987 164.665 451.636C164.069 451.636 163.472 451.636 162.858 451.636C162.262 451.636 161.666 451.636 161.052 451.636C160.711 451.295 160.37 450.955 160.019 450.604C159.508 451.115 158.997 451.626 158.471 452.152C158.109 451.886 157.747 451.62 157.374 451.346C155.543 450.43 154.758 450.711 152.793 451.12C151.929 450.969 151.069 450.796 150.213 450.604C148.069 450.474 148.069 450.474 146.084 451.12C146.084 450.609 146.084 450.098 146.084 449.571C145.541 449.752 144.998 449.933 144.438 450.12C142.531 450.589 141.718 450.631 139.89 450.088C138.272 449.612 137.959 449.527 136.277 450.088C133.861 450.088 133.376 449.573 131.632 448.023C131.461 448.364 131.291 448.704 131.115 449.055C129.923 448.715 128.731 448.374 127.502 448.023C127.332 448.364 127.162 448.704 126.986 449.055C126.986 448.715 126.986 448.374 126.986 448.023C126.305 447.853 125.624 447.682 124.922 447.507C124.751 447.847 124.581 448.188 124.406 448.539C124.065 448.369 123.724 448.198 123.373 448.023C123.203 448.364 123.033 448.704 122.857 449.055C122.857 448.715 122.857 448.374 122.857 448.023C122.495 448.129 122.133 448.236 121.76 448.346C119.966 448.58 118.845 448.165 117.179 447.507C116.839 448.018 116.498 448.529 116.147 449.055C115.115 447.507 115.115 447.507 114.599 446.475C112.725 446.475 110.852 446.475 108.921 446.475C108.751 446.986 108.581 447.496 108.405 448.023C108.044 447.649 108.044 447.649 107.675 447.267C105.681 446.083 103.782 446.223 101.502 446.184C97.1921 446.047 93.0471 445.652 88.7916 444.926C88.6212 445.267 88.4509 445.607 88.2754 445.958C88.1051 445.447 87.9348 444.936 87.7593 444.41C87.4186 444.921 87.078 445.432 86.727 445.958C85.5132 445.649 84.3084 445.303 83.114 444.926C82.9437 444.585 82.7733 444.245 82.5978 443.894C81.6979 443.574 81.6979 443.574 80.5938 443.374C79.9535 443.236 79.9535 443.236 79.3002 443.095C78.6012 442.947 78.6012 442.947 77.888 442.797C72.1021 441.51 66.5955 439.628 61.0396 437.581C59.9748 437.214 58.9194 436.922 57.8229 436.668C57.9932 436.497 58.1636 436.327 58.3391 436.152C57.8564 435.911 57.8564 435.911 57.364 435.665C50.9864 432.463 44.8188 429.276 39.2417 424.796C38.9561 424.568 38.6705 424.34 38.3763 424.105C26.7832 414.758 17.2521 402.678 11.8861 388.666C11.8861 388.326 11.8861 387.985 11.8861 387.634C11.2048 387.293 10.5235 386.953 9.82152 386.602C10.077 385.324 10.077 385.324 10.3377 384.021C9.99701 383.851 9.65635 383.68 9.30537 383.505C9.10735 382.305 8.94072 381.099 8.78923 379.892C8.48724 378.548 8.17085 377.223 7.82146 375.892C7.69671 375.382 7.69671 375.382 7.56944 374.862C7.07736 372.981 6.5893 371.912 5.17622 370.601C5.31837 369.393 5.49556 368.189 5.69237 366.988C5.60184 365.589 5.39535 364.247 5.17622 362.859C4.83557 362.859 4.49491 362.859 4.14393 362.859C4.08139 362.567 4.01885 362.275 3.95441 361.974C3.86792 361.595 3.78142 361.217 3.69231 360.827C3.60847 360.45 3.52464 360.072 3.43827 359.684C3.19959 358.623 3.19959 358.623 2.07936 358.214C2.24969 357.533 2.42001 356.851 2.5955 356.149C2.25485 356.149 1.91419 356.149 1.56321 356.149C1.56321 354.787 1.56321 353.424 1.56321 352.02C1.22256 352.531 0.881903 353.042 0.530925 353.569C0.0465034 349.935 -0.0410039 346.393 0.0147812 342.73C0.355436 342.73 0.696091 342.73 1.04707 342.73C1.39636 340.973 1.39636 340.973 1.56321 339.117C1.22256 338.776 0.881903 338.435 0.530925 338.084C0.797062 337.69 1.0632 337.296 1.3374 336.891C1.58225 336.433 1.82709 335.975 2.07936 335.504C1.82387 334.737 1.82387 334.737 1.56321 333.955C1.64838 333.519 1.73354 333.082 1.82129 332.632C2.05713 331.011 2.01264 329.853 1.82129 328.245C1.60139 326.391 1.58304 324.936 2.07936 323.116C2.07936 322.605 2.07936 322.094 2.07936 321.568C1.7387 321.397 1.39805 321.227 1.04707 321.051C1.38772 321.051 1.72838 321.051 2.07936 321.051C1.98355 320.509 1.88774 319.966 1.78903 319.406C1.58042 317.588 1.65615 316.593 2.07936 314.858C2.35935 312.965 2.5955 311.097 2.5955 309.18C3.00842 306.29 3.00842 306.29 3.62779 305.051C3.28713 304.881 2.94648 304.71 2.5955 304.535C2.76583 303.513 2.93616 302.491 3.11165 301.438C3.28197 301.438 3.4523 301.438 3.62779 301.438C3.62509 300.995 3.62238 300.553 3.6196 300.097C3.61079 298.45 3.60432 296.803 3.59944 295.156C3.59685 294.444 3.59333 293.733 3.58885 293.021C3.58257 291.996 3.57993 290.971 3.57739 289.946C3.57468 289.329 3.57198 288.713 3.56919 288.078C3.61861 286.722 3.80984 285.701 4.14393 284.405C4.17966 283.44 4.1876 282.474 4.17619 281.508C4.1722 280.949 4.16821 280.39 4.1641 279.813C4.15072 278.644 4.13728 277.475 4.12377 276.305C4.10338 273.438 4.1388 270.711 4.66008 267.889C4.31942 267.889 3.97877 267.889 3.62779 267.889C3.71154 267.616 3.79529 267.343 3.88158 267.062C4.20644 265.529 4.21092 264.101 4.21248 262.534C4.21315 261.898 4.21381 261.262 4.2145 260.606C4.2125 259.943 4.21051 259.281 4.20845 258.598C4.21045 257.935 4.21244 257.273 4.2145 256.59C4.21384 255.954 4.21317 255.318 4.21248 254.662C4.2119 254.081 4.21132 253.499 4.21072 252.9C4.2023 251.45 4.20231 251.45 3.88359 250.396C3.47423 248.654 3.57595 246.893 3.59553 245.114C3.59749 244.709 3.59944 244.305 3.60145 243.888C3.60988 242.161 3.62442 240.434 3.63838 238.707C3.64771 237.445 3.65395 236.182 3.66005 234.92C3.66647 234.336 3.66647 234.336 3.67303 233.74C3.68128 231.973 3.67283 230.35 3.11165 228.662C3.4523 228.662 3.79296 228.662 4.14393 228.662C4.03216 227.895 4.03216 227.895 3.91812 227.113C3.87221 226.783 3.8263 226.453 3.779 226.113C3.67958 225.413 3.57358 224.714 3.46045 224.016C3.10275 221.638 3.18418 219.672 3.62779 217.307C3.28713 217.136 2.94648 216.966 2.5955 216.79C2.93616 216.79 3.27681 216.79 3.62779 216.79C3.59053 216.255 3.55327 215.72 3.51488 215.169C3.46646 214.462 3.41807 213.755 3.36972 213.048C3.3451 212.696 3.32048 212.344 3.29512 211.982C2.97413 207.259 2.97413 207.259 3.62779 205.951C3.28713 205.951 2.94648 205.951 2.5955 205.951C2.75518 205.137 2.75518 205.137 2.91809 204.306C3.11795 202.274 2.81623 201.575 2.07936 199.758C2.41827 199.067 2.76308 198.379 3.11165 197.693C3.30232 196.568 3.30232 196.568 3.33821 195.366C3.36256 194.906 3.38691 194.446 3.41199 193.972C3.43397 193.476 3.45595 192.979 3.47859 192.467C3.53474 191.396 3.59111 190.324 3.6477 189.253C3.6758 188.692 3.7039 188.132 3.73285 187.554C4.24214 177.583 4.98271 167.791 6.72465 157.95C6.83277 157.312 6.94089 156.674 7.05229 156.017C7.38678 154.047 7.73044 152.079 8.07953 150.111C8.1859 149.506 8.29228 148.9 8.40187 148.277C8.50442 147.725 8.60696 147.173 8.71262 146.605C8.80219 146.116 8.89176 145.627 8.98405 145.123C9.09008 144.757 9.19612 144.391 9.30537 144.014C9.64603 143.844 9.98668 143.673 10.3377 143.498C10.3257 143.143 10.3137 142.789 10.3014 142.423C10.2921 141.958 10.2827 141.493 10.2731 141.014C10.2612 140.553 10.2492 140.092 10.2369 139.617C10.3377 138.336 10.3377 138.336 11.37 136.788C11.4108 135.584 11.4154 134.378 11.37 133.175C11.7106 133.345 12.0513 133.516 12.4022 133.691C12.4811 133.185 12.4811 133.185 12.5615 132.669C13.0257 130.642 13.7526 128.758 14.4991 126.82C14.6445 126.438 14.7898 126.056 14.9396 125.662C15.2964 124.724 15.6556 123.788 16.0152 122.852C15.6746 122.682 15.3339 122.511 14.983 122.336C15.4939 122.336 16.0049 122.336 16.5314 122.336C16.593 121.969 16.6546 121.602 16.718 121.224C17.0636 119.684 17.5724 118.354 18.1907 116.902C18.4173 116.366 18.6438 115.829 18.8772 115.276C19.1144 114.721 19.3516 114.166 19.596 113.594C20.0641 112.493 20.5312 111.391 20.9972 110.289C21.3086 109.56 21.3086 109.56 21.6262 108.816C22.2426 107.341 22.2426 107.341 22.7363 105.669C23.2413 104.271 23.2413 104.271 24.2736 103.755C24.6346 102.902 24.9736 102.039 25.3058 101.174C29.549 92.1347 35.0964 83.8039 41.1228 75.8628C41.9123 74.8215 41.9123 74.8215 42.3386 73.3023C43.1804 72.424 44.0436 71.5661 44.9193 70.7216C45.764 69.8131 46.6026 68.8989 47.4355 67.9796C47.8494 67.5238 48.2632 67.068 48.6896 66.5985C49.4373 65.7694 50.1754 64.9343 50.9048 64.0889C53.1237 61.5173 55.4469 59.0834 57.8552 56.6889C58.2068 56.3353 58.5584 55.9816 58.9207 55.6173C60.8867 53.6551 62.8939 51.8274 65.0489 50.0758C65.3896 49.7351 65.7303 49.3945 66.0812 49.0435C68.7837 46.8918 71.626 44.969 74.5331 43.1079C74.8897 42.877 75.2463 42.6461 75.6138 42.4082C76.7329 41.6876 77.8574 40.9765 78.9848 40.2691C79.3898 40.0133 79.7948 39.7575 80.2121 39.494C83.3213 37.5735 86.5005 36.0019 89.8561 34.5592C90.6236 34.2265 90.6236 34.2265 91.4067 33.8871C95.7779 32.0325 100.195 30.6024 104.792 29.43C104.792 29.0894 104.792 28.7487 104.792 28.3977C105.324 28.419 105.857 28.4403 106.405 28.4623C108.413 28.4658 110.324 28.2179 112.308 27.9139C122.197 26.4273 131.849 26.7997 141.765 27.6215C145.199 27.9034 148.633 28.0809 152.076 28.2203C153.847 28.4 155.24 28.8645 156.923 29.43C157.886 29.6573 158.853 29.8679 159.824 30.0631C160.384 30.1784 160.945 30.2937 161.522 30.4124C162.123 30.5353 162.723 30.6583 163.342 30.7849C168.971 31.963 174.549 33.2809 180.117 34.7205C180.463 34.8095 180.81 34.8984 181.166 34.9901C187.331 36.5775 187.331 36.5775 189.956 37.6883C190.126 37.3477 190.296 37.007 190.472 36.6561C190.68 36.8931 190.889 37.1302 191.103 37.3745C192.149 38.3211 192.974 38.6519 194.308 39.0974C194.771 39.2543 195.233 39.4112 195.709 39.5728C196.459 39.8197 196.459 39.8197 197.224 40.0715C197.743 40.2465 198.262 40.4215 198.797 40.6018C200.462 41.1619 202.128 41.7157 203.795 42.2691C205.437 42.8189 207.079 43.37 208.72 43.9214C209.782 44.2777 210.844 44.633 211.907 44.9872C215.336 46.1327 218.734 47.3364 222.111 48.6264C223.483 49.1152 223.483 49.1152 224.886 49.011C226.438 49.0531 226.57 49.5111 227.634 50.5919C228.877 51.0999 230.087 51.5416 231.36 51.9529C231.733 52.077 232.105 52.2012 232.489 52.3291C233.708 52.7336 234.929 53.1309 236.151 53.5275C236.997 53.8053 237.842 54.0833 238.688 54.3613C251.234 58.4679 263.846 62.385 276.862 64.6891C277.612 64.8221 277.612 64.8221 278.378 64.9578C280.759 65.3595 283.018 65.6696 285.442 65.5601C285.442 65.9008 285.442 66.2414 285.442 66.5924C285.859 66.6177 286.275 66.643 286.705 66.669C287.645 66.7269 287.645 66.7269 288.604 66.786C288.963 66.8076 289.323 66.8291 289.693 66.8514C292.176 67.0035 294.655 67.18 297.134 67.3727C306.515 68.0822 315.778 68.316 325.186 68.1409C325.651 68.1336 326.117 68.1264 326.597 68.1189C337.012 67.9149 347.434 66.2564 357.574 63.9472C358.44 63.7509 358.44 63.7509 359.324 63.5506C361.372 63.0761 361.372 63.0761 363.38 62.4633C363.551 62.1226 363.721 61.782 363.896 61.431C364.869 61.3114 365.843 61.195 366.818 61.095C368.956 60.776 370.936 60.0087 372.961 59.2696C373.417 59.1057 373.872 58.9419 374.342 58.773C375.68 58.2884 377.014 57.7963 378.348 57.3018C378.686 57.1787 379.023 57.0556 379.371 56.9288C392.707 52.0316 405.236 44.8961 417.41 37.6524C460.11 12.2566 460.11 12.2566 474.351 12.9134C474.522 12.5728 474.692 12.2321 474.867 11.8811C476.236 11.5727 476.236 11.5727 477.932 11.3327C480.085 11.0649 480.085 11.0649 482.093 10.3327C482.093 9.99205 482.093 9.65139 482.093 9.30042ZM449.334 26.2251C448.136 26.7976 446.93 27.3349 445.711 27.8614C442.944 29.0801 440.296 30.5038 437.64 31.9462C437.101 32.2391 436.561 32.5319 436.005 32.8336C430.784 35.6949 425.715 38.7829 420.651 41.9115C416.385 44.5328 412.081 47.0906 407.783 49.6579C406.765 50.2664 405.747 50.8756 404.73 51.4856C375.657 68.9092 343.642 83.754 309.054 83.6937C308.107 83.6945 308.107 83.6945 307.142 83.6952C305.819 83.6956 304.497 83.6946 303.174 83.6925C301.142 83.6897 299.111 83.6925 297.079 83.6957C295.791 83.6954 294.503 83.6947 293.215 83.6937C292.301 83.6953 292.301 83.6953 291.369 83.6969C290.809 83.6953 290.249 83.6936 289.671 83.692C288.93 83.6913 288.93 83.6913 288.174 83.6907C286.991 83.6252 286.991 83.6252 285.959 83.109C285.174 83.086 284.388 83.0889 283.604 83.109C282.84 83.1286 282.076 83.1329 281.313 83.109C281.143 82.9387 280.973 82.7684 280.797 82.5929C280.067 82.4884 279.333 82.4139 278.598 82.353C278.147 82.3127 277.697 82.2725 277.234 82.231C276.286 82.1505 275.338 82.0712 274.391 81.9931C273.937 81.9521 273.484 81.9112 273.017 81.8691C272.604 81.8345 272.191 81.8 271.765 81.7644C270.227 81.5216 268.85 81.0322 267.377 80.5283C266.266 80.248 265.15 79.9819 264.033 79.7279C263.394 79.5813 262.755 79.4347 262.097 79.2837C261.763 79.2077 261.429 79.1318 261.086 79.0535C255.756 77.8389 250.446 76.5756 245.169 75.1448C242.748 74.4926 240.335 73.9403 237.86 73.5382C236.925 73.3023 236.925 73.3023 235.376 72.27C234.247 71.8599 233.106 71.4781 231.961 71.1127C231.624 71.0045 231.287 70.8963 230.94 70.7848C229.86 70.4389 228.78 70.0963 227.699 69.7538C226.992 69.5275 226.285 69.301 225.578 69.0743C223.848 68.5203 222.115 67.9731 220.382 67.4277C219.385 67.1115 218.39 66.7888 217.396 66.4649C216.49 66.1747 216.49 66.1747 215.565 65.8787C215.03 65.705 214.494 65.5312 213.942 65.3522C212.675 64.901 212.675 64.901 211.634 65.5601C211.634 65.2195 211.634 64.8788 211.634 64.5278C209.946 63.9362 208.257 63.3449 206.569 62.7536C205.85 62.5016 205.85 62.5016 205.117 62.2445C204.656 62.0832 204.195 61.9218 203.72 61.7556C203.296 61.6069 202.872 61.4583 202.434 61.3051C201.546 60.9965 200.655 60.6961 199.763 60.3987C198.861 60.0952 197.959 59.7917 197.057 59.4882C179.211 53.3082 179.211 53.3082 160.878 48.9024C158.987 48.5274 158.987 48.5274 158.471 48.0112C141.495 44.6942 124.311 44.6328 107.373 48.0112C106.929 48.0989 106.486 48.1865 106.028 48.2769C91.428 51.2705 77.6951 58.0547 65.5651 66.5924C65.0541 66.9331 64.5431 67.2737 64.0166 67.6247C64.0166 67.9654 64.0166 68.306 64.0166 68.657C63.6307 68.7932 63.2449 68.9295 62.8473 69.0698C61.4376 69.6886 60.6101 70.2927 59.5004 71.3426C59.1473 71.6745 58.7941 72.0064 58.4303 72.3484C57.8742 72.8844 57.8742 72.8844 57.3068 73.4313C56.9187 73.8027 56.5307 74.174 56.1308 74.5566C36.735 93.2648 26.0671 116.644 21.1767 142.982C21.0711 143.546 21.0711 143.546 20.9635 144.122C20.5719 146.313 20.3353 148.508 20.1444 150.724C20.1021 151.177 20.0597 151.631 20.0161 152.098C18.3224 170.887 18.4736 189.906 18.6149 208.756C18.6171 209.161 18.6193 209.566 18.6216 209.983C18.6259 210.732 18.6323 211.482 18.6413 212.231C18.6456 213.063 18.6237 213.895 18.596 214.726C18.4256 214.896 18.2553 215.066 18.0798 215.242C18.0015 216.008 17.9569 216.777 17.9265 217.547C17.9058 218.038 17.8852 218.53 17.864 219.037C17.844 219.574 17.8241 220.112 17.8036 220.665C17.7814 221.219 17.7592 221.773 17.7364 222.343C17.6897 223.523 17.6442 224.702 17.5998 225.882C17.5327 227.661 17.4613 229.441 17.3893 231.22C17.1751 236.656 16.9858 242.076 17.0809 247.517C17.0475 248.791 17.0475 248.791 16.5314 249.307C16.4329 250.137 16.3678 250.971 16.316 251.806C16.2813 252.345 16.2466 252.885 16.2109 253.441C16.1749 254.037 16.139 254.633 16.1019 255.247C16.0624 255.869 16.0228 256.491 15.982 257.132C15.8962 258.483 15.8113 259.834 15.7276 261.185C15.5061 264.763 15.277 268.34 15.0475 271.917C15.0241 272.283 15.0007 272.648 14.9766 273.025C14.6314 278.414 14.2559 283.799 13.8539 289.184C13.8048 289.842 13.7558 290.501 13.7052 291.179C13.4695 294.332 13.2298 297.484 12.9863 300.636C12.9011 301.766 12.8159 302.896 12.7309 304.027C12.6896 304.545 12.6483 305.064 12.6058 305.598C12.571 306.065 12.5362 306.533 12.5004 307.015C12.4688 307.423 12.4372 307.832 12.4047 308.252C12.4039 308.558 12.4031 308.865 12.4022 309.18C12.5726 309.35 12.7429 309.521 12.9184 309.696C13.0075 310.992 13.065 312.274 13.0998 313.571C13.1118 313.963 13.1237 314.355 13.136 314.758C13.1607 315.591 13.184 316.423 13.2062 317.255C13.2405 318.519 13.2808 319.783 13.3216 321.047C13.3448 321.857 13.3677 322.666 13.3902 323.475C13.4025 323.85 13.4148 324.225 13.4275 324.611C13.4702 326.373 13.399 328.01 13.149 329.758C12.8854 331.606 13.2534 332.266 13.9507 333.955C13.9962 335.382 14.0021 336.759 13.9507 338.181C13.9023 339.538 13.9024 340.853 13.9507 342.213C14.2913 342.554 14.632 342.895 14.983 343.246C15.3701 344.536 15.3701 344.536 15.4991 345.826C15.1584 346.167 14.8178 346.508 14.4668 346.859C14.3994 350.197 15.1111 353.471 16.0152 356.665C16.3559 356.325 16.6966 355.984 17.0475 355.633C16.8772 356.655 16.7069 357.677 16.5314 358.73C16.872 358.73 17.2127 358.73 17.5637 358.73C17.4628 359.017 17.3619 359.304 17.258 359.6C16.9921 361.109 17.3002 361.953 17.8097 363.393C17.986 363.897 18.1623 364.4 18.3439 364.919C18.5336 365.442 18.7232 365.965 18.9186 366.504C19.0962 367.014 19.2739 367.523 19.4569 368.048C20.7073 371.571 22.159 374.965 23.7574 378.343C24.2684 378.343 24.7794 378.343 25.3058 378.343C25.1515 378.791 25.1515 378.791 24.994 379.248C24.7436 380.67 24.9899 381.18 25.6506 382.446C25.9549 383.033 25.9549 383.033 26.2654 383.632C26.6048 384.256 26.6048 384.256 26.9511 384.892C27.2959 385.537 27.2959 385.537 27.6478 386.196C29.9551 390.406 32.6522 394.312 35.5236 398.154C36.0401 398.849 36.5394 399.556 37.034 400.266C37.2516 400.526 37.4691 400.786 37.6933 401.054C38.034 401.054 38.3746 401.054 38.7256 401.054C38.8327 401.326 38.9398 401.598 39.0502 401.878C46.4963 414.925 65.3819 422.502 78.9848 426.345C80.5335 426.747 82.0551 427.083 83.6301 427.377C83.8005 427.207 83.9708 427.037 84.1463 426.861C84.4869 427.202 84.8276 427.542 85.1786 427.893C86.155 428.178 86.155 428.178 87.2794 428.333C87.6999 428.399 88.1204 428.466 88.5537 428.534C88.9941 428.6 89.4346 428.665 89.8884 428.732C90.3169 428.801 90.7453 428.87 91.1868 428.942C93.8611 429.353 96.4096 429.51 99.1144 429.442C99.1144 429.612 99.1144 429.782 99.1144 429.958C100.647 429.958 102.18 429.958 103.76 429.958C103.76 429.788 103.76 429.617 103.76 429.442C104.782 429.271 105.804 429.101 106.857 428.926C107.027 429.266 107.197 429.607 107.373 429.958C107.543 429.788 107.713 429.617 107.889 429.442C109.437 429.958 109.437 429.958 109.953 430.474C112.452 430.597 113.938 430.625 116.147 429.442C116.838 429.604 117.526 429.777 118.212 429.958C118.918 429.998 119.626 430.014 120.333 430.008C120.722 430.007 121.111 430.005 121.512 430.003C121.913 429.999 122.315 429.995 122.728 429.99C123.342 429.987 123.342 429.987 123.968 429.983C124.974 429.977 125.98 429.968 126.986 429.958C126.986 429.617 126.986 429.277 126.986 428.926C127.327 429.096 127.668 429.266 128.019 429.442C131.584 429.573 135.005 429.226 138.537 428.764C139.08 428.696 139.624 428.627 140.183 428.556C141.903 428.338 143.622 428.116 145.342 427.893C146.514 427.744 147.686 427.595 148.859 427.446C151.719 427.082 154.579 426.715 157.439 426.345C157.609 425.834 157.779 425.323 157.955 424.796C158.125 425.137 158.296 425.478 158.471 425.829C164.317 425.168 170.081 424.257 175.859 423.151C176.267 423.074 176.675 422.997 177.095 422.917C185.39 421.341 193.595 419.456 201.763 417.317C213.913 414.407 226.35 412.398 238.807 411.52C239.998 411.507 239.998 411.507 240.538 410.861C241.843 410.835 243.137 410.839 244.441 410.861C248.167 410.898 251.87 410.788 255.591 410.607C261.898 410.323 268.194 410.263 274.507 410.28C275.324 410.281 275.324 410.281 276.158 410.282C288.864 410.304 301.543 410.602 314.23 411.308C314.625 411.33 315.02 411.352 315.427 411.375C324.184 411.865 332.926 412.513 341.668 413.214C342.924 413.315 344.18 413.414 345.436 413.514C358.475 414.548 371.496 415.718 384.514 416.991C396.557 418.166 408.61 419.188 420.672 420.151C420.672 419.64 420.672 419.129 420.672 418.603C421.013 418.603 421.354 418.603 421.704 418.603C421.534 419.114 421.364 419.625 421.188 420.151C427.272 420.488 433.357 420.749 439.447 420.958C440.084 420.98 440.721 421.003 441.377 421.026C445.661 421.168 449.935 421.209 454.222 421.183C454.222 421.354 454.222 421.524 454.222 421.7C456.259 421.772 456.259 421.772 458.255 421.44C459.725 421.106 461.08 421.145 462.587 421.169C463.217 421.176 463.847 421.183 464.496 421.191C465.161 421.199 465.827 421.207 466.512 421.216C474.354 421.284 474.354 421.284 482.093 420.151C482.264 419.981 482.434 419.811 482.609 419.635C482.609 419.805 482.609 419.976 482.609 420.151C489.747 420.247 489.747 420.247 496.029 418.087C497.495 417.92 498.961 417.822 500.433 417.716C501.677 417.708 501.677 417.708 502.223 417.054C503.208 416.958 503.208 416.958 504.213 416.861C507.141 416.564 509.884 415.797 512.707 414.99C513.705 414.71 514.703 414.43 515.701 414.151C516.137 414.027 516.572 413.904 517.02 413.776C517.757 413.571 518.496 413.374 519.238 413.191C527.566 411.086 536.32 408.522 544.031 404.667C544.826 404.312 545.622 403.957 546.418 403.602C548.99 402.434 551.532 401.211 554.063 399.957C554.417 399.783 554.771 399.61 555.136 399.431C556.9 398.551 558.487 397.631 560.031 396.409C561.219 395.687 562.43 395.021 563.644 394.344C563.304 394.174 562.963 394.003 562.612 393.828C563.123 393.828 563.634 393.828 564.16 393.828C565.551 393.157 565.551 393.157 566.741 392.279C566.741 391.939 566.741 391.598 566.741 391.247C567.124 391.119 567.508 390.992 567.902 390.86C569.448 390.157 570.214 389.359 571.386 388.15C571.766 387.939 572.146 387.727 572.538 387.509C574.354 386.356 575.734 384.947 577.225 383.408C577.651 382.976 577.651 382.976 578.085 382.534C578.779 381.828 579.47 381.118 580.161 380.408C579.82 380.238 579.479 380.067 579.128 379.892C579.128 379.551 579.128 379.211 579.128 378.86C579.639 379.03 580.15 379.2 580.677 379.376C588.542 371.311 594.648 360.082 596.677 348.923C596.539 347.444 596.539 347.444 596.161 346.343C596.502 346.343 596.843 346.343 597.194 346.343C597.286 345.72 597.286 345.72 597.381 345.085C598.654 336.694 600.11 328.586 602.871 320.535C603.138 319.724 603.405 318.913 603.672 318.102C607.484 306.688 612.409 295.666 617.124 284.605C620.366 276.999 623.553 269.376 626.614 261.695C626.835 261.144 627.056 260.593 627.284 260.025C633.13 245.413 637.546 230.48 640.485 215.016C640.596 214.438 640.708 213.861 640.822 213.265C641.404 210.076 641.642 207.124 641.582 203.887C641.752 203.716 641.923 203.546 642.098 203.371C642.122 202.425 642.118 201.478 642.098 200.532C642.079 199.586 642.074 198.639 642.098 197.693C642.268 197.523 642.439 197.352 642.614 197.177C642.666 195.911 642.686 194.659 642.683 193.393C642.683 192.814 642.683 192.814 642.684 192.224C642.685 191.403 642.684 190.581 642.682 189.76C642.679 188.524 642.681 187.288 642.685 186.053C642.717 179.466 642.717 179.466 642.098 172.918C641.928 172.748 641.757 172.577 641.582 172.402C641.524 171.661 641.485 170.919 641.453 170.176C640.881 163.329 638.86 156.39 635.904 150.208C635.709 149.772 635.514 149.336 635.314 148.887C633.688 145.403 631.541 142.403 629.194 139.369C628.93 139.023 628.665 138.678 628.392 138.322C627.829 137.614 627.226 136.938 626.614 136.272C626.273 136.272 625.932 136.272 625.581 136.272C625.581 135.931 625.581 135.591 625.581 135.24C624.406 134.329 623.232 133.488 622.001 132.659C621.631 132.407 621.262 132.155 620.881 131.896C618.238 130.118 615.534 128.475 612.775 126.885C609.304 124.879 606.021 122.763 602.871 120.271C602.476 119.959 602.476 119.959 602.074 119.641C590.804 110.647 582.641 98.6542 577.479 85.1837C577.151 84.1605 577.151 84.1605 576.548 83.6252C576.276 82.9885 576.022 82.3445 575.776 81.6977C571.13 68.8928 571.13 68.8928 564.16 57.3018C563.82 57.3018 563.479 57.3018 563.128 57.3018C563.083 56.9359 563.038 56.5699 562.991 56.1929C562.532 54.4095 561.763 53.3006 560.676 51.8178C560.328 51.3321 559.979 50.8464 559.62 50.346C558.067 48.5671 556.576 47.7199 554.354 46.9789C554.354 46.2976 554.354 45.6163 554.354 44.9144C553.672 44.9144 552.991 44.9144 552.289 44.9144C552.459 44.4034 552.63 43.8924 552.805 43.3659C551.711 41.725 551.378 41.5964 549.708 40.7852C549.272 40.4233 548.835 40.0613 548.386 39.6884C547.188 38.5633 547.188 38.5633 545.579 38.7206C545.749 38.0393 545.92 37.358 546.095 36.6561C545.414 36.6561 544.733 36.6561 544.031 36.6561C544.031 36.3154 544.031 35.9747 544.031 35.6238C543.52 35.6238 543.009 35.6238 542.482 35.6238C542.312 34.9425 542.142 34.2611 541.966 33.5592C541.625 33.5592 541.285 33.5592 540.934 33.5592C540.095 32.785 540.095 32.785 539.385 32.0108C539.045 32.1811 538.704 32.3514 538.353 32.5269C536.805 30.9785 536.805 30.9785 535.256 29.43C534.841 29.3662 534.426 29.3023 533.998 29.2365C532.675 28.9139 532.676 28.9139 532.03 27.9784C529.976 25.4101 526.5 24.7359 523.385 24.2686C523.215 23.9279 523.044 23.5873 522.869 23.2363C522.528 23.066 522.187 22.8957 521.836 22.7202C521.496 22.8905 521.155 23.0608 520.804 23.2363C520.708 22.9276 520.613 22.6189 520.514 22.3008C519.208 20.3137 517.009 19.8209 514.772 19.3007C514.378 19.2368 513.984 19.173 513.578 19.1072C512.417 18.9136 512.417 18.9136 511.514 18.591C511.343 18.08 511.173 17.569 510.997 17.0426C509.635 17.0426 508.272 17.0426 506.868 17.0426C506.698 16.7019 506.528 16.3613 506.352 16.0103C506.352 16.3509 506.352 16.6916 506.352 17.0426C505.841 16.7019 505.33 16.3613 504.804 16.0103C504.804 15.6696 504.804 15.329 504.804 14.978C504.151 14.978 503.498 14.978 502.826 14.978C493.965 14.978 493.965 14.978 492.686 14.9054C477.505 14.378 462.778 19.6839 449.334 26.2251ZM506.868 15.4941C507.635 16.0051 507.635 16.0051 508.417 16.5264C508.587 16.1858 508.757 15.8451 508.933 15.4941C508.252 15.4941 507.57 15.4941 506.868 15.4941ZM508.933 16.0103C508.933 16.1806 508.933 16.3509 508.933 16.5264C509.784 16.5264 510.636 16.5264 511.514 16.5264C511.514 16.3561 511.514 16.1858 511.514 16.0103C510.662 16.0103 509.81 16.0103 508.933 16.0103ZM12.4022 310.729C12.4022 311.58 12.4022 312.432 12.4022 313.309C12.5726 313.309 12.7429 313.309 12.9184 313.309C12.9184 312.458 12.9184 311.606 12.9184 310.729C12.7481 310.729 12.5777 310.729 12.4022 310.729ZM12.4022 313.825C12.9184 315.374 12.9184 315.374 12.9184 315.374L12.4022 313.825ZM12.4022 317.438C12.9184 319.503 12.9184 319.503 12.9184 319.503L12.4022 317.438ZM12.4022 323.116C12.9184 325.181 12.9184 325.181 12.9184 325.181L12.4022 323.116ZM621.452 343.762C621.968 345.31 621.968 345.31 621.968 345.31L621.452 343.762ZM622.485 346.859C623.001 347.891 623.001 347.891 623.001 347.891L622.485 346.859ZM1.04707 348.407C1.2174 348.918 1.38772 349.429 1.56321 349.956C1.73354 349.445 1.90387 348.934 2.07936 348.407C1.7387 348.407 1.39805 348.407 1.04707 348.407ZM623.001 348.923C623.517 350.472 623.517 350.472 623.517 350.472L623.001 348.923ZM620.936 349.439C621.452 350.988 621.452 350.988 621.452 350.988L620.936 349.439ZM623.517 350.988C623.517 352.01 623.517 353.032 623.517 354.085C623.687 354.085 623.858 354.085 624.033 354.085C624.033 353.063 624.033 352.041 624.033 350.988C623.863 350.988 623.692 350.988 623.517 350.988ZM621.968 352.02C621.798 352.872 621.628 353.723 621.452 354.601C620.941 354.771 620.43 354.942 619.904 355.117C620 355.703 620.096 356.288 620.194 356.891C620.269 357.498 620.343 358.105 620.42 358.73C620.25 358.9 620.079 359.071 619.904 359.246C619.734 358.735 619.563 358.224 619.388 357.698C618.794 359.622 618.204 361.547 617.613 363.472C617.445 364.017 617.277 364.561 617.104 365.122C616.943 365.65 616.782 366.177 616.615 366.72C616.467 367.204 616.318 367.688 616.165 368.186C615.794 369.501 615.507 370.807 615.259 372.15C616.449 373.248 616.449 373.248 617.839 374.214C618.606 373.959 618.606 373.959 619.388 373.698C620.017 372.406 620.017 372.406 620.42 371.117C620.079 370.947 619.739 370.777 619.388 370.601C619.558 370.335 619.728 370.069 619.904 369.795C620.585 368.134 620.488 366.701 620.42 364.924C620.931 364.753 621.442 364.583 621.968 364.408C622.139 364.748 622.309 365.089 622.485 365.44C622.825 365.27 623.166 365.099 623.517 364.924C623.687 365.435 623.858 365.946 624.033 366.472C624.64 364.576 624.587 362.772 624.549 360.795C624.208 360.795 623.868 360.795 623.517 360.795C623.857 360.624 624.198 360.454 624.549 360.278C624.549 358.405 624.549 356.531 624.549 354.601C624.038 354.601 623.527 354.601 623.001 354.601C622.83 353.749 622.66 352.898 622.485 352.02C622.314 352.02 622.144 352.02 621.968 352.02ZM620.42 352.536C620.936 354.085 620.936 354.085 620.936 354.085L620.42 352.536ZM635.904 356.665C635.904 358.028 635.904 359.391 635.904 360.795C636.245 360.624 636.586 360.454 636.937 360.278C636.766 359.086 636.596 357.894 636.42 356.665C636.25 356.665 636.08 356.665 635.904 356.665ZM637.453 359.246C637.969 360.278 637.969 360.278 637.969 360.278L637.453 359.246ZM637.969 360.278C638.485 361.311 638.485 361.311 638.485 361.311L637.969 360.278ZM638.485 361.311C639.001 362.343 639.001 362.343 639.001 362.343L638.485 361.311ZM636.42 361.827C636.42 362.849 636.42 363.871 636.42 364.924C636.591 364.924 636.761 364.924 636.937 364.924C636.937 363.902 636.937 362.88 636.937 361.827C636.766 361.827 636.596 361.827 636.42 361.827ZM639.001 362.343C638.831 362.854 638.661 363.365 638.485 363.891C638.996 363.891 639.507 363.891 640.034 363.891C639.863 363.38 639.693 362.87 639.517 362.343C639.347 362.343 639.177 362.343 639.001 362.343ZM640.034 363.891C639.959 364.221 639.884 364.551 639.808 364.891C639.517 365.956 639.517 365.956 639.001 366.472C638.502 366.559 638.003 366.645 637.489 366.734C635.878 367.31 635.878 367.31 635.491 368.407C635.2 369.629 634.992 370.843 634.808 372.085C634.645 372.986 634.479 373.885 634.312 374.785C634.233 375.222 634.154 375.658 634.072 376.108C632.9 382.176 629.989 388.4 626.485 393.493C625.487 394.731 625.487 394.731 625.581 395.892C625.241 395.892 624.9 395.892 624.549 395.892C623.983 397.59 624.136 398.325 624.549 400.022C623.99 399.814 623.99 399.814 623.42 399.602C621.851 399.332 621.851 399.332 620.549 400.667C619.312 402.007 619.312 402.007 618.872 403.635C617.85 404.339 616.816 405.025 615.775 405.699C614.878 406.5 613.997 407.318 613.129 408.151C610.262 410.809 607.225 412.915 603.903 414.99C604.244 415.16 604.585 415.33 604.936 415.506C604.936 415.847 604.936 416.187 604.936 416.538C604.393 416.347 604.393 416.347 603.839 416.151C602.269 415.893 602.27 415.892 600.645 416.796C599.052 417.993 599.052 417.993 599.065 420.022C599.128 420.576 599.192 421.129 599.258 421.7C599.088 421.359 598.917 421.018 598.742 420.667C597.432 420.95 597.432 420.95 596.161 421.7C595.698 423.275 595.698 423.275 595.645 424.796C595.134 424.626 594.623 424.456 594.097 424.28C592.991 424.481 592.991 424.481 592.032 424.796C591.515 426.646 591.515 426.646 592.032 428.409C593.043 428.25 594.054 428.088 595.064 427.926C595.909 427.791 595.909 427.791 596.77 427.653C598.194 427.452 598.194 427.452 599.258 426.861C599.258 427.031 599.258 427.202 599.258 427.377C602.906 428.076 606.73 428.134 610.097 426.345C610.267 426.004 610.438 425.664 610.613 425.313C610.986 425.504 611.358 425.696 611.742 425.893C613.559 426.459 614.083 426.096 615.775 425.313C616.257 425.247 616.739 425.181 617.236 425.113C622.146 424.162 626.224 419.893 629.711 416.538C630.154 416.122 630.597 415.705 631.053 415.276C639.479 407.156 644.977 396.304 645.711 384.537C645.544 383.504 645.373 382.472 645.195 381.44C645.365 380.929 645.536 380.418 645.711 379.892C645.032 374.302 643.625 368.35 640.034 363.891ZM623.001 366.988C623.517 368.537 623.517 368.537 623.517 368.537L623.001 366.988ZM622.485 369.053C623.001 370.085 623.001 370.085 623.001 370.085L622.485 369.053ZM614.742 372.15C615.259 373.182 615.259 373.182 615.259 373.182L614.742 372.15ZM614.226 373.182C614.742 374.214 614.742 374.214 614.742 374.214L614.226 373.182ZM620.42 373.698C620.936 374.73 620.936 374.73 620.936 374.73L620.42 373.698ZM613.71 374.214C613.37 375.236 613.029 376.258 612.678 377.311C613.189 376.971 613.7 376.63 614.226 376.279C614.056 375.598 613.886 374.916 613.71 374.214ZM10.8538 385.569C11.37 387.118 11.37 387.118 11.37 387.118L10.8538 385.569ZM623.001 398.473C623.341 398.814 623.682 399.154 624.033 399.505C624.033 399.165 624.033 398.824 624.033 398.473C623.692 398.473 623.352 398.473 623.001 398.473ZM592.032 421.7C591.862 422.04 591.691 422.381 591.516 422.732C592.197 422.732 592.879 422.732 593.581 422.732C593.581 422.391 593.581 422.051 593.581 421.7C593.07 421.7 592.559 421.7 592.032 421.7ZM593.581 422.732C594.097 423.764 594.097 423.764 594.097 423.764L593.581 422.732ZM589.968 425.829C590.138 426.34 590.308 426.851 590.484 427.377C590.654 426.866 590.824 426.355 591 425.829C590.659 425.829 590.318 425.829 589.968 425.829ZM592.451 441.281C592.143 441.462 591.834 441.643 591.516 441.829C593.304 441.574 593.304 441.574 595.129 441.313C593.636 440.625 593.636 440.625 592.451 441.281ZM586.354 442.345C588.419 442.862 588.419 442.862 588.419 442.862L586.354 442.345ZM583.774 442.862C583.774 443.032 583.774 443.202 583.774 443.378C584.625 443.378 585.477 443.378 586.354 443.378C586.354 443.207 586.354 443.037 586.354 442.862C585.503 442.862 584.651 442.862 583.774 442.862ZM577.064 443.894C577.064 444.064 577.064 444.234 577.064 444.41C578.086 444.41 579.108 444.41 580.161 444.41C580.161 444.24 580.161 444.069 580.161 443.894C579.139 443.894 578.117 443.894 577.064 443.894ZM570.354 444.926C570.354 445.096 570.354 445.267 570.354 445.442C571.206 445.442 572.057 445.442 572.935 445.442C572.935 445.272 572.935 445.102 572.935 444.926C572.083 444.926 571.231 444.926 570.354 444.926ZM328.799 454.733C329.315 455.765 329.315 455.765 329.315 455.765L328.799 454.733ZM329.831 454.733C330.347 455.765 330.347 455.765 330.347 455.765L329.831 454.733ZM457.835 454.733C458.351 455.765 458.351 455.765 458.351 455.765L457.835 454.733Z" fill="url(#paint0_linear_55455_245)"/>
</svg>
