<svg version="1.1" id="Layer_1" xmlns="http://www.w3.org/2000/svg" xmlns:xlink="http://www.w3.org/1999/xlink" x="0px" y="0px"
	 width="100%" viewBox="110 105 795 805" enable-background="new 0 0 1024 1024" xml:space="preserve">
<path fill="#0379CC" opacity="1.000000" stroke="#0379CC" stroke-width="18" stroke-linejoin="round" 
	d="
M146.266006,548.520264 
	C146.091385,547.583557 145.906845,547.082031 145.945328,546.598267 
	C146.577469,538.652832 143.859146,534.100037 135.684952,530.652466 
	C123.737724,525.613525 118.573326,514.539001 119.138611,501.706360 
	C119.772713,487.311462 127.819519,477.143433 140.841385,473.019318 
	C143.841980,472.068970 145.482910,471.023804 145.929794,467.462799 
	C149.900116,435.825165 157.102493,404.957947 168.679962,375.180878 
	C196.712616,303.081146 241.470657,243.891357 304.724091,198.999100 
	C348.651093,167.823181 397.384430,148.230560 450.346741,139.013779 
	C459.014221,137.505447 467.797028,136.565308 476.563568,135.771179 
	C479.728058,135.484528 480.753906,133.953629 481.648438,131.366226 
	C487.761322,113.684570 503.747986,104.915749 521.521240,109.748131 
	C532.875244,112.835175 540.186707,120.383148 543.209717,131.753128 
	C543.953369,134.550156 545.167603,135.472641 547.925964,135.702988 
	C602.308411,140.244644 652.742371,156.981903 699.315125,185.297455 
	C756.622314,220.139313 800.583679,267.662781 832.494507,326.481781 
	C853.317139,364.862640 866.887146,405.742889 874.092834,448.762573 
	C875.052124,454.490082 875.906494,460.272858 876.200806,466.061005 
	C876.402649,470.029816 877.869141,472.009521 881.654358,473.165527 
	C903.432800,479.816833 909.258972,507.345581 895.313293,523.845337 
	C891.556335,528.290344 886.921204,531.485596 881.379517,533.145325 
	C878.572388,533.986023 877.484741,535.316772 877.204590,538.345154 
	C869.649170,620.015137 839.382996,692.284729 786.838989,755.187988 
	C752.756470,795.989990 712.114502,828.686890 664.455505,852.393677 
	C627.918152,870.568176 589.413757,882.310486 548.704041,886.376953 
	C545.383057,886.708740 543.416138,887.874023 542.206787,891.313843 
	C537.505249,904.686768 525.965881,912.985046 512.403442,913.230835 
	C499.044708,913.473022 487.341095,905.874390 482.307770,892.558289 
	C480.526642,887.846191 477.792358,886.793884 473.545502,886.288025 
	C426.842712,880.725281 383.111359,866.136108 342.137573,843.064575 
	C289.816315,813.603577 246.973541,773.788025 212.797180,724.602844 
	C180.401489,677.980469 159.158264,626.694946 149.538025,570.658875 
	C148.300034,563.447815 147.046005,556.250549 146.266006,548.520264 
M580.780823,868.140320 
	C582.244568,867.823853 583.713440,867.529236 585.171326,867.187866 
	C650.176453,851.968811 705.632874,819.503906 752.886963,772.942078 
	C792.448730,733.959839 822.363647,688.380737 842.076416,636.323792 
	C854.043396,604.721985 861.615479,572.110474 863.920532,538.325012 
	C864.129150,535.267639 863.270081,534.007507 860.396851,532.921936 
	C847.119751,527.905701 839.357178,517.040283 839.144897,503.750916 
	C838.920471,489.710236 846.604919,478.420929 860.431152,473.104889 
	C863.300537,472.001648 863.835632,470.465179 863.514893,467.849365 
	C859.505920,435.158112 851.669617,403.428619 839.383911,372.855377 
	C816.006653,314.680450 780.750732,265.048767 732.076172,225.319946 
	C678.267029,181.400177 616.890442,155.520462 547.553711,148.939865 
	C544.639343,148.663254 543.252930,149.493301 542.379456,152.120605 
	C540.707825,157.148926 537.595520,161.288544 533.623779,164.681763 
	C516.994751,178.888794 491.978271,173.181564 482.991852,153.077499 
	C481.608826,149.983505 480.472717,148.499222 476.488037,149.014725 
	C464.941132,150.508591 453.396545,151.919220 441.994110,154.324432 
	C347.446716,174.267975 274.172882,225.838959 220.121658,305.071106 
	C186.754990,353.982361 166.452103,408.182129 158.919861,467.068848 
	C158.425629,470.932770 159.297150,472.316467 162.732529,473.576813 
	C175.233780,478.162994 182.873734,489.298462 183.151505,502.748199 
	C183.403763,514.961670 175.584442,527.111633 164.213516,532.174805 
	C157.652420,535.096313 157.532150,535.330261 158.768677,542.665466 
	C158.934631,543.649902 159.134781,544.632751 159.226730,545.624817 
	C161.632614,571.579346 167.494537,596.818970 175.795853,621.443787 
	C187.729385,656.843140 204.450241,689.843445 226.189377,720.333435 
	C261.343719,769.638611 305.249542,808.948120 358.942200,837.017578 
	C394.645325,855.682495 432.470306,868.002930 472.590393,872.882996 
	C479.935211,873.776489 479.922577,873.880371 483.045654,866.899475 
	C488.013214,855.795715 500.057648,848.460449 512.906250,848.714050 
	C525.551819,848.963684 537.380371,856.740112 541.446167,868.638062 
	C543.153320,873.633728 545.769043,874.182007 549.982666,873.454224 
	C559.972839,871.728577 569.975281,870.073303 580.780823,868.140320 
M133.806839,511.554596 
	C134.593643,512.822388 135.255905,514.191040 136.187775,515.341309 
	C141.545517,521.954773 150.291458,524.154114 158.183456,520.952454 
	C165.361649,518.040283 171.462753,508.958740 170.488480,502.060822 
	C169.334854,493.893036 165.333893,487.647675 157.085403,485.078888 
	C149.652222,482.764038 142.703140,484.146362 137.335526,489.812012 
	C131.656982,495.805878 129.699982,502.927521 133.806839,511.554596 
M854.704285,493.309326 
	C850.777344,500.375671 851.003296,507.366577 855.488464,514.032288 
	C859.408203,519.857605 865.250305,522.776306 872.116699,522.421387 
	C881.014709,521.961426 888.581726,514.779358 889.750000,506.624359 
	C891.168335,496.724457 886.782654,488.811218 877.956482,485.344727 
	C869.668457,482.089600 860.658081,484.985504 854.704285,493.309326 
M508.348328,861.707703 
	C507.238953,862.054688 506.106293,862.341248 505.023895,862.758179 
	C495.400452,866.464905 490.543762,877.617737 494.241882,887.471375 
	C497.815674,896.993713 508.754578,902.022522 518.345581,898.552307 
	C527.325623,895.303162 532.397949,886.220032 530.610840,876.588806 
	C528.803284,866.847351 520.399902,860.940979 508.348328,861.707703 
M494.105255,141.344559 
	C495.006653,150.138245 499.521637,155.822144 507.391815,158.070923 
	C514.603394,160.131531 522.553955,157.568405 527.059509,151.730347 
	C532.021545,145.300812 532.277344,136.651886 527.706055,129.872070 
	C523.502136,123.637123 514.952148,120.619987 507.387695,122.702072 
	C499.515747,124.868790 494.587769,131.439575 494.105255,141.344559 
z"/>
<path fill="#0379CC" opacity="1.000000" stroke="#0379CC" stroke-width="18" stroke-linejoin="round" 
	d="
M323.490723,551.570557 
	C330.402466,565.608948 337.150238,579.309937 344.099884,593.420898 
	C356.162323,587.868347 366.671753,591.589661 377.210419,597.162048 
	C389.860870,603.851135 402.863434,609.871338 415.654114,616.299377 
	C421.938202,619.457458 428.528900,621.725830 435.251770,623.661194 
	C469.497009,633.519348 491.879028,660.452271 495.395233,695.998047 
	C497.220154,714.446106 495.832611,732.939270 496.235626,751.407227 
	C496.304413,754.558655 496.514221,757.153625 499.661072,759.005737 
	C502.426453,760.633118 503.297394,763.649292 503.299042,766.809631 
	C503.304321,776.970459 503.375732,787.132385 503.249146,797.291687 
	C503.174072,803.316284 499.902710,806.817871 493.918304,807.600403 
	C491.946228,807.858276 489.934174,807.888916 487.940338,807.890076 
	C463.454285,807.904053 438.968231,807.907410 414.482239,807.871704 
	C411.322845,807.867126 408.157745,807.710388 405.005737,807.480896 
	C397.098083,806.904907 394.695526,804.382080 394.665802,796.619995 
	C394.628754,786.958984 394.803253,777.294739 394.601929,767.637756 
	C394.494537,762.485718 396.280212,758.773560 401.273438,757.252075 
	C404.028687,756.412537 404.306702,754.905273 404.070740,752.425293 
	C403.417206,745.556091 400.445435,740.117371 394.990997,735.883667 
	C374.941559,720.321350 353.194427,707.342957 331.408203,694.478699 
	C319.804077,687.626770 310.966370,678.536255 305.085663,666.578003 
	C286.640656,629.070312 273.645508,589.625244 264.072784,549.032043 
	C260.809326,535.193115 268.568481,522.354248 281.944031,517.927307 
	C294.878601,513.646301 308.730072,519.741455 314.888977,532.576660 
	C317.840942,538.728638 320.522644,545.010254 323.490723,551.570557 
M308.284485,550.170227 
	C306.330597,545.935059 304.539124,541.615112 302.385010,537.484375 
	C299.104126,531.192932 291.821716,528.500183 285.322052,530.915039 
	C278.731781,533.363525 275.396698,539.828186 277.059723,547.031738 
	C284.075562,577.422058 294.043030,606.869568 305.613342,635.790405 
	C308.270874,642.433105 311.542908,648.827576 314.312164,655.428528 
	C320.033752,669.066833 329.765045,678.591675 342.618195,685.862061 
	C363.348663,697.588318 383.521698,710.285645 402.439880,724.850708 
	C411.527496,731.847290 416.823090,740.954224 417.255219,752.481323 
	C417.399200,756.321838 419.217468,756.748108 422.292633,756.735962 
	C440.789093,756.662903 459.286865,756.604431 477.782166,756.767273 
	C481.776611,756.802490 482.975494,755.351135 482.942993,751.521790 
	C482.808533,735.692627 482.928162,719.861511 482.883514,704.031311 
	C482.871796,699.872498 482.532196,695.737000 481.665466,691.633789 
	C476.253998,666.016479 462.473328,647.315491 437.351776,638.069946 
	C432.210602,636.177795 426.731934,635.181458 421.636932,633.188843 
	C404.553223,626.507263 388.596680,617.427490 372.094940,609.502808 
	C367.905212,607.490845 363.909393,605.042358 359.272095,604.039307 
	C352.338135,602.539490 346.143372,606.938354 345.330750,613.947815 
	C344.571594,620.496094 347.928223,624.525757 353.145660,627.783508 
	C368.829926,637.577087 384.443939,647.483948 400.029358,657.434448 
	C404.238251,660.121582 405.210175,663.615784 403.128906,667.125610 
	C401.067871,670.601379 397.494843,671.249451 393.159119,668.549377 
	C376.900085,658.424072 360.607483,648.347107 344.517944,637.957153 
	C333.514435,630.851624 329.338959,619.318542 333.345459,607.657410 
	C334.383148,604.637268 333.997894,602.411560 332.650208,599.714172 
	C324.537170,583.476379 316.591278,567.155090 308.284485,550.170227 
M470.499420,769.404297 
	C453.842926,769.399048 437.186432,769.392273 420.529938,769.389038 
	C407.320770,769.386475 407.320801,769.388428 407.328674,782.441711 
	C407.336121,794.821899 407.336090,794.814026 419.652374,794.810181 
	C441.472321,794.803345 463.292603,794.749512 485.111969,794.860168 
	C489.028961,794.880005 490.977112,793.847168 490.720490,789.502258 
	C490.416565,784.356689 490.504211,779.174072 490.697144,774.017822 
	C490.828522,770.507141 489.387299,769.250488 485.988739,769.362000 
	C481.163544,769.520386 476.329315,769.403381 470.499420,769.404297 
z"/>
<path fill="#0379CC" opacity="1.000000" stroke="#0379CC" stroke-width="18" stroke-linejoin="round" 
	d="
M708.017944,678.966064 
	C700.826599,688.656128 690.567139,693.727356 680.937500,699.636902 
	C662.632202,710.870605 644.215759,721.923340 627.113892,735.006592 
	C621.375061,739.396973 617.852478,744.860901 616.602417,751.926025 
	C616.141602,754.530457 616.401672,756.342346 619.399536,757.280334 
	C624.369568,758.835388 626.279358,762.643921 626.254456,767.676758 
	C626.209045,776.839417 626.263672,786.002625 626.234497,795.165466 
	C626.204834,804.465027 623.025085,807.805908 613.576416,807.852844 
	C591.919312,807.960571 570.261230,807.891541 548.603577,807.885376 
	C541.940186,807.883484 535.267395,808.069885 528.615845,807.780396 
	C520.395752,807.422607 517.677368,804.387146 517.659607,796.234619 
	C517.638123,786.405396 517.718506,776.575500 517.637146,766.746948 
	C517.608704,763.311096 518.563843,760.325256 521.565002,758.645386 
	C524.413208,757.051208 524.712463,754.778748 524.702454,751.956970 
	C524.644531,735.630615 523.997009,719.267517 524.849243,702.984985 
	C526.498535,671.476135 539.679077,646.368652 568.027039,630.596680 
	C571.355042,628.745117 574.880981,626.986633 578.536255,626.028931 
	C601.666138,619.968811 621.981506,607.611511 643.270508,597.435364 
	C649.414062,594.498657 655.335938,590.949646 662.422607,590.694092 
	C665.598572,590.579590 668.844604,590.452881 671.782104,591.740234 
	C675.839600,593.518311 677.716614,591.788818 679.489502,588.256897 
	C688.751709,569.805481 697.951965,551.329651 706.251282,532.416870 
	C713.273987,516.413208 728.620422,510.429108 743.635742,517.762268 
	C754.125671,522.885315 760.172241,535.878723 757.016052,548.899292 
	C747.274170,589.088562 734.581421,628.295227 716.451477,665.583435 
	C714.193298,670.227966 711.440002,674.608398 708.017944,678.966064 
M539.216675,691.634766 
	C539.007751,692.440552 538.697754,693.234863 538.604614,694.053833 
	C536.358154,713.809143 537.704468,733.640198 537.368774,753.436401 
	C537.322205,756.184692 538.973633,756.713806 541.269531,756.710510 
	C560.758606,756.682251 580.247681,756.671143 599.736694,756.704590 
	C602.448730,756.709290 603.574463,755.604858 603.679260,752.840576 
	C604.148376,740.467285 610.106628,731.192200 619.857544,723.868225 
	C640.404480,708.435181 662.460510,695.352844 684.414124,682.115173 
	C692.649597,677.149292 698.852966,670.541443 703.334839,662.060913 
	C712.155090,645.371277 718.823120,627.787231 725.141968,610.069336 
	C732.634094,589.061584 739.003479,567.696716 744.304626,546.030029 
	C746.168518,538.411987 742.416992,531.345276 735.714355,528.924988 
	C729.079224,526.529053 721.946411,529.596924 718.849121,536.622742 
	C709.308167,558.265198 698.785278,579.427734 687.939209,600.433289 
	C686.766296,602.704712 686.735962,604.705200 687.424561,607.079590 
	C691.264526,620.320740 687.303894,631.071899 675.684631,638.475159 
	C659.959045,648.494690 644.135132,658.360291 628.327393,668.250427 
	C623.805054,671.079773 620.047180,670.649353 617.766418,667.225464 
	C615.525208,663.861084 616.700623,660.034729 621.071594,657.164185 
	C625.803040,654.056702 630.635620,651.103149 635.430115,648.091980 
	C646.710876,641.007202 658.096985,634.083679 669.240234,626.788940 
	C676.008728,622.358032 677.610107,615.267395 673.906372,608.965210 
	C670.869446,603.797668 664.572388,602.283020 657.626221,605.319763 
	C653.055725,607.317871 648.671692,609.737671 644.143677,611.838379 
	C626.210510,620.158386 609.356506,630.889038 590.034302,636.109741 
	C561.724670,643.758789 545.657410,662.755981 539.216675,691.634766 
M604.393188,769.407715 
	C603.060303,769.406921 601.727356,769.405579 600.394470,769.405396 
	C578.734863,769.401794 557.074707,769.478027 535.416199,769.321899 
	C531.495422,769.293579 530.047241,770.526672 530.234375,774.468994 
	C530.494812,779.955322 530.388855,785.463440 530.300964,790.960022 
	C530.256531,793.741699 531.446716,794.876709 534.181274,794.826538 
	C538.511597,794.746948 542.844604,794.817749 547.176514,794.816833 
	C567.503235,794.812378 587.830322,794.735779 608.156250,794.857910 
	C612.190186,794.882141 613.896973,793.596985 613.670227,789.392517 
	C613.392456,784.242493 613.500732,779.063477 613.638123,773.902222 
	C613.721069,770.786560 612.686035,769.129150 609.348694,769.394165 
	C608.024292,769.499329 606.684326,769.409119 604.393188,769.407715 
z"/>
<path fill="#0379CC" opacity="1.000000" stroke="#0379CC" stroke-width="18" stroke-linejoin="round" 
	d="
M419.494385,313.395081 
	C435.195618,309.466949 448.054504,301.671478 458.680420,289.950012 
	C464.268921,283.785309 470.293182,278.006317 476.255798,272.191711 
	C495.270966,253.648544 527.741760,253.988327 546.294006,272.865509 
	C550.614136,277.261230 555.212280,281.428802 559.153076,286.143860 
	C572.692139,302.342773 590.408081,310.897278 610.509338,315.890900 
	C623.914612,319.221039 637.051636,323.704559 648.890625,331.165558 
	C658.679993,337.334869 666.953491,345.041809 671.042725,356.132874 
	C677.359253,373.264709 671.369263,390.254547 655.225342,402.078857 
	C646.242798,408.657898 636.024597,412.705780 625.541626,416.126160 
	C619.846375,417.984436 614.157349,419.969482 608.327515,421.286743 
	C593.007874,424.748322 580.436951,432.327667 570.097412,444.246429 
	C561.590393,454.052856 552.341064,463.223907 543.278381,472.537994 
	C523.373779,492.994812 497.070435,492.752533 477.365417,472.033966 
	C466.344574,460.446198 455.310425,448.870972 444.313599,437.260437 
	C438.309601,430.921326 430.965485,426.966888 422.701935,424.334717 
	C408.284576,419.742462 393.505890,416.211456 379.639069,409.975433 
	C371.978699,406.530487 364.980316,402.101990 359.107422,396.000153 
	C344.277924,380.592590 343.758148,359.973083 357.710602,343.715057 
	C367.168457,332.694366 379.615326,326.498108 392.936890,321.814209 
	C401.567963,318.779510 410.383636,316.269958 419.494385,313.395081 
M477.136505,290.635651 
	C465.953125,301.806458 455.448242,313.833527 440.429779,320.229584 
	C429.679871,324.807770 418.345459,327.637665 407.239655,331.149109 
	C394.172729,335.280670 381.404541,339.887604 370.890533,349.268768 
	C357.967529,360.799377 358.069427,378.222473 371.451385,389.186371 
	C375.980896,392.897430 380.926300,395.929596 386.344971,398.245209 
	C395.251190,402.051147 404.384064,405.336700 413.767242,407.499207 
	C434.159149,412.198792 450.943054,422.169434 464.327942,438.402649 
	C471.837158,447.509888 480.294495,455.861115 488.605530,464.275574 
	C501.790955,477.625122 518.813171,477.739136 531.948914,464.516052 
	C543.924561,452.460785 555.564026,440.072235 567.424072,427.901184 
	C573.913574,421.241577 581.482422,416.136414 590.369568,413.234497 
	C600.652832,409.876709 611.017883,406.769958 621.306335,403.427673 
	C631.807800,400.016235 641.980835,395.916656 650.473328,388.534363 
	C660.909485,379.462494 662.888123,367.041260 655.499878,355.385864 
	C649.802673,346.398346 640.853882,341.459534 631.541748,337.244843 
	C620.135071,332.082153 608.054321,328.758942 596.034424,325.427643 
	C580.904602,321.234436 567.666870,314.133545 556.799133,302.665405 
	C550.038818,295.531555 543.123230,288.533966 536.054077,281.706329 
	C526.629639,272.603882 515.164246,270.636719 502.680145,272.927368 
	C491.781860,274.927124 484.689880,282.513611 477.136505,290.635651 
z"/>
<path fill="#0379CC" opacity="1.000000" stroke="#0379CC" stroke-width="18" stroke-linejoin="round" 
	d="
M357.022766,481.842163 
	C348.727722,468.297272 350.314484,456.403839 361.921722,446.302155 
	C370.461884,438.869690 379.285370,431.758698 388.079895,424.624390 
	C392.600739,420.956940 396.543854,420.866730 399.161072,423.996918 
	C401.865326,427.231110 400.866058,431.776855 396.609619,435.216034 
	C388.839539,441.494263 381.050720,447.749420 373.244598,453.982788 
	C362.673798,462.423798 362.882324,471.005646 373.696381,479.073792 
	C411.744781,507.460907 449.200439,536.613770 486.208435,566.343811 
	C490.750244,569.992432 495.385834,573.527832 500.048004,577.022217 
	C507.174866,582.363892 514.581787,582.409363 521.626099,576.910706 
	C552.213928,553.034607 582.708191,529.038513 613.315552,505.187531 
	C624.742249,496.283234 636.374695,487.642578 647.931335,478.905518 
	C658.037048,471.265411 658.486145,462.756012 648.824890,454.605957 
	C640.935608,447.950684 632.745667,441.649994 624.647034,435.245270 
	C620.613525,432.055450 619.338867,427.189606 621.845825,424.011841 
	C624.239258,420.977997 628.137146,420.883301 632.494263,424.306274 
	C641.660706,431.507446 650.949097,438.595642 659.660095,446.324615 
	C673.556396,458.654388 672.431213,477.300140 657.579834,488.425232 
	C614.664734,520.572632 572.507080,553.694885 530.630371,587.176514 
	C518.663208,596.744629 503.608368,597.161499 491.555878,587.598206 
	C452.941559,556.959106 414.381348,526.253967 374.906219,496.718628 
	C368.797302,492.147919 362.040894,488.315521 357.022766,481.842163 
z"/>
</svg>