<svg width="16" height="16" viewBox="0 0 16 16" fill="none" xmlns="http://www.w3.org/2000/svg">
<path d="M6 9.5H10V8H6V9.5ZM6 7H13V5.5H6V7ZM6 4.5H13V3H6V4.5ZM4.5 13C4.08333 13 3.72917 12.8542 3.4375 12.5625C3.14583 12.2708 3 11.9167 3 11.5V1.5C3 1.08333 3.14583 0.729166 3.4375 0.437499C3.72917 0.145832 4.08333 -7.15256e-07 4.5 -7.15256e-07H14.5C14.9167 -7.15256e-07 15.2708 0.145832 15.5625 0.437499C15.8542 0.729166 16 1.08333 16 1.5V11.5C16 11.9167 15.8542 12.2708 15.5625 12.5625C15.2708 12.8542 14.9167 13 14.5 13H4.5ZM4.5 11.5H14.5V1.5H4.5V11.5ZM1.5 16C1.08333 16 0.729167 15.8542 0.4375 15.5625C0.145833 15.2708 1.78814e-07 14.9167 1.78814e-07 14.5V3H1.5V14.5H13V16H1.5ZM4.5 1.5V11.5V1.5Z" fill="white"/>
</svg>
