<svg xmlns="http://www.w3.org/2000/svg" viewBox="0 0 160 180" fill="none">
  <!-- Main unit -->
  <rect x="35" y="35" width="90" height="60" rx="8" fill="#0379CC"/>
  <!-- Screen -->
  <rect x="43" y="43" width="55" height="36" rx="4" fill="#C8E6FA"/>
  <!-- Multibeam swath on screen -->
  <path d="M 70 61 L 50 79 M 70 61 L 57 79 M 70 61 L 70 79 M 70 61 L 83 79 M 70 61 L 96 79" stroke="#0379CC" stroke-width="1.5" opacity="0.7"/>
  <!-- Sea surface line -->
  <line x1="46" y1="74" x2="95" y2="74" stroke="#0379CC" stroke-width="1" stroke-dasharray="3 2" opacity="0.4"/>
  <!-- Connection ports -->
  <rect x="106" y="50" width="18" height="8" rx="3" fill="#015A99"/>
  <rect x="106" y="62" width="18" height="8" rx="3" fill="#015A99"/>
  <!-- Multibeam transducer head (wide) -->
  <rect x="30" y="108" width="100" height="18" rx="8" fill="#1A8FE3" stroke="#015A99" stroke-width="2"/>
  <!-- Mounting bracket -->
  <rect x="72" y="95" width="16" height="14" rx="2" fill="#015A99"/>
  <!-- Fan beams beneath -->
  <path d="M 35 126 L 10 155" stroke="#0379CC" stroke-width="1.5" opacity="0.4"/>
  <path d="M 50 128 L 35 158" stroke="#0379CC" stroke-width="1.5" opacity="0.5"/>
  <path d="M 65 129 L 55 162" stroke="#0379CC" stroke-width="1.5" opacity="0.6"/>
  <path d="M 80 129 L 80 164" stroke="#0379CC" stroke-width="2" opacity="0.7"/>
  <path d="M 95 129 L 105 162" stroke="#0379CC" stroke-width="1.5" opacity="0.6"/>
  <path d="M 110 128 L 125 158" stroke="#0379CC" stroke-width="1.5" opacity="0.5"/>
  <path d="M 125 126 L 150 155" stroke="#0379CC" stroke-width="1.5" opacity="0.4"/>
</svg>
