<svg width="16" height="16" viewBox="0 0 16 16" fill="none" xmlns="http://www.w3.org/2000/svg">
<path d="M8 16C6.90278 16 5.86806 15.7917 4.89583 15.375C3.92361 14.9583 3.06944 14.3889 2.33333 13.6667C1.61111 12.9306 1.04167 12.0764 0.625 11.1042C0.208334 10.1319 1.78814e-07 9.09722 1.78814e-07 8C1.78814e-07 6.88889 0.208334 5.85417 0.625 4.89583C1.04167 3.92361 1.61111 3.07639 2.33333 2.35417C3.06944 1.61805 3.92361 1.04167 4.89583 0.624999C5.86806 0.208333 6.90278 -7.15256e-07 8 -7.15256e-07C9.11111 -7.15256e-07 10.1458 0.208333 11.1042 0.624999C12.0764 1.04167 12.9236 1.61805 13.6458 2.35417C14.3819 3.07639 14.9583 3.92361 15.375 4.89583C15.7917 5.85417 16 6.88889 16 8C16 9.09722 15.7917 10.1319 15.375 11.1042C14.9583 12.0764 14.3819 12.9306 13.6458 13.6667C12.9236 14.3889 12.0764 14.9583 11.1042 15.375C10.1458 15.7917 9.11111 16 8 16ZM8 14.4375C8.23611 14.2014 8.47222 13.7639 8.70833 13.125C8.94445 12.4722 9.125 11.7639 9.25 11H6.75C6.875 11.7639 7.05556 12.4722 7.29167 13.125C7.52778 13.7639 7.76389 14.2014 8 14.4375ZM6.10417 14.2292C5.90972 13.8125 5.73611 13.3333 5.58333 12.7917C5.44444 12.25 5.32639 11.6528 5.22917 11H2.25C2.65278 11.7917 3.1875 12.4722 3.85417 13.0417C4.52083 13.5972 5.27083 13.9931 6.10417 14.2292ZM9.89583 14.2292C10.7292 13.9931 11.4792 13.5972 12.1458 13.0417C12.8125 12.4722 13.3472 11.7917 13.75 11H10.7708C10.6736 11.6528 10.5486 12.25 10.3958 12.7917C10.2569 13.3333 10.0903 13.8125 9.89583 14.2292ZM1.6875 9.5H5.04167C5.01389 9.23611 4.99306 8.97917 4.97917 8.72917C4.97917 8.46528 4.97917 8.20833 4.97917 7.95833C4.97917 7.70833 4.97917 7.46528 4.97917 7.22917C4.99306 6.97917 5.01389 6.73611 5.04167 6.5H1.6875C1.61806 6.76389 1.56944 7.02083 1.54167 7.27083C1.51389 7.50694 1.5 7.75 1.5 8C1.5 8.25 1.51389 8.5 1.54167 8.75C1.56944 8.98611 1.61806 9.23611 1.6875 9.5ZM6.5625 9.5H9.4375C9.46528 9.22222 9.47917 8.96528 9.47917 8.72917C9.49306 8.47917 9.5 8.23611 9.5 8C9.5 7.76389 9.49306 7.52083 9.47917 7.27083C9.47917 7.02083 9.46528 6.76389 9.4375 6.5H6.5625C6.53472 6.76389 6.51389 7.02083 6.5 7.27083C6.5 7.52083 6.5 7.76389 6.5 8C6.5 8.23611 6.5 8.47917 6.5 8.72917C6.51389 8.97917 6.53472 9.23611 6.5625 9.5ZM10.9583 9.5H14.3125C14.3819 9.23611 14.4306 8.98611 14.4583 8.75C14.4861 8.5 14.5 8.25 14.5 8C14.5 7.75 14.4861 7.5 14.4583 7.25C14.4306 7 14.3819 6.75 14.3125 6.5H10.9583C10.9861 6.76389 11 7.02778 11 7.29167C11.0139 7.54167 11.0208 7.79167 11.0208 8.04167C11.0208 8.29167 11.0139 8.54167 11 8.79167C11 9.02778 10.9861 9.26389 10.9583 9.5ZM10.7708 5H13.75C13.3472 4.20833 12.8125 3.53472 12.1458 2.97917C11.4792 2.40972 10.7292 2.00694 9.89583 1.77083C10.0903 2.1875 10.2569 2.66667 10.3958 3.20833C10.5486 3.75 10.6736 4.34722 10.7708 5ZM6.75 5H9.25C9.125 4.23611 8.94445 3.53472 8.70833 2.89583C8.47222 2.24305 8.23611 1.79861 8 1.5625C7.76389 1.79861 7.52778 2.24305 7.29167 2.89583C7.05556 3.53472 6.875 4.23611 6.75 5ZM2.25 5H5.22917C5.32639 4.34722 5.44444 3.75 5.58333 3.20833C5.73611 2.66667 5.90972 2.1875 6.10417 1.77083C5.27083 2.00694 4.52083 2.40972 3.85417 2.97917C3.1875 3.53472 2.65278 4.20833 2.25 5Z" fill="white"/>
</svg>
