<svg width="32" height="32" viewBox="0 0 32 32" fill="none" xmlns="http://www.w3.org/2000/svg">
<path d="M16.0013 2.66675C23.3653 2.66675 29.3346 8.63608 29.3346 16.0001C29.3346 23.3641 23.3653 29.3334 16.0013 29.3334C13.8443 29.3363 11.719 28.8136 9.80931 27.8107L4.08931 29.3001C3.89819 29.3499 3.69737 29.3488 3.50677 29.2971C3.31616 29.2453 3.14239 29.1447 3.00267 29.0051C2.86294 28.8655 2.76213 28.6918 2.7102 28.5013C2.65828 28.3107 2.65705 28.1099 2.70665 27.9187L4.19465 22.2001C3.1891 20.2883 2.66506 18.1602 2.66798 16.0001C2.66798 8.63608 8.63732 2.66675 16.0013 2.66675ZM17.6706 17.3334H11.668L11.532 17.3427C11.2926 17.3757 11.0733 17.4942 10.9145 17.6763C10.7558 17.8584 10.6683 18.0918 10.6683 18.3334C10.6683 18.575 10.7558 18.8085 10.9145 18.9906C11.0733 19.1727 11.2926 19.2911 11.532 19.3241L11.668 19.3334H17.6706L17.8053 19.3241C18.0447 19.2911 18.264 19.1727 18.4228 18.9906C18.5815 18.8085 18.669 18.575 18.669 18.3334C18.669 18.0918 18.5815 17.8584 18.4228 17.6763C18.264 17.4942 18.0447 17.3757 17.8053 17.3427L17.6706 17.3334ZM20.3346 12.6667H11.668L11.532 12.6761C11.2926 12.709 11.0733 12.8275 10.9145 13.0096C10.7558 13.1917 10.6683 13.4251 10.6683 13.6667C10.6683 13.9084 10.7558 14.1418 10.9145 14.3239C11.0733 14.506 11.2926 14.6245 11.532 14.6574L11.668 14.6667H20.3346L20.4706 14.6574C20.71 14.6245 20.9293 14.506 21.0881 14.3239C21.2469 14.1418 21.3343 13.9084 21.3343 13.6667C21.3343 13.4251 21.2469 13.1917 21.0881 13.0096C20.9293 12.8275 20.71 12.709 20.4706 12.6761L20.3346 12.6667Z" fill="white"/>
</svg>
