<svg width="32" height="32" viewBox="0 0 32 32" fill="none" xmlns="http://www.w3.org/2000/svg">
<path fill-rule="evenodd" clip-rule="evenodd" d="M22.068 29.5107C20.148 29.44 14.7067 28.688 9.00803 22.9907C3.3107 17.292 2.56003 11.852 2.48803 9.93071C2.38136 7.00271 4.62403 4.15871 7.2147 3.04804C7.52667 2.91333 7.8683 2.86204 8.20607 2.89921C8.54384 2.93638 8.86615 3.06072 9.14136 3.26004C11.2747 4.81471 12.7467 7.16671 14.0107 9.01604C14.2888 9.42235 14.4077 9.91677 14.3448 10.4051C14.2818 10.8934 14.0414 11.3415 13.6694 11.664L11.068 13.596C10.9424 13.6868 10.8539 13.8201 10.8191 13.9711C10.7842 14.1222 10.8054 14.2808 10.8787 14.4174C11.468 15.488 12.516 17.0827 13.716 18.2827C14.916 19.4827 16.5867 20.6 17.732 21.256C17.8756 21.3367 18.0447 21.3592 18.2044 21.319C18.3641 21.2788 18.5023 21.179 18.5907 21.04L20.284 18.4627C20.5953 18.0492 21.0546 17.7721 21.5656 17.6896C22.0766 17.6071 22.5997 17.7255 23.0254 18.02C24.9014 19.3187 27.0907 20.7654 28.6934 22.8174C28.9089 23.0946 29.046 23.4246 29.0903 23.7729C29.1346 24.1212 29.0846 24.475 28.9454 24.7974C27.8294 27.4014 25.0054 29.6187 22.068 29.5107Z" fill="white"/>
</svg>
