<svg width="65" height="100" viewBox="0 0 65 100" fill="none" xmlns="http://www.w3.org/2000/svg">
<path d="M29.6608 0.120354C30.9904 -0.0162705 32.2754 -0.0144482 33.5586 0.0188376C38.8092 0.155042 43.7282 1.53235 48.305 4.1091C52.5112 6.47725 56.0262 9.63877 58.8527 13.5701C61.5921 17.3803 63.3987 21.5946 64.3439 26.1966C64.9563 29.1783 65.1093 32.1905 64.9294 35.2129C64.7145 38.8257 63.9338 42.3372 62.8084 45.7737C61.4032 50.0645 59.5965 54.1859 57.6208 58.2356C54.0941 65.4645 50.101 72.4349 45.9704 79.326C42.8748 84.4905 39.6674 89.586 36.4209 94.6563C35.4118 96.2322 34.42 97.8193 33.4233 99.4032C32.9288 100.189 32.1091 100.205 31.607 99.415C29.798 96.5698 28.0075 93.7126 26.1913 90.8721C23.1856 86.1716 20.2413 81.4327 17.3936 76.6343C14.4739 71.7145 11.6698 66.7288 9.02506 61.6526C6.96734 57.7032 5.09848 53.6685 3.4643 49.5244C2.06832 45.9843 0.985644 42.3492 0.417173 38.5819C-0.112199 35.0737 -0.145767 31.5559 0.362368 28.0272C1.18214 22.3344 3.33002 17.2103 6.82837 12.6825C11.2035 7.02001 16.8418 3.17774 23.7091 1.1953C25.6377 0.638558 27.6058 0.267992 29.6608 0.120354ZM37.9273 19.5041C35.5448 18.4859 33.0854 18.1376 30.5084 18.5242C24.6708 19.4001 19.4963 24.1784 18.849 31.0627C18.5902 33.8152 19.1861 36.4345 20.5133 38.8749C23.2988 43.9964 29.2146 46.8616 34.9053 45.8357C43.3725 44.3093 48.4285 35.2527 45.2808 27.2019C43.8977 23.6641 41.4299 21.1292 37.9273 19.5041Z" fill="#ffffff"/>
</svg>
