<svg width="125" height="100" viewBox="0 0 125 100" fill="none" xmlns="http://www.w3.org/2000/svg">
<path d="M53.7848 99.9511C53.6293 99.9504 53.4738 99.9496 53.2391 99.8829C52.9511 99.7779 52.7439 99.7214 52.5332 99.7026C51.0239 99.5676 49.5147 99.427 48.0028 99.3273C47.8123 99.3147 47.6068 99.5299 47.4082 99.6396C47.3008 99.6394 47.1935 99.6393 47.0168 99.5776C46.6891 99.5049 46.4282 99.5134 46.173 99.4793C44.5522 99.2629 42.9299 99.0558 41.3135 98.81C38.8224 98.4311 36.3297 98.0557 33.851 97.6056C33.229 97.4926 32.6592 97.0971 32.0623 96.8384C31.7442 96.7004 31.4196 96.5772 31.0979 96.4473C31.0979 96.4473 31.1206 96.4258 31.1106 96.3796C30.744 95.3191 30.1324 94.479 29.3432 93.7603C29.3432 93.7603 29.3434 93.7586 29.3495 93.7314C29.3528 93.6631 29.3325 93.6345 29.2946 93.6184C29.266 93.5525 29.2375 93.4865 29.2438 93.3227C29.2449 92.6419 29.1842 92.0591 29.1822 91.476C29.1724 88.5651 29.1589 85.6539 29.184 82.7432C29.2048 80.3306 29.2848 77.9187 29.3207 75.5062C29.3279 75.023 29.2546 74.5387 29.2184 74.055C29.2165 73.9451 29.2145 73.8353 29.2761 73.6555C29.9563 72.1628 29.8223 70.6606 29.8063 69.1709C29.8075 69.1046 29.8087 69.0383 29.8778 68.9089C30.2111 67.8107 30.4362 66.7634 30.7518 65.744C31.1802 64.3605 31.6422 62.9847 32.1591 61.6321C32.4757 60.8037 32.9682 60.0432 33.2964 59.2182C33.5892 58.4822 34.4736 58.0038 34.2452 57.046C34.2452 57.046 34.2383 57.0316 34.2956 57.0219C35.5454 55.5243 36.7432 54.0404 37.9264 52.5451C38.1872 52.2155 38.3967 51.8453 38.6299 51.4939C38.6299 51.4939 38.6663 51.5315 38.7054 51.522C39.3336 51.0797 39.9521 50.6804 40.4992 50.1998C40.7704 49.9616 40.91 49.5737 41.1092 49.2536C41.1092 49.2536 41.1255 49.2449 41.1882 49.2585C42.2055 49.058 42.8037 48.3615 43.4106 47.6767C43.4106 47.6767 43.4164 47.686 43.4678 47.6856C43.8834 47.4452 44.2477 47.2053 44.6119 46.9653C44.6119 46.9653 44.6151 46.9514 44.6791 46.9562C45.0934 46.7619 45.4437 46.5628 45.7941 46.3637C45.7941 46.3637 45.794 46.3522 45.8589 46.3593C46.687 46.1344 47.4525 45.909 48.2095 45.6583C48.2716 45.6377 48.2764 45.4441 48.3078 45.331C48.3078 45.331 48.3212 45.3122 48.3449 45.3272C48.3687 45.3422 48.418 45.3056 48.418 45.3056C48.4895 45.2665 48.561 45.2275 48.7101 45.2098C48.8243 45.2073 48.8609 45.1834 48.8975 45.1595C48.8975 45.1595 48.9239 45.1312 49.0103 45.1443C49.6 45.0616 50.1043 44.9709 50.6063 44.8689C51.7658 44.6332 52.9242 44.392 54.0831 44.153C54.148 44.1452 54.2129 44.1374 54.3667 44.17C54.9621 44.1837 55.4693 44.1247 55.9748 44.1362C57.3229 44.167 58.6701 44.263 60.018 44.2703C63.6856 44.2903 67.3535 44.2728 71.0213 44.2865C71.3791 44.2879 71.7375 44.3971 72.0937 44.4662C73.5046 44.7402 74.9147 45.0182 76.3251 45.2946C77.9785 46.0635 79.632 46.8324 81.3008 47.6855C81.3754 48.3264 81.7634 48.2464 82.1373 48.1939C82.1373 48.1939 82.1447 48.2079 82.1534 48.2579C82.2453 48.3339 82.3286 48.3599 82.4119 48.3859C82.4119 48.3859 82.3792 48.4262 82.4069 48.4552C82.7887 48.8895 83.0758 49.3966 83.5089 49.6819C85.0539 50.6994 86.3211 51.9971 87.4832 53.4092C88.7268 54.9203 90.0067 56.4048 90.8463 58.206C91.4655 59.5346 92.1412 60.8371 92.8055 62.1442C92.8569 62.2454 93.0174 62.2912 93.1272 62.3628C93.1421 62.3839 93.157 62.4051 93.1417 62.5046C93.2971 63.2749 93.502 63.9623 93.6639 64.6598C93.8889 65.6297 94.0826 66.6069 94.2879 67.5813C94.4719 68.4549 94.6514 69.3295 94.8367 70.2028C95.0369 71.1459 95.2414 72.0881 95.444 73.0307C95.4793 73.2807 95.5146 73.5306 95.5083 73.8927C95.5013 74.8854 95.5639 75.766 95.5661 76.6467C95.5787 81.7484 95.5781 86.8502 95.5787 91.9519C95.5788 92.4044 95.5557 92.8568 95.5433 93.3093C95.5298 93.3835 95.5162 93.4576 95.4549 93.5938C95.3903 93.6844 95.3905 93.7128 95.4078 93.741C95.4078 93.741 95.408 93.7535 95.35 93.7605C94.7137 94.0681 94.5956 94.5548 94.735 95.1456C94.7177 95.127 94.7003 95.1083 94.6601 95.1159C94.1435 95.3298 93.6463 95.4861 93.5696 96.1527C93.5526 96.3009 93.2461 96.4265 93.0603 96.5422C92.723 96.752 92.3788 96.9511 92.0328 97.1462C91.7459 97.308 91.4674 97.545 91.159 97.5987C89.0432 97.9671 86.9239 98.3189 84.7987 98.6281C83.7371 98.7825 82.6604 98.8321 81.5913 98.9362C80.6069 99.0321 79.6232 99.1363 78.6399 99.2433C78.5995 99.2477 78.528 99.338 78.5362 99.3535C78.5698 99.4164 78.6288 99.4657 78.6784 99.5201C75.6596 99.6703 72.6408 99.8205 69.5051 99.9231C69.2666 99.8612 69.145 99.8341 69.0234 99.8341C64.629 99.8344 60.2345 99.8372 55.7737 99.8415C55.0665 99.8792 54.4256 99.9152 53.7848 99.9511Z" fill="#ffffff"/>
<path d="M46.8769 7.88956C52.0205 1.39346 58.7031 -1.24673 66.6906 0.551217C74.6031 2.33229 79.5036 7.5836 81.2722 15.4917C83.4024 25.0166 77.8894 34.8379 68.8585 37.9828C57.2924 42.0106 45.0574 34.6186 43.3039 22.4999C42.5359 17.192 43.6934 12.3088 46.8769 7.88956Z" fill="#ffffff"/>
<path d="M15.5726 83.3538C15.4111 83.3564 15.2497 83.359 15.0113 83.2893C13.9615 83.1631 12.9888 83.1092 12.0161 83.0552C11.8524 83.0462 11.6887 83.0373 11.4715 82.9496C11.3259 82.7684 11.2438 82.5896 11.1402 82.5761C10.5146 82.4943 9.8803 82.4768 9.25608 82.3877C8.29251 82.2502 7.33465 82.0726 6.37448 81.9113C5.45878 81.7575 4.51408 81.6951 3.63708 81.4184C2.96679 81.2069 2.36493 80.7494 1.76832 80.3483C1.53909 80.1942 1.44487 79.8497 1.22629 79.6672C0.648472 79.1849 0.342202 78.5398 0.326652 77.8425C0.276932 75.6129 0.269923 73.3807 0.316359 71.151C0.377196 68.2296 0.531549 65.3102 0.594847 62.3888C0.643894 60.1251 1.33652 58.0135 1.9757 55.882C2.0644 55.5863 2.04519 55.2581 2.07594 54.945C2.09066 54.8581 2.10538 54.7711 2.21172 54.6565C2.62977 53.8606 2.95622 53.0923 3.28266 52.324C3.28266 52.324 3.27037 52.296 3.33471 52.2818C3.8603 51.6632 4.33814 51.0705 4.77692 50.4502C5.06478 50.0432 5.58959 49.7391 5.43701 49.1108C5.45347 49.1303 5.46992 49.1498 5.51569 49.1529C6.16323 48.8522 6.68596 48.4916 6.68306 47.7113C6.71005 47.6634 6.73703 47.6156 6.859 47.5545C7.13619 47.4734 7.3523 47.4473 7.49496 47.3311C8.24821 46.7173 8.93545 46.0105 9.73592 45.4696C10.78 44.7641 11.8637 44.0808 13.0135 43.5783C14.2063 43.057 15.4983 42.7631 16.7469 42.3697C16.9948 42.2747 17.2426 42.1797 17.582 42.1531C17.9083 42.2649 18.1431 42.3456 18.3781 42.3461C21.7923 42.3527 25.2066 42.3485 28.6209 42.347C28.6209 42.347 28.6879 42.3481 28.7572 42.3945C29.4302 42.5487 30.0339 42.6564 30.6376 42.764C30.6376 42.764 30.6549 42.7543 30.6729 42.787C30.7344 42.8155 30.7779 42.8112 30.8215 42.8069C33.1576 43.5008 35.1405 44.7738 36.9438 46.5163C32.299 50.7642 28.819 55.7554 26.6672 61.7331C26.435 62.0226 26.2365 62.2524 26.1631 62.5169C25.7897 63.8625 25.4373 65.2144 25.1017 66.57C24.9552 67.1617 24.8434 67.7644 24.7565 68.3679C24.6104 69.3838 24.4664 70.4018 24.3812 71.4239C24.3333 71.9974 24.4052 72.5809 24.4231 73.1599C24.4262 73.2739 24.4294 73.3879 24.3627 73.5667C24.1496 74.0498 23.8889 74.4664 23.8824 74.8869C23.8436 77.4183 23.8545 79.9506 23.8691 82.4824C23.8727 83.0896 23.6653 83.4173 23.018 83.3902C21.8689 83.342 20.7195 83.2976 19.5697 83.2771C19.4215 83.2745 19.2705 83.4234 19.1208 83.5021C18.8173 83.5049 18.5139 83.5078 18.1277 83.4408C17.2209 83.3652 16.3967 83.3595 15.5726 83.3538Z" fill="#ffffff"/>
<path d="M117.071 46.7867C117.122 46.7822 117.162 46.8009 117.199 46.9304C117.733 47.6849 118.097 48.4607 118.82 48.9974C119.32 49.3685 119.703 49.9349 119.668 50.5338C119.905 50.6594 120.121 50.7461 120.303 50.8786C120.541 51.0511 120.753 51.26 120.976 51.4532C120.976 51.4532 120.971 51.4677 120.956 51.5274C121.102 51.8079 121.263 52.0288 121.425 52.2497C121.498 52.3709 121.572 52.4921 121.643 52.7187C121.992 53.8563 122.349 54.8868 122.693 55.9213C122.894 56.5266 123.076 57.1385 123.268 57.747C123.447 58.3167 123.276 59.0353 123.964 59.39C123.979 59.4563 123.995 59.5226 123.962 59.6811C123.905 59.9919 123.872 60.2124 123.89 60.4287C124.072 62.6491 124.277 64.8679 124.44 67.0897C124.473 67.5462 124.319 68.0136 124.321 68.4758C124.329 71.569 124.368 74.6621 124.37 77.7552C124.37 78.6471 124.128 79.4589 123.254 79.9253C123.192 79.9582 123.136 80.0223 123.103 80.0854C122.645 80.9627 121.82 81.2892 120.935 81.4706C119.594 81.7456 118.246 81.9934 116.892 82.1991C116.023 82.3313 115.103 82.5499 114.272 82.3893C113.585 82.2565 113.474 82.4766 113.344 82.9615C113.137 83.0003 112.929 83.0392 112.611 83.0331C111.596 83.0919 110.691 83.1957 109.786 83.2995C109.579 83.3253 109.372 83.3512 109.054 83.3301C108.699 83.2684 108.454 83.2365 108.21 83.2419C106.193 83.2867 104.176 83.3483 102.159 83.384C101.03 83.404 100.898 83.2523 100.897 82.1023C100.897 80.252 100.938 78.4003 100.876 76.552C100.851 75.8158 100.598 75.0872 100.449 74.3552C100.449 74.3552 100.453 74.3524 100.453 74.3225C100.448 74.2321 100.444 74.1717 100.44 74.1113C100.416 74.0339 100.392 73.9564 100.409 73.814C100.422 73.7031 100.394 73.6571 100.367 73.6111C100.351 73.4981 100.335 73.3851 100.364 73.1676C100.377 72.3318 100.413 71.5891 100.296 70.8712C99.8754 68.281 99.4131 65.6973 98.9416 63.1157C98.8598 62.6677 98.672 62.2355 98.4941 61.8124C98.4675 61.7492 98.2249 61.7769 98.0822 61.7625C97.0441 59.1312 95.9244 56.5349 94.3253 54.188C93.3845 52.8072 92.3944 51.4509 91.3212 50.1718C90.2486 48.8934 89.0449 47.725 87.8367 46.4426C89.5481 44.7751 91.5629 43.5232 94.0122 42.7784C94.6618 42.6906 95.1862 42.5449 95.718 42.5083C97.4941 42.3863 99.2722 42.2446 101.051 42.2217C102.919 42.1976 104.79 42.3608 106.658 42.3339C108.801 42.3031 110.641 43.2545 112.558 43.9702C113.161 44.1954 113.744 44.4768 114.335 44.7325C114.389 44.7464 114.442 44.7604 114.519 44.8671C114.693 45.0237 114.843 45.0877 114.993 45.1517C114.993 45.1517 114.98 45.1598 114.982 45.2054C115.568 45.9161 116.122 46.6203 117.071 46.7867Z" fill="#ffffff"/>
<path d="M20.1958 13.0374C26.7734 11.9765 33.3345 16.3153 34.6113 23.4758C36.0045 31.289 30.5061 38.6939 22.4038 38.8872C16.4013 39.0305 11.2916 35.0433 9.82216 29.0082C8.29806 22.7488 11.4605 16.3817 17.3737 13.8539C18.2482 13.4801 19.2101 13.3106 20.1958 13.0374Z" fill="#ffffff"/>
<path d="M102.399 38.9148C98.6198 38.7344 95.5172 37.2846 93.0694 34.471C86.7978 27.262 90.3432 15.63 99.5331 13.2633C106.431 11.4868 113.532 15.9919 114.954 23.0468C116.302 29.7381 112.837 36.0645 106.529 38.2242C105.247 38.6634 103.825 38.6965 102.399 38.9148Z" fill="#ffffff"/>
<path d="M2.03487 54.9786C2.04509 55.2582 2.0643 55.5863 1.9756 55.8821C1.33642 58.0136 0.643794 60.1252 0.594747 62.3888C0.531448 65.3102 0.377096 68.2296 0.316259 71.151C0.269823 73.3807 0.276832 75.6129 0.326552 77.8425C0.342102 78.5398 0.648372 79.185 1.22619 79.6673C1.44477 79.8497 1.53899 80.1942 1.76822 80.3483C2.36483 80.7495 2.96669 81.2069 3.63698 81.4184C4.51398 81.6951 5.45868 81.7575 6.37438 81.9113C7.33455 82.0726 8.29241 82.2502 9.25598 82.3877C9.8802 82.4769 10.5145 82.4944 11.1401 82.5761C11.2438 82.5897 11.3258 82.7684 11.4179 82.9189C8.69993 82.5179 5.95982 82.1709 3.27164 81.5854C1.35118 81.1672 0.0170562 79.3839 0.00622379 77.3915C-0.0165755 73.198 0.0234103 69.0028 0.123788 64.8104C0.204219 61.451 0.801327 58.1696 2.03487 54.9786Z" fill="#ffffff"/>
<path d="M113.401 82.9719C113.474 82.4766 113.585 82.2566 114.272 82.3893C115.103 82.5499 116.023 82.3313 116.892 82.1991C118.246 81.9934 119.594 81.7456 120.935 81.4706C121.82 81.2892 122.645 80.9627 123.103 80.0854C123.136 80.0223 123.192 79.9582 123.254 79.9253C124.128 79.4589 124.37 78.6471 124.37 77.7552C124.368 74.6621 124.329 71.569 124.321 68.4758C124.319 68.0136 124.473 67.5462 124.44 67.0897C124.277 64.8679 124.072 62.6491 123.89 60.4287C123.872 60.2124 123.905 59.9919 123.954 59.7321C125.088 65.1378 124.698 70.6543 124.749 76.1489C124.757 76.976 124.698 77.8334 124.485 78.6269C124.035 80.3012 122.824 81.3425 121.182 81.6795C118.626 82.2042 116.035 82.5567 113.401 82.9719Z" fill="#ffffff"/>
<path d="M93.1191 62.3106C93.0175 62.2912 92.8569 62.2454 92.8055 62.1442C92.1412 60.8371 91.4655 59.5347 90.8463 58.2061C90.0068 56.4048 88.7269 54.9203 87.4832 53.4092C86.3212 51.9971 85.0539 50.6994 83.509 49.6819C83.0758 49.3966 82.7887 48.8895 82.4233 48.4351C84.7355 49.883 86.6698 51.798 88.3876 53.9461C90.403 56.4665 92.0171 59.2146 93.1191 62.3106Z" fill="#ffffff"/>
<path d="M78.745 99.5306C78.6289 99.4657 78.5699 99.4164 78.5363 99.3534C78.5281 99.338 78.5996 99.2477 78.64 99.2433C79.6233 99.1363 80.6069 99.0321 81.5914 98.9362C82.6605 98.8321 83.7372 98.7825 84.7988 98.6281C86.9239 98.3188 89.0433 97.9671 91.1591 97.5987C91.4674 97.545 91.746 97.308 92.0328 97.1462C92.3789 96.951 92.7231 96.752 93.0604 96.5421C93.2462 96.4265 93.5526 96.3009 93.5697 96.1527C93.6463 95.4861 94.1435 95.3298 94.6871 95.1429C93.6527 96.9674 91.996 97.8999 89.9417 98.1768C86.4794 98.6434 83.0145 99.0897 79.5497 99.5374C79.3075 99.5687 79.0577 99.5413 78.745 99.5306Z" fill="#ffffff"/>
<path d="M76.2899 45.2545C74.9148 45.0182 73.5047 44.7402 72.0938 44.4662C71.7376 44.3971 71.3791 44.2879 71.0214 44.2865C67.3536 44.2728 63.6857 44.2904 60.018 44.2703C58.6701 44.263 57.3229 44.167 55.9749 44.1363C55.4693 44.1247 54.9621 44.1837 54.4159 44.1669C54.603 44.0766 54.8298 43.9896 55.0568 43.9891C59.908 43.9783 64.7594 43.9553 69.6105 43.9839C71.8896 43.9974 74.0996 44.4817 76.2899 45.2545Z" fill="#ffffff"/>
<path d="M100.437 74.4233C100.598 75.0873 100.851 75.8158 100.876 76.5521C100.938 78.4003 100.897 80.252 100.897 82.1023C100.898 83.2523 101.029 83.4041 102.159 83.384C104.176 83.3483 106.193 83.2867 108.209 83.2419C108.454 83.2365 108.699 83.2684 108.992 83.3207C106.234 83.4452 103.429 83.532 100.424 83.6251C100.424 80.4813 100.424 77.4864 100.437 74.4233Z" fill="#ffffff"/>
<path d="M95.5682 93.2584C95.5558 92.8568 95.5789 92.4044 95.5788 91.9519C95.5782 86.8502 95.5788 81.7484 95.5662 76.6467C95.564 75.766 95.5015 74.8854 95.5027 73.9561C95.6371 75.9939 95.7947 78.0797 95.821 80.1671C95.8676 83.8568 95.8458 87.5475 95.8233 91.2376C95.8193 91.8946 95.6734 92.5508 95.5682 93.2584Z" fill="#ffffff"/>
<path d="M29.2002 74.114C29.2547 74.5387 29.328 75.023 29.3208 75.5061C29.2849 77.9186 29.2049 80.3306 29.1841 82.7432C29.159 85.6539 29.1725 88.5651 29.1823 91.476C29.1843 92.059 29.245 92.6419 29.2423 93.2682C29.1121 92.657 28.9362 92.0021 28.9376 91.3475C28.9485 86.386 28.9884 81.4245 29.0351 76.4631C29.0423 75.6994 29.131 74.9363 29.2002 74.114Z" fill="#ffffff"/>
<path d="M31.1158 96.4941C31.4198 96.5772 31.7443 96.7004 32.0625 96.8384C32.6593 97.0971 33.2292 97.4926 33.8512 97.6055C36.3299 98.0557 38.8225 98.431 41.3137 98.8099C42.9301 99.0558 44.5524 99.2629 46.1731 99.4793C46.4284 99.5134 46.6893 99.5048 46.9663 99.5594C44.0777 99.3146 41.1677 99.0518 38.2647 98.7265C36.9485 98.579 35.6446 98.3161 34.3379 98.0896C33.1251 97.8794 32.0473 97.3767 31.1158 96.4941Z" fill="#ffffff"/>
<path d="M19.1892 83.5154C19.2705 83.4234 19.4215 83.2745 19.5697 83.2771C20.7194 83.2976 21.8689 83.342 23.018 83.3902C23.6653 83.4173 23.8726 83.0896 23.8691 82.4824C23.8544 79.9506 23.8435 77.4183 23.8824 74.8869C23.8889 74.4664 24.1496 74.0498 24.3438 73.6208C24.3947 76.8844 24.3947 80.1585 24.3947 83.5287C22.5464 83.5287 20.902 83.5287 19.1892 83.5154Z" fill="#ffffff"/>
<path d="M114.31 44.6913C113.743 44.4768 113.161 44.1955 112.558 43.9703C110.641 43.2545 108.801 42.3031 106.658 42.3339C104.79 42.3608 102.919 42.1976 101.051 42.2217C99.2721 42.2447 97.4941 42.3864 95.718 42.5084C95.1861 42.5449 94.6618 42.6906 94.0654 42.7813C95.266 42.5265 96.5283 42.1131 97.8055 42.0605C100.537 41.9479 103.277 41.9885 106.012 42.0286C109.022 42.0727 111.746 43.0865 114.31 44.6913Z" fill="#ffffff"/>
<path d="M34.2079 57.0772C34.4737 58.0038 33.5893 58.4822 33.2965 59.2182C32.9683 60.0432 32.4758 60.8037 32.1592 61.6321C31.6424 62.9847 31.1803 64.3604 30.7519 65.744C30.4363 66.7634 30.2112 67.8107 29.8978 68.8631C30.5275 64.6766 31.9434 60.7436 34.2079 57.0772Z" fill="#ffffff"/>
<path d="M98.0813 61.8199C98.2249 61.7769 98.4675 61.7493 98.494 61.8125C98.672 62.2355 98.8598 62.6678 98.9416 63.1158C99.4131 65.6974 99.8753 68.281 100.296 70.8712C100.413 71.5892 100.377 72.3319 100.374 73.1109C99.9781 69.3195 99.3529 65.5335 98.0813 61.8199Z" fill="#ffffff"/>
<path d="M16.6816 42.3582C15.4982 42.7631 14.2062 43.057 13.0135 43.5783C11.8636 44.0808 10.7799 44.7641 9.73583 45.4696C8.93536 46.0105 8.24811 46.7173 7.49486 47.3311C7.3522 47.4473 7.1361 47.4734 6.89978 47.5427C9.3403 44.9092 12.3836 43.2284 15.8901 42.3623C16.1195 42.3056 16.3737 42.3496 16.6816 42.3582Z" fill="#ffffff"/>
<path d="M95.4579 72.9702C95.2415 72.0881 95.037 71.1459 94.8369 70.2028C94.6516 69.3295 94.472 68.4549 94.288 67.5813C94.0827 66.6069 93.889 65.6297 93.664 64.6598C93.5022 63.9623 93.2972 63.2748 93.1449 62.5432C93.829 64.9944 94.5156 67.4766 95.112 69.9803C95.3386 70.9313 95.3579 71.9317 95.4579 72.9702Z" fill="#ffffff"/>
<path d="M24.4387 73.0984C24.4049 72.5809 24.3331 71.9974 24.3809 71.4239C24.4662 70.4018 24.6101 69.3838 24.7563 68.3679C24.8432 67.7644 24.955 67.1617 25.1014 66.57C25.4371 65.2144 25.7895 63.8626 26.1629 62.5169C26.2363 62.2524 26.4348 62.0226 26.629 61.7703C26.0683 64.3709 25.4145 66.9696 24.8586 69.589C24.6194 70.7161 24.583 71.8862 24.4387 73.0984Z" fill="#ffffff"/>
<path d="M28.5923 42.2946C25.2066 42.3486 21.7923 42.3527 18.378 42.3461C18.143 42.3456 17.9083 42.2649 17.64 42.1623C19.4722 42.077 21.3377 42.0403 23.2033 42.0285C24.604 42.0196 26.0051 42.0297 27.4055 42.0599C27.7927 42.0682 28.1777 42.1787 28.5923 42.2946Z" fill="#ffffff"/>
<path d="M38.5835 51.5101C38.3968 51.8453 38.1872 52.2155 37.9264 52.5451C36.7432 54.0404 35.5455 55.5243 34.3033 57.0199C35.4105 54.9828 36.8723 53.1755 38.5835 51.5101Z" fill="#ffffff"/>
<path d="M123.967 59.3319C123.276 59.0354 123.447 58.3167 123.268 57.747C123.076 57.1386 122.894 56.5266 122.693 55.9213C122.348 54.8868 121.992 53.8563 121.645 52.7617C122.871 54.7322 123.45 56.9929 123.967 59.3319Z" fill="#ffffff"/>
<path d="M120.957 51.4069C120.753 51.26 120.541 51.0511 120.303 50.8786C120.12 50.7461 119.904 50.6595 119.668 50.5338C119.703 49.935 119.32 49.3686 118.82 48.9974C118.097 48.4607 117.732 47.685 117.208 46.9638C118.733 48.1574 119.897 49.7076 120.957 51.4069Z" fill="#ffffff"/>
<path d="M55.8402 99.8397C60.2347 99.8372 64.6291 99.8344 69.0236 99.834C69.1451 99.834 69.2667 99.8611 69.4361 99.913C68.7395 99.9631 67.995 99.9757 67.1134 99.9678C63.5522 99.9446 60.1282 99.9443 56.7042 99.935C56.4161 99.9342 56.1282 99.8729 55.8402 99.8397Z" fill="#ffffff"/>
<path d="M55.7737 99.8414C56.1281 99.8729 56.416 99.9342 56.7041 99.935C60.1281 99.9443 63.5521 99.9446 67.0439 99.9611C63.2057 99.9836 59.2998 99.993 55.3939 99.9999C54.9024 100.001 54.411 99.9891 53.8522 99.9672C54.4257 99.9151 55.0665 99.8791 55.7737 99.8414Z" fill="#ffffff"/>
<path d="M47.4702 99.6592C47.6069 99.5299 47.8124 99.3147 48.0029 99.3272C49.5148 99.4269 51.0239 99.5676 52.5333 99.7025C52.744 99.7214 52.9512 99.7779 53.1825 99.8689C51.314 99.8401 49.4231 99.7595 47.4702 99.6592Z" fill="#ffffff"/>
<path d="M29.7845 69.2239C29.8224 70.6606 29.9565 72.1627 29.2899 73.6022C29.4144 72.1715 29.5885 70.7243 29.7845 69.2239Z" fill="#ffffff"/>
<path d="M29.3405 93.816C30.1325 94.479 30.744 95.3191 31.1003 96.3913C30.2288 95.7841 29.6893 94.8921 29.3405 93.816Z" fill="#ffffff"/>
<path d="M41.0643 49.2711C40.9101 49.5737 40.7705 49.9615 40.4993 50.1997C39.9522 50.6804 39.3337 51.0797 38.6891 51.5016C39.4288 50.7567 40.224 50.0226 41.0643 49.2711Z" fill="#ffffff"/>
<path d="M54.018 44.1334C52.9243 44.392 51.7659 44.6332 50.6064 44.8688C50.1044 44.9709 49.6001 45.0616 49.0283 45.1516C50.6241 44.8017 52.2885 44.4578 54.018 44.1334Z" fill="#ffffff"/>
<path d="M5.39359 49.1341C5.58949 49.7391 5.06468 50.0432 4.77682 50.4502C4.33804 51.0705 3.8602 51.6632 3.349 52.2766C3.9828 51.2429 4.66653 50.2001 5.39359 49.1341Z" fill="#ffffff"/>
<path d="M43.359 47.6837C42.8038 48.3615 42.2055 49.058 41.1943 49.2516C41.8609 48.7176 42.5841 48.2041 43.359 47.6837Z" fill="#ffffff"/>
<path d="M48.2516 45.326C48.2764 45.4441 48.2716 45.6377 48.2096 45.6583C47.4525 45.909 46.6871 46.1344 45.8628 46.3635C46.5996 46.0142 47.3975 45.6676 48.2516 45.326Z" fill="#ffffff"/>
<path d="M117.05 46.7409C116.122 46.6203 115.568 45.9161 114.985 45.198C115.666 45.6617 116.348 46.1784 117.05 46.7409Z" fill="#ffffff"/>
<path d="M109.848 83.3137C110.691 83.1957 111.596 83.0919 112.547 83.0254C111.699 83.1511 110.804 83.2395 109.848 83.3137Z" fill="#ffffff"/>
<path d="M12.0762 83.0733C12.9886 83.1092 13.9613 83.1631 14.9538 83.2691C14.0278 83.2445 13.0821 83.168 12.0762 83.0733Z" fill="#ffffff"/>
<path d="M3.2442 52.3535C2.95611 53.0923 2.62966 53.8606 2.24756 54.6303C2.52989 53.8821 2.86787 53.1325 3.2442 52.3535Z" fill="#ffffff"/>
<path d="M6.63743 47.7283C6.68579 48.4916 6.16307 48.8522 5.49023 49.124C5.82107 48.6561 6.20652 48.2007 6.63743 47.7283Z" fill="#ffffff"/>
<path d="M15.6364 83.3703C16.3966 83.3595 17.2207 83.3652 18.0644 83.4243C17.2895 83.4475 16.4949 83.4172 15.6364 83.3703Z" fill="#ffffff"/>
<path d="M94.7769 95.1182C94.5957 94.5548 94.7138 94.0681 95.344 93.7592C95.2034 94.1976 95.011 94.6442 94.7769 95.1182Z" fill="#ffffff"/>
<path d="M30.5948 42.7214C30.0338 42.6564 29.4301 42.5487 28.79 42.4007C29.3532 42.4665 29.9527 42.5726 30.5948 42.7214Z" fill="#ffffff"/>
<path d="M45.7416 46.3662C45.4438 46.5628 45.0935 46.7619 44.6855 46.9593C44.9817 46.7613 45.3354 46.565 45.7416 46.3662Z" fill="#ffffff"/>
<path d="M44.5608 46.9714C44.2478 47.2052 43.8835 47.4452 43.4641 47.6815C43.7758 47.4444 44.1427 47.2109 44.5608 46.9714Z" fill="#ffffff"/>
<path d="M82.1096 48.1563C81.7636 48.2464 81.3755 48.3264 81.3307 47.7261C81.5906 47.8279 81.8362 47.9732 82.1096 48.1563Z" fill="#ffffff"/>
<path d="M121.412 52.2001C121.263 52.0288 121.102 51.808 120.963 51.5299C121.124 51.6987 121.261 51.9246 121.412 52.2001Z" fill="#ffffff"/>
<path d="M114.969 45.1108C114.843 45.0877 114.693 45.0238 114.538 44.9054C114.671 44.924 114.808 44.997 114.969 45.1108Z" fill="#ffffff"/>
<path d="M100.423 74.1393C100.444 74.1718 100.448 74.2322 100.451 74.3229C100.435 74.2912 100.42 74.2292 100.423 74.1393Z" fill="#ffffff"/>
<path d="M100.359 73.6502C100.394 73.6571 100.422 73.7031 100.42 73.7537C100.378 73.7353 100.365 73.7123 100.359 73.6502Z" fill="#ffffff"/>
<path d="M82.3944 48.3497C82.3287 48.3599 82.2455 48.3339 82.1609 48.2606C82.2319 48.2467 82.3043 48.2801 82.3944 48.3497Z" fill="#ffffff"/>
<path d="M48.4051 45.2912C48.4181 45.3056 48.3688 45.3422 48.3545 45.3338C48.3426 45.2934 48.3599 45.2772 48.4051 45.2912Z" fill="#ffffff"/>
<path d="M48.86 45.1547C48.861 45.1834 48.8243 45.2073 48.7721 45.2094C48.7784 45.175 48.8004 45.1625 48.86 45.1547Z" fill="#ffffff"/>
<path d="M29.2817 93.6447C29.3326 93.6345 29.3529 93.663 29.3492 93.7308C29.3024 93.7421 29.2777 93.7132 29.2817 93.6447Z" fill="#ffffff"/>
<path d="M95.43 93.7291C95.3906 93.7128 95.3904 93.6844 95.4246 93.6422C95.4747 93.6547 95.4781 93.6843 95.43 93.7291Z" fill="#ffffff"/>
<path d="M30.7874 42.785C30.7778 42.8112 30.7343 42.8155 30.6818 42.7912C30.6997 42.7627 30.7266 42.763 30.7874 42.785Z" fill="#ffffff"/>
</svg>
