<svg width="89" height="100" viewBox="0 0 89 100" fill="none" xmlns="http://www.w3.org/2000/svg">
<path d="M87.8172 12.924C87.8591 12.9327 87.8821 12.9584 87.8553 13.0556C87.8718 13.1928 87.9192 13.2754 87.9665 13.358C87.9665 13.358 87.9599 13.3736 87.9391 13.4149C87.9555 13.5924 87.9928 13.7286 88.0301 13.8649C88.0301 13.8649 88.0211 13.864 88.0206 13.914C88.0579 14.6381 88.1288 15.3122 88.1289 15.9863C88.1346 41.6032 88.1341 67.2202 88.1302 92.8372C88.1301 93.1043 88.0542 93.371 88.0499 93.6385C88.0454 93.9213 88.0841 94.2048 88.1074 94.5319C88.0456 94.6858 87.9372 94.79 87.9217 94.9066C87.7411 96.2693 86.9409 97.2537 85.9749 98.1407C85.1278 98.9185 84.0883 99.3056 83.0055 99.6053C82.9178 99.6075 82.8301 99.6098 82.6707 99.6179C82.5814 99.6331 82.5637 99.6424 82.546 99.6518C82.5261 99.6467 82.5062 99.6417 82.423 99.591C82.1683 99.5293 81.9768 99.4995 81.7854 99.4995C56.842 99.4972 31.8986 99.4969 6.95526 99.5014C6.75204 99.5014 6.54883 99.5679 6.34562 99.6034C6.34562 99.6034 6.36986 99.6278 6.32016 99.6237C5.60984 99.4482 4.94923 99.2768 4.28862 99.1054C4.28862 99.1054 4.25169 99.1133 4.25289 99.0859C4.2146 99.0515 4.1751 99.0446 4.1356 99.0377C4.1356 99.0377 4.11437 99.0081 4.0757 98.9801C3.99212 98.9405 3.94722 98.929 3.90231 98.9174C3.88983 98.9013 3.87734 98.8852 3.80967 98.8325C2.31557 97.903 1.27605 96.7033 0.86237 94.9755C0.828832 94.3574 0.760484 93.7893 0.760306 93.2211C0.75479 75.6453 0.755947 58.0694 0.756064 40.4936C0.756078 38.6118 0.761973 36.73 0.747252 34.8484C0.745693 34.6492 0.622936 34.451 0.546352 34.1996C0.543035 33.717 0.54977 33.2872 0.587447 32.8509C0.597755 32.7701 0.577121 32.6958 0.546423 32.579C0.5404 32.4495 0.544443 32.3626 0.577057 32.2367C0.58672 31.1737 0.567814 30.1496 0.542236 29.0715C0.542489 28.3558 0.549415 27.6941 0.599525 27.0175C0.680371 26.9 0.750991 26.7973 0.75095 26.6946C0.749275 22.5087 0.741236 18.3228 0.710832 14.0965C0.913435 12.5756 1.6582 11.3665 2.65578 10.2894C2.65578 10.2894 2.61967 10.2617 2.67414 10.2643C3.66164 9.36363 4.81506 8.878 6.03639 8.52104C6.08061 8.5212 6.12483 8.52136 6.25088 8.51378C8.74984 8.50604 11.167 8.50604 13.6501 8.50604C13.6501 8.85645 13.65 9.24044 13.6501 9.62443C13.6508 11.9906 13.6103 14.3576 13.6637 16.7226C13.7192 19.1881 14.9587 20.9772 17.1706 21.9708C19.384 22.9651 21.5771 22.786 23.6039 21.3538C24.9133 20.4593 25.6737 19.2042 26.0813 17.6231C26.1851 17.2362 26.2603 16.9027 26.2617 16.5689C26.272 14.1241 26.2667 11.6792 26.2688 9.23434C26.269 8.92393 26.209 8.61818 26.7427 8.68561C27.385 8.76677 28.0428 8.73529 28.6939 8.73555C35.1941 8.73807 41.6943 8.75082 48.1945 8.73205C52.2643 8.72031 56.334 8.65686 60.4039 8.62522C60.8052 8.62211 61.215 8.74359 61.6068 8.69494C62.3596 8.6015 62.3611 8.59699 62.3938 9.37892C62.5165 12.3094 62.0963 15.2557 62.6337 18.1717C62.7224 18.6528 62.579 19.3141 63.3336 19.4532C63.3614 19.4857 63.3893 19.5182 63.422 19.6246C63.5467 19.8507 63.6664 20.0029 63.7861 20.1551C63.7861 20.1551 63.7852 20.1567 63.7851 20.2002C63.8795 20.5533 63.9463 20.892 64.3973 20.8283C64.3973 20.8283 64.3707 20.8522 64.3806 20.8812C64.474 20.9549 64.5575 20.9996 64.641 21.0443C64.641 21.0443 64.6119 21.0743 64.6206 21.1042C64.7397 21.1953 64.8501 21.2567 64.9605 21.318C66.7858 22.5519 68.7603 22.9062 70.8704 22.2419C71.4516 22.059 71.9817 21.7138 72.614 21.433C72.7286 21.3677 72.7645 21.3126 72.8005 21.2575C72.8005 21.2575 72.8141 21.2573 72.8639 21.2732C73.3356 21.3931 73.3596 21.1409 73.3215 20.8333C73.3215 20.8333 73.3294 20.8484 73.3672 20.8483C74.0117 20.6566 74.3811 20.1275 74.3821 19.4488C74.3821 19.4488 74.3866 19.4558 74.411 19.4385C74.4439 19.3795 74.4524 19.3378 74.4609 19.2961C74.4609 19.2961 74.4608 19.3233 74.5002 19.319C74.9498 18.899 75.3119 18.4688 74.9826 17.7977C74.9971 17.7036 75.018 17.6427 75.0817 17.5719C75.1769 17.4877 75.2755 17.4127 75.2742 17.3394C75.2588 16.4521 75.2112 15.5652 75.2061 14.6779C75.1953 12.829 75.1997 10.9799 75.211 9.13101C75.213 8.81138 75.3159 8.58756 75.7452 8.6521C76.2499 8.72797 76.7685 8.74208 77.2802 8.73296C78.3213 8.71441 79.364 8.60235 80.402 8.63976C81.5897 8.68257 82.773 8.8459 83.9582 8.95686C83.9582 8.95686 83.9479 8.96663 83.9624 9.00077C84.2081 9.1212 84.4393 9.2075 84.6705 9.2938C84.6705 9.2938 84.6554 9.29919 84.6689 9.32873C84.7541 9.37829 84.8258 9.3983 84.8975 9.4183C84.8975 9.4183 84.885 9.42655 84.8854 9.46405C84.9811 9.8899 85.2718 9.92494 85.5982 9.8955C86.5311 10.5198 87.1492 11.4015 87.6093 12.4495C87.313 12.8452 87.548 12.8943 87.8172 12.924ZM8.89058 33.4629C8.41685 33.2743 7.94643 33.1359 7.40388 33.5542C6.74185 33.5545 6.07982 33.5548 5.36602 33.4932C4.68037 33.5415 4.51445 33.8619 4.828 34.4479C4.92932 34.6373 4.94473 34.8897 4.94531 35.1134C4.95267 37.9355 4.95753 40.7576 4.9488 43.5798C4.91312 55.1169 4.86883 66.654 4.83935 78.1912C4.83634 79.3695 4.93925 80.5478 4.94481 81.7263C4.96022 84.9947 4.94589 88.2633 4.96017 91.5317C4.96108 91.7405 5.10565 91.9487 5.18958 92.2282C5.2301 92.2818 5.27062 92.3354 5.34553 92.4354C5.35275 92.4753 5.3725 92.5075 5.39655 92.6219C5.65039 94.0067 6.56697 94.7255 8.08402 94.7254C27.0077 94.725 45.9313 94.7242 64.8549 94.7235C70.2118 94.7233 75.5686 94.7234 80.9254 94.722C82.0322 94.7218 82.8872 94.1668 83.3222 93.166C83.3789 92.7462 83.4836 92.3265 83.4847 91.9065C83.4954 87.6931 83.4879 83.4796 83.4879 79.2661C83.4875 64.315 83.4888 49.364 83.4827 34.4129C83.4826 34.1594 83.3977 33.906 83.2977 33.5907C82.9053 33.5786 82.5129 33.5559 82.1205 33.5559C57.7177 33.5541 33.3148 33.5542 8.89058 33.4629Z" fill="#ffffff"/>
<path d="M21.0286 0.696346C21.0286 0.696346 21.0577 0.724068 21.0882 0.745083C21.1187 0.766099 21.1459 0.811065 21.1605 0.848326C21.5644 1.13095 21.9538 1.37632 22.3677 1.62633C22.4244 1.64993 22.4393 1.67805 22.4339 1.76156C22.4822 1.97169 22.5371 2.13457 22.584 2.29972C22.7284 2.80817 22.9102 3.31055 22.9991 3.82874C23.0653 4.2146 23.0086 4.62135 23.0088 5.0188C23.0103 9.13732 23.0121 13.2558 23.0113 17.4114C22.9993 17.497 22.99 17.5454 22.9597 17.613C22.9154 17.6654 22.9084 17.7017 22.9151 17.7335C22.9125 17.7258 22.9258 17.7352 22.8833 17.7312C22.6163 18.0895 22.0548 18.2434 22.1602 18.8246C22.1515 18.8345 22.1302 18.8499 22.0903 18.8278C21.9943 18.8822 21.9383 18.9587 21.8742 19.0165C21.8662 18.9978 21.8808 19.0348 21.839 19.0191C21.3871 18.8044 21.2867 19.0312 21.2464 19.4122C19.5987 20.0386 18.2364 19.6282 17.0824 18.3951C17.0824 18.3951 17.0675 18.4092 17.0651 18.3635C16.9163 17.9961 16.7699 17.6742 16.6522 17.3188C16.6545 16.8654 16.6059 16.4457 16.6053 16.026C16.5994 12.073 16.6032 8.12011 16.5975 4.16719C16.5971 3.94329 16.5374 3.71948 16.5 3.4502C16.7215 1.89981 17.6735 1.0529 19.0487 0.589867C19.1009 0.591085 19.1531 0.592302 19.2962 0.582245C19.9343 0.612762 20.4814 0.654555 21.0286 0.696346Z" fill="#ffffff"/>
<path d="M72.0106 2.65131C72.0278 2.68681 72.0449 2.7223 72.0558 2.84054C72.0148 7.85441 71.9801 12.7855 71.9453 17.7167C71.9453 17.7167 71.9398 17.7123 71.9164 17.7301C71.8895 17.7877 71.886 17.8275 71.8825 17.8674C71.8825 17.8674 71.8675 17.8638 71.8296 17.8681C71.5629 18.0026 71.3341 18.1328 71.0876 18.273C71.0796 18.5645 70.4149 19.2675 69.9284 19.334C69.198 19.4337 68.4552 19.4422 67.7177 19.4895C67.7177 19.4895 67.731 19.4808 67.7142 19.4509C67.6236 19.4128 67.5498 19.4047 67.4761 19.3965C67.4761 19.3965 67.4733 19.3876 67.4795 19.3445C67.3534 19.0019 66.2851 18.1815 65.9476 18.1202C65.9476 18.1202 65.9444 18.1082 65.9573 18.0624C65.9004 17.9147 65.8305 17.8128 65.7606 17.711C65.7606 17.711 65.7339 17.6893 65.7441 17.6171C65.7186 17.1818 65.6524 16.8186 65.6518 16.4554C65.6445 12.3286 65.6687 8.20158 65.6361 4.075C65.6237 2.50786 66.513 1.54114 67.742 0.920211C68.7759 0.39789 69.8596 0.653568 70.7471 1.46152C71.1748 1.85091 71.5898 2.25427 72.0106 2.65131Z" fill="#ffffff"/>
<path d="M0.556319 27.0324C0.549395 27.6941 0.542469 28.3558 0.531296 29.1254C0.534188 30.2474 0.541328 31.2615 0.548467 32.2756C0.544423 32.3626 0.54038 32.4495 0.537198 32.6179C0.5442 32.7521 0.550342 32.8047 0.556486 32.8574C0.54975 33.2872 0.543015 33.717 0.536917 34.2536C0.537362 47.2428 0.535652 60.1252 0.5376 73.0075C0.538619 79.7395 0.546071 86.4714 0.538844 93.2452C0.540298 93.4005 0.553526 93.514 0.569122 93.6748C0.667434 94.1566 0.763378 94.591 0.859319 95.0254C1.27603 96.7033 2.31555 97.903 3.78072 98.8225C3.67809 98.9015 3.49826 99.0359 3.42879 98.9927C3.04394 98.7536 2.64867 98.5089 2.3295 98.1928C2.02708 97.8933 1.82157 97.4977 1.55699 97.1572C1.48139 97.0599 1.338 97.0184 1.24447 96.9311C1.11485 96.8102 0.936547 96.6879 0.896056 96.5351C0.778239 96.0907 0.730556 95.6282 0.629092 95.1787C0.597713 95.0397 0.482825 94.9193 0.404856 94.7911C0.329256 94.6669 0.188939 94.5457 0.184925 94.4197C0.129357 92.6759 -0.122584 90.9328 0.259317 89.1876C0.353885 88.7555 0.190254 88.2712 0.17567 87.81C0.128578 86.3207 -0.0606586 84.8119 0.117791 83.3487C0.219453 82.5152 0.0490357 81.7561 0.0540968 80.9632C0.0643809 79.3523 0.035237 77.7407 0.0674173 76.1304C0.0814364 75.4288 0.256562 74.7303 0.268143 74.0289C0.281818 73.2007 0.165508 72.371 0.16361 71.5418C0.160838 70.3313 0.231263 69.1207 0.228136 67.9102C0.226438 67.2529 0.137381 66.5958 0.0866611 65.9386C0.0837065 65.9004 0.0640911 65.8629 0.0640485 65.825C0.0628129 64.7381 -0.109043 63.614 0.11543 62.5757C0.308789 61.6812 0.372746 60.7958 0.259273 59.9525C-0.194918 56.5771 0.141449 53.1963 0.0789173 49.8205C0.0397719 47.7071 0.382499 45.5779 0.235538 43.4781C0.121229 41.8448 -0.0652666 40.2015 0.0895979 38.5905C0.528048 34.0295 0.362683 29.4595 0.215821 24.9102C0.112399 21.7066 0.16578 18.5048 0.0698936 15.304C0.0621818 15.0465 0.233684 14.7837 0.400425 14.542C0.27996 14.2374 -0.109374 13.8981 0.525929 13.6049C0.552559 13.5926 0.553039 13.5001 0.548149 13.4466C0.458225 12.4622 1.08475 11.7939 1.61956 11.1036C1.87307 10.7763 1.97515 10.2289 2.61128 10.2796C1.65818 11.3664 0.913416 12.5756 0.673357 14.1319C0.618689 14.4746 0.543265 14.7412 0.543169 15.0079C0.541719 19.016 0.550184 23.0242 0.556319 27.0324Z" fill="transparent"/>
<path d="M88.1185 13.8721C88.4799 13.734 88.458 14.0379 88.4747 14.2178C88.5329 14.8429 88.5955 15.4709 88.5956 16.0978C88.6013 41.8365 88.6011 67.5752 88.5897 93.3139C88.5896 93.5455 88.4289 93.7769 88.2865 93.9612C88.2405 93.6233 88.2605 93.3326 88.2605 93.0419C88.2621 67.5916 88.2636 42.1413 88.2561 16.691C88.2558 15.7514 88.1664 14.8117 88.1185 13.8721Z" fill="transparent"/>
<path d="M63.3301 19.4096C62.579 19.3141 62.7224 18.6528 62.6337 18.1717C62.0963 15.2557 62.5165 12.3094 62.3938 9.37895C62.3611 8.59702 62.3596 8.60153 61.6068 8.69497C61.215 8.74362 60.8052 8.62213 60.4039 8.62525C56.334 8.65688 52.2643 8.72033 48.1945 8.73208C41.6943 8.75085 35.1941 8.7381 28.6939 8.73557C28.0428 8.73532 27.385 8.76679 26.7427 8.68564C26.209 8.61821 26.269 8.92395 26.2687 9.23436C26.2667 11.6792 26.272 14.1241 26.2617 16.5689C26.2603 16.9027 26.185 17.2362 26.0993 17.5819C26.0546 14.5532 26.0546 11.5124 26.0546 8.4342C38.2842 8.4342 50.4155 8.4342 62.6238 8.4342C62.6238 8.65895 62.6237 8.86433 62.6238 9.06972C62.625 11.4752 62.6371 13.8807 62.6227 16.2861C62.6161 17.3738 62.8102 18.4037 63.3301 19.4096Z" fill="#ffffff"/>
<path d="M23.5833 21.3198C21.5771 22.786 19.384 22.9651 17.1706 21.9708C14.9587 20.9772 13.7192 19.1881 13.6637 16.7226C13.6103 14.3576 13.6508 11.9906 13.6501 9.62443C13.65 9.24044 13.6501 8.85645 13.6501 8.50605C11.167 8.50605 8.74983 8.50605 6.2821 8.50133C6.38401 8.36241 6.536 8.1124 6.68909 8.11173C8.37425 8.10437 10.0596 8.13661 11.7449 8.15612C12.1135 8.16038 12.4823 8.15682 12.851 8.15679C13.7544 8.15672 13.9159 8.30923 13.9191 9.23099C13.9257 11.1328 13.9091 13.0347 13.9264 14.9364C13.9343 15.805 13.9618 16.6772 14.0558 17.5395C14.0998 17.9426 14.3624 18.3168 14.457 18.7203C14.7407 19.9296 15.671 20.6311 16.5565 21.3239C17.0005 21.6713 17.6201 21.8667 18.1891 21.9662C19.2362 22.1495 20.3055 22.4131 21.3685 22.1171C21.7753 22.0039 22.1138 21.6603 22.5171 21.5155C22.8459 21.3974 23.1387 20.9952 23.5833 21.3198Z" fill="transparent"/>
<path d="M88.0946 13.8689C88.1665 14.8118 88.2559 15.7514 88.2562 16.691C88.2637 42.1413 88.2622 67.5916 88.2607 93.0419C88.2606 93.3326 88.2406 93.6233 88.2409 93.9677C88.2519 94.0212 88.2275 94.0655 88.2079 94.1204C88.1602 94.2795 88.1321 94.3837 88.1041 94.4879C88.0842 94.2048 88.0454 93.9213 88.05 93.6385C88.0543 93.371 88.1302 93.1043 88.1302 92.8372C88.1341 67.2202 88.1347 41.6032 88.129 15.9863C88.1288 15.3122 88.058 14.6381 88.0216 13.9096C88.0231 13.8552 88.0705 13.8657 88.0946 13.8689Z" fill="#ffffff"/>
<path d="M22.4368 1.71532C22.4393 1.67802 22.4244 1.6499 22.3513 1.58907C21.9222 1.3018 21.5341 1.05642 21.1459 0.811038C21.1459 0.811038 21.1187 0.766071 21.1081 0.742037C22.2425 0.666375 23.1027 1.71938 23.3703 2.77142C23.6085 3.70785 23.4896 4.61141 23.6119 5.52083C23.6695 5.94865 23.5929 6.39331 23.5924 6.83035C23.5894 9.31243 23.591 11.7945 23.591 14.2766C23.591 15.1974 23.6067 16.1187 23.5784 17.0386C23.5724 17.2348 23.4098 17.4279 23.3124 17.6189C23.2357 17.7695 23.1608 17.9236 23.0631 18.0605C22.7924 18.4403 22.5461 18.8469 22.223 19.1773C21.873 19.5352 21.4474 19.8191 21.0857 20.1103C20.9515 20.1016 20.7907 20.0997 20.6323 20.0793C20.2206 20.0261 19.8012 19.8831 19.4009 19.9259C18.8147 19.9886 18.3996 19.633 17.9027 19.4856C17.5938 19.3939 17.2664 19.3642 16.9215 19.302C17.0377 19.0996 16.583 18.7224 17.064 18.4284C18.2363 19.6281 19.5987 20.0386 21.2858 19.405C21.5306 19.2568 21.7057 19.1458 21.8807 19.0348C21.8807 19.0348 21.8662 18.9978 21.9044 19.0067C22.0051 18.9604 22.0677 18.9051 22.1302 18.8499C22.1302 18.8499 22.1515 18.8345 22.1898 18.8037C22.4607 18.4271 22.6932 18.0811 22.9258 17.7351C22.9258 17.7351 22.9124 17.7258 22.9416 17.7182C22.974 17.6716 22.9774 17.6327 22.9807 17.5938C22.99 17.5454 22.9993 17.4969 23.0522 17.3891C23.1493 17.0479 23.2487 16.7662 23.2493 16.4842C23.259 12.2212 23.2608 7.95817 23.2505 3.69518C23.2487 2.93708 22.9931 2.2581 22.4368 1.71532Z" fill="transparent"/>
<path d="M6.39526 99.6228C6.54881 99.5679 6.75202 99.5014 6.95524 99.5014C31.8986 99.4969 56.842 99.4972 81.7854 99.4995C81.9768 99.4995 82.1683 99.5293 82.3942 99.5801C81.9581 99.6311 81.4876 99.6474 80.9137 99.6622C72.8212 99.6572 64.8322 99.6535 56.8431 99.6521C56.7095 99.652 56.5758 99.6807 56.4422 99.696C56.243 99.6852 56.0438 99.6745 55.7451 99.6623C55.0568 99.6727 54.4681 99.6847 53.8793 99.6966C53.6036 99.6856 53.3278 99.6747 52.9506 99.6622C46.3522 99.6588 39.8552 99.6565 33.3583 99.6566C33.2444 99.6566 33.1305 99.6836 33.0166 99.698C32.6268 99.6868 32.237 99.6755 31.7466 99.6624C29.7756 99.6727 27.9051 99.6849 26.0346 99.697C25.7973 99.6861 25.56 99.6752 25.2219 99.6624C20.3944 99.6574 15.6676 99.6539 10.9407 99.6526C10.8457 99.6526 10.7508 99.6776 10.6558 99.6909C10.6048 99.6806 10.5538 99.6704 10.4137 99.6582C9.34717 99.6681 8.36972 99.6801 7.39228 99.6921C7.07649 99.6755 6.76071 99.6588 6.39526 99.6228Z" fill="#ffffff"/>
<path d="M19.0481 0.543889C17.6735 1.05289 16.7214 1.8998 16.4856 3.50345C16.4738 7.86617 16.4678 12.1302 16.4752 16.3942C16.4758 16.7137 16.5718 17.033 16.6235 17.3524C16.7699 17.6742 16.9163 17.996 17.0733 18.3573C16.8969 18.2625 16.6883 18.1494 16.5292 17.9878C16.3765 17.8327 16.2749 17.6272 16.1361 17.4219C16.1361 17.1119 16.1361 16.7349 16.1361 16.3579C16.1359 12.8438 16.1358 9.32962 16.1356 5.81549C16.1356 4.81167 16.1356 3.80785 16.1356 2.88394C16.3663 2.50642 16.594 2.16123 16.7939 1.80068C17.1444 1.16862 17.7014 0.833715 18.4131 0.617698C18.4389 0.47395 18.4719 0.290063 18.505 0.106175C18.5534 0.0707835 18.6018 0.0353918 18.6503 0C18.7827 0.165973 18.9152 0.331946 19.0481 0.543889Z" fill="transparent"/>
<path d="M56.4596 99.7321C56.5759 99.6807 56.7095 99.652 56.8431 99.6521C64.8322 99.6535 72.8213 99.6572 80.8625 99.6787C80.4362 99.7852 79.9595 99.935 79.4792 99.9478C78.787 99.9661 78.0921 99.8522 77.3985 99.8544C76.5883 99.8569 75.778 99.9607 74.9681 99.9563C70.1405 99.9298 65.3131 99.8761 60.4855 99.8524C59.3845 99.847 58.2832 99.9359 57.1816 99.9524C56.9477 99.956 56.7119 99.833 56.4596 99.7321Z" fill="transparent"/>
<path d="M75.0387 17.5819C75.0179 17.6427 74.997 17.7036 74.9648 17.8348C74.8844 18.0807 74.8156 18.2562 74.7467 18.4318C74.6875 18.3038 74.5777 18.176 74.5775 18.0479C74.5767 17.3714 74.597 16.6945 74.6221 16.0182C74.6542 15.151 74.7326 14.2841 74.7282 13.4174C74.722 12.1629 74.65 10.9088 74.626 9.65412C74.6176 9.21814 74.6685 8.78102 74.6965 8.26833C75.2178 8.23169 75.7506 8.16635 76.2838 8.16192C77.9693 8.14794 79.6553 8.14049 81.3404 8.16909C81.7227 8.17558 82.1023 8.33771 82.4622 8.4614C80.1444 8.47202 77.8476 8.44943 75.513 8.41485C75.4236 8.41114 75.372 8.41941 75.2721 8.42441C75.1801 8.61056 75.0997 8.79966 75.098 8.98947C75.0722 11.8536 75.0567 14.7177 75.0387 17.5819Z" fill="transparent"/>
<path d="M71.9998 2.60987C71.5897 2.25425 71.1747 1.85089 70.747 1.4615C69.8594 0.653547 68.7757 0.397869 67.7419 0.92019C66.5129 1.54112 65.6236 2.50784 65.636 4.07498C65.6686 8.20156 65.6443 12.3286 65.6516 16.4554C65.6523 16.8186 65.7185 17.1817 65.7479 17.6003C65.6358 17.1939 65.441 16.7326 65.4382 16.2702C65.4142 12.2184 65.424 8.16634 65.4246 4.11437C65.4248 2.36858 66.4328 1.00267 68.0012 0.620068C69.6554 0.216529 71.166 0.954572 71.9998 2.60987Z" fill="#ffffff"/>
<path d="M33.0476 99.7378C33.1305 99.6836 33.2444 99.6566 33.3583 99.6566C39.8552 99.6565 46.3522 99.6588 52.9013 99.6786C52.07 99.7695 51.1875 99.8867 50.3029 99.9049C49.0468 99.9307 47.7891 99.8839 46.5321 99.8676C46.0374 99.8612 45.5427 99.8481 45.0481 99.8469C43.8363 99.8439 42.6245 99.846 41.4128 99.846C38.7658 99.846 36.1187 99.8469 33.4717 99.8429C33.3406 99.8427 33.2096 99.8004 33.0476 99.7378Z" fill="transparent"/>
<path d="M14.9696 7.92387C15.0417 6.7768 14.8128 5.66469 15.1357 4.49466C15.5398 4.99659 15.5353 15.2931 15.1167 15.7928C15.0568 15.4324 14.9765 15.1697 14.9753 14.9065C14.9654 12.5984 14.9696 10.2903 14.9696 7.92387Z" fill="transparent"/>
<path d="M10.6722 99.7275C10.7508 99.6776 10.8457 99.6526 10.9407 99.6526C15.6675 99.6539 20.3944 99.6574 25.1733 99.6787C25.0831 99.7839 24.9407 99.946 24.7985 99.9458C23.8713 99.9445 22.9442 99.9045 22.0169 99.8841C21.2916 99.8682 20.566 99.8557 19.8405 99.8534C18.3377 99.8485 16.8347 99.8394 15.3321 99.8551C14.1923 99.867 13.053 99.9333 11.9134 99.9365C11.5053 99.9377 11.0969 99.825 10.6722 99.7275Z" fill="transparent"/>
<path d="M75.5509 8.42682C77.8477 8.44941 80.1444 8.472 82.4924 8.49043C82.9965 8.62219 83.4493 8.75811 83.9302 8.92543C82.773 8.84588 81.5897 8.68255 80.402 8.63975C79.364 8.60234 78.3213 8.71439 77.2802 8.73294C76.7685 8.74206 76.2499 8.72795 75.7452 8.65208C75.3159 8.58754 75.213 8.81136 75.211 9.13099C75.1997 10.9799 75.1953 12.829 75.2061 14.6779C75.2112 15.5651 75.2588 16.4521 75.2742 17.3394C75.2755 17.4127 75.1769 17.4877 75.0817 17.5718C75.0568 14.7177 75.0723 11.8535 75.0981 8.98945C75.0998 8.79964 75.1802 8.61054 75.2898 8.44678C75.4208 8.45724 75.4858 8.44203 75.5509 8.42682Z" fill="#ffffff"/>
<path d="M71.9785 17.6894C71.9801 12.7855 72.0148 7.85439 72.0516 2.87042C72.128 3.19161 72.2654 3.56537 72.2669 3.93969C72.2835 8.0619 72.2872 12.1842 72.2682 16.3064C72.2661 16.7587 72.1011 17.2103 71.9785 17.6894Z" fill="#ffffff"/>
<path d="M88.1075 94.5319C88.1322 94.3837 88.1602 94.2795 88.2149 94.1447C88.5324 95.191 88.0663 96.055 87.4535 96.8708C87.0964 97.3463 86.7299 97.8162 86.3416 98.2662C86.1974 98.4334 85.9797 98.5377 85.7943 98.6688C85.4777 98.8926 85.1602 99.115 84.9113 99.4263C84.2941 99.507 83.677 99.5877 83.0327 99.6368C84.0884 99.3056 85.1279 98.9185 85.975 98.1407C86.941 97.2537 87.7412 96.2693 87.9218 94.9066C87.9373 94.7901 88.0457 94.6858 88.1075 94.5319Z" fill="transparent"/>
<path d="M26.0563 99.7343C27.9051 99.6849 29.7756 99.6727 31.6982 99.6786C31.4615 100.204 30.9842 99.9205 30.5968 99.9462C29.9326 99.9902 29.2624 99.9816 28.5966 99.9519C27.756 99.9144 26.9174 99.8337 26.0563 99.7343Z" fill="transparent"/>
<path d="M5.99343 8.51133C4.81506 8.87801 3.66164 9.36364 2.69128 10.2793C2.70486 9.53658 3.34547 9.29319 3.85861 8.98566C4.31174 8.71411 4.83098 8.53904 5.3397 8.38173C5.51424 8.32776 5.74525 8.4564 5.99343 8.51133Z" fill="transparent"/>
<path d="M67.7507 19.521C68.4552 19.4422 69.198 19.4337 69.9283 19.3339C70.4149 19.2675 71.0795 18.5645 71.0876 18.273C71.334 18.1328 71.5629 18.0026 71.8343 17.8742C71.1742 19.3615 69.5478 20.0276 67.7507 19.521Z" fill="#ffffff"/>
<path d="M7.39783 99.7354C8.36979 99.6801 9.34723 99.6681 10.377 99.6735C10.2301 99.7806 10.0339 99.9389 9.83116 99.9478C9.10624 99.9795 8.37901 99.9665 7.65298 99.9527C7.56869 99.9511 7.48648 99.8394 7.39783 99.7354Z" fill="transparent"/>
<path d="M21.0464 0.669076C20.4813 0.654554 19.9342 0.612761 19.3333 0.569081C19.2943 0.511888 19.2911 0.437834 19.3265 0.404174C19.6889 0.0589948 20.851 0.131039 21.1627 0.518276C21.1699 0.527236 21.0989 0.599221 21.0464 0.669076Z" fill="transparent"/>
<path d="M4.27856 99.1524C4.94919 99.2769 5.60981 99.4482 6.31532 99.6402C6.14634 99.7509 5.91111 99.9478 5.72283 99.9101C5.25527 99.8165 4.80651 99.6226 4.35783 99.4493C4.30392 99.4284 4.29716 99.2856 4.27856 99.1524Z" fill="transparent"/>
<path d="M65.9615 18.1562C66.285 18.1815 67.3533 19.0019 67.4748 19.345C66.9678 18.9898 66.4717 18.591 65.9615 18.1562Z" fill="#ffffff"/>
<path d="M74.348 19.4699C74.381 20.1275 74.0117 20.6565 73.3604 20.8432C73.6484 20.3892 73.9812 19.9401 74.348 19.4699Z" fill="#ffffff"/>
<path d="M53.9009 99.7339C54.4681 99.6847 55.0568 99.6728 55.6975 99.6787C55.1405 99.7215 54.5315 99.7464 53.9009 99.7339Z" fill="transparent"/>
<path d="M74.7461 18.4738C74.8156 18.2563 74.8845 18.0807 74.9711 17.8681C75.3119 18.4688 74.9498 18.899 74.4963 19.3059C74.5506 19.0367 74.648 18.7763 74.7461 18.4738Z" fill="#ffffff"/>
<path d="M64.3841 20.7923C63.9463 20.892 63.8795 20.5533 63.7859 20.1999C63.9815 20.3562 64.1763 20.5563 64.3841 20.7923Z" fill="#ffffff"/>
<path d="M85.5814 9.85936C85.2718 9.92496 84.9811 9.88992 84.8879 9.45703C85.115 9.5494 85.3398 9.6863 85.5814 9.85936Z" fill="#ffffff"/>
<path d="M73.2862 20.8446C73.3596 21.1409 73.3357 21.3931 72.8667 21.267C72.9634 21.1152 73.1071 20.9856 73.2862 20.8446Z" fill="#ffffff"/>
<path d="M84.6474 9.26087C84.4393 9.20748 84.2081 9.12119 83.9642 8.9939C84.1758 9.04459 84.4 9.13627 84.6474 9.26087Z" fill="#ffffff"/>
<path d="M87.8125 12.8832C87.548 12.8943 87.313 12.8452 87.6131 12.4896C87.6992 12.5938 87.7536 12.7181 87.8125 12.8832Z" fill="#ffffff"/>
<path d="M63.7808 20.118C63.6664 20.0029 63.5466 19.8507 63.4264 19.6569C63.5424 19.7705 63.6589 19.9257 63.7808 20.118Z" fill="#ffffff"/>
<path d="M65.7581 17.7479C65.8304 17.8128 65.9003 17.9147 65.9524 18.0585C65.8749 17.9953 65.8152 17.89 65.7581 17.7479Z" fill="#ffffff"/>
<path d="M64.9458 21.2855C64.85 21.2567 64.7397 21.1953 64.6368 21.091C64.74 21.1164 64.8355 21.1847 64.9458 21.2855Z" fill="#ffffff"/>
<path d="M88.0264 13.8211C87.9929 13.7286 87.9556 13.5923 87.9316 13.4109C87.9709 13.503 87.9968 13.6402 88.0264 13.8211Z" fill="#ffffff"/>
<path d="M64.6276 21.0128C64.5574 20.9996 64.4739 20.9549 64.3926 20.868C64.4679 20.8776 64.541 20.9295 64.6276 21.0128Z" fill="#ffffff"/>
<path d="M87.9639 13.3181C87.9191 13.2754 87.8718 13.1928 87.8491 13.0824C87.903 13.1291 87.9321 13.2036 87.9639 13.3181Z" fill="#ffffff"/>
<path d="M84.8775 9.38865C84.8258 9.39831 84.7541 9.3783 84.6704 9.32085C84.7248 9.3086 84.7911 9.33379 84.8775 9.38865Z" fill="#ffffff"/>
<path d="M67.4995 19.4225C67.5497 19.4047 67.6234 19.4128 67.7115 19.4584C67.6583 19.4801 67.5907 19.4643 67.4995 19.4225Z" fill="#ffffff"/>
<path d="M72.7711 21.2716C72.7646 21.3126 72.7286 21.3677 72.6526 21.4221C72.6556 21.3762 72.6987 21.331 72.7711 21.2716Z" fill="#ffffff"/>
<path d="M21.8135 21.5964C21.8425 21.5982 21.8584 21.6137 21.8742 21.6292C21.8495 21.6229 21.8249 21.6166 21.8135 21.5964Z" fill="transparent"/>
<path d="M3.92371 98.9454C3.94719 98.929 3.99209 98.9405 4.05747 98.981C4.03367 98.9978 3.9894 98.9855 3.92371 98.9454Z" fill="transparent"/>
<path d="M4.15369 99.0627C4.175 99.0446 4.2145 99.0515 4.27151 99.0837C4.24997 99.1019 4.21092 99.0948 4.15369 99.0627Z" fill="transparent"/>
<path d="M18.5289 20.2114C18.5327 20.2178 18.5251 20.2051 18.5289 20.2114Z" fill="transparent"/>
<path d="M1.05138 11.134C1.05811 11.1299 1.04465 11.1381 1.05138 11.134Z" fill="transparent"/>
<path d="M74.4342 19.3139C74.4524 19.3378 74.4439 19.3795 74.4068 19.4383C74.388 19.4142 74.3978 19.373 74.4342 19.3139Z" fill="#ffffff"/>
<path d="M71.9051 17.8481C71.886 17.8275 71.8895 17.7877 71.9199 17.7307C71.9404 17.752 71.9341 17.7904 71.9051 17.8481Z" fill="#ffffff"/>
<path d="M82.5583 99.6665C82.5637 99.6425 82.5814 99.6332 82.6284 99.6301C82.6411 99.6802 82.6121 99.6952 82.5583 99.6665Z" fill="transparent"/>
<path d="M83.2494 93.2217C82.8872 94.1668 82.0322 94.7218 80.9254 94.722C75.5686 94.7234 70.2118 94.7233 64.8549 94.7235C45.9313 94.7242 27.0077 94.725 8.08402 94.7254C6.56697 94.7255 5.65039 94.0067 5.40881 92.5209C5.42334 92.1677 5.42758 91.9154 5.42759 91.6631C5.42781 73.0441 5.4277 54.425 5.42766 35.8059C5.42765 35.3787 5.45252 34.9498 5.42133 34.525C5.39263 34.1339 5.61826 33.9899 5.92631 33.9515C6.52119 33.8774 7.12404 33.7729 7.71775 33.8016C9.56089 33.8907 11.4008 33.6464 13.2562 33.9753C14.5174 34.1989 15.8503 34.0182 17.1511 34.0176C17.2091 34.0176 17.2744 34.0276 17.3241 34.0054C18.081 33.6677 18.8281 33.6831 19.5977 33.9917C19.7874 34.0677 20.0499 33.9804 20.2751 33.944C20.4952 33.9084 20.714 33.7849 20.927 33.7985C22.0717 33.8719 23.2091 33.7244 24.3719 33.9653C25.2494 34.1471 26.2227 33.859 27.1542 33.7914C27.7533 33.7479 28.3522 34.3146 28.9535 33.7944C30.4267 33.811 31.9018 33.7875 33.3726 33.856C34.6886 33.9174 35.9981 34.263 37.3129 33.8121C37.5102 33.7444 37.7662 33.8298 37.9913 33.8665C38.2115 33.9025 38.4311 34.0236 38.6438 34.0082C39.305 33.9605 39.9655 33.7821 40.6215 33.803C44.173 33.9163 47.7316 33.5265 51.2811 33.9939C51.9954 34.088 52.75 33.8219 53.4884 33.799C54.6814 33.762 55.8763 33.7889 57.0704 33.7888C58.051 33.7888 59.0316 33.7888 60.0122 33.7888C61.7789 33.7889 63.5457 33.7872 65.3125 33.792C65.483 33.7924 65.6528 33.8412 65.824 33.8538C66.5255 33.9053 67.2593 34.1028 67.9214 33.963C68.8444 33.7682 69.7071 33.6858 70.6094 33.9896C70.8526 34.0714 71.1499 34.0255 71.4174 33.9952C71.8657 33.9445 72.3084 33.8148 72.7563 33.7984C73.5507 33.7693 74.3732 33.6759 75.1367 33.8353C76.2465 34.0671 77.3142 34.1504 78.4019 33.8108C78.491 33.7829 78.5949 33.7894 78.6905 33.7974C79.544 33.869 80.3975 33.9405 81.2501 34.0213C81.5054 34.0455 81.758 34.0989 82.0271 34.1414C82.311 33.6806 82.4642 33.6447 82.8284 34.0776C82.9884 34.2678 83.1146 34.5575 83.1137 34.8015C83.0907 41.1647 83.0444 47.5279 83.0162 53.8912C83.0127 54.6821 83.1196 55.4733 83.1212 56.2645C83.1314 61.3995 83.1415 66.5346 83.1228 71.6695C83.1006 77.7416 83.0363 83.8136 83.0222 89.8856C83.0196 90.9975 83.1698 92.1096 83.2494 93.2217ZM17.4851 79.173C17.4959 79.7813 17.5068 80.3897 17.5001 81.1027C17.5035 83.5476 17.507 85.9924 17.4952 88.5426C17.688 88.5859 17.8807 88.6667 18.0737 88.6671C21.508 88.6744 24.9423 88.6722 28.3766 88.6701C28.5448 88.67 28.713 88.6519 28.9008 88.641C28.9008 84.8299 28.9008 81.0569 28.9008 77.2955C28.8344 77.2688 28.7999 77.2427 28.7654 77.2427C25.1379 77.2469 21.5105 77.2529 17.8063 77.2454C17.755 77.2517 17.7038 77.258 17.5916 77.2483C17.5671 77.278 17.5426 77.3078 17.486 77.3723C17.4841 77.388 17.4772 77.4052 17.4814 77.419C17.4902 77.4476 17.5048 77.4743 17.5001 77.6054C17.5054 78.0969 17.5108 78.5884 17.4851 79.173ZM17.4538 40.7843C16.9466 41.1409 16.9476 41.3089 17.4833 41.6891C17.4736 41.8085 17.464 41.9278 17.3755 42.1012C17.312 42.828 17.2355 43.5542 17.1985 44.2823C17.1928 44.3935 17.3699 44.514 17.4859 44.7359C17.4756 46.0167 17.4652 47.2975 17.3918 48.6051C17.4128 48.7554 17.4339 48.9057 17.483 49.1606C17.4744 49.7889 17.4658 50.4172 17.4145 51.1093C17.0198 51.53 17.2085 51.9333 17.4074 52.3731C17.6105 52.8225 17.9021 52.5915 18.187 52.5592C18.2956 52.5469 18.4112 52.6178 18.524 52.6194C19.3545 52.6316 20.1879 52.6809 21.0149 52.6305C21.9252 52.5751 22.8277 52.3619 23.7373 52.3337C24.8144 52.3002 25.8958 52.3831 26.9746 52.432C27.371 52.4499 27.7652 52.5148 28.1624 52.5585C28.3285 52.4611 28.5212 52.3483 28.7837 52.2154C28.8381 52.1698 28.8924 52.1242 29.0399 52.059C29.0875 51.8458 29.1756 51.6327 29.1764 51.4193C29.1858 48.8956 29.1732 46.3718 29.1872 43.8481C29.1918 43.0181 29.2466 42.1879 29.297 41.359C29.3306 40.8072 29.0155 40.4376 28.4536 40.4316C27.837 40.425 27.2203 40.4304 26.6036 40.4304C23.711 40.4303 20.8183 40.4256 17.9258 40.445C17.7951 40.4459 17.6658 40.6653 17.5339 40.7776C17.5339 40.7776 17.5379 40.7818 17.4538 40.7843ZM50.1405 51.8523C50.1343 48.2779 50.1281 44.7035 50.1445 41.0297C49.9749 40.9464 49.8057 40.7912 49.6358 40.7905C46.2024 40.777 42.7689 40.7809 39.3355 40.783C39.1469 40.7832 38.9583 40.7988 38.7628 40.8074C38.7628 44.6324 38.7628 48.4192 38.7628 52.2122C39.1762 52.2122 39.5446 52.2121 39.9131 52.2122C43.1332 52.2124 46.3533 52.2166 49.5733 52.203C49.7586 52.2022 50.1055 52.4053 50.1405 51.8523ZM39.0795 88.6586C42.7563 88.6586 46.4331 88.6586 50.1112 88.6586C50.1112 84.817 50.1112 81.0468 50.1112 77.2663C46.3341 77.2663 42.5944 77.2663 38.7545 77.2871C38.7444 79.7251 38.7327 82.1632 38.7249 84.6012C38.721 85.8015 38.7155 87.0019 38.7348 88.2019C38.7372 88.3484 38.8896 88.4925 39.0795 88.6586ZM24.6978 70.4331C26.0892 70.4331 27.4806 70.4331 28.8881 70.4331C28.8881 66.5822 28.8881 62.8082 28.8881 59.0136C25.0806 59.0136 21.3099 59.0136 17.5135 59.0136C17.5135 62.8329 17.5135 66.6097 17.5135 70.4331C19.8933 70.4331 22.2373 70.4331 24.6978 70.4331ZM60.3784 58.9728C59.9276 58.8922 59.9399 59.1797 59.9404 59.495C59.9454 62.5999 59.943 65.7049 59.9428 68.8099C59.9427 69.3308 59.9428 69.8517 59.9428 70.3941C63.7703 70.3941 67.5585 70.3941 71.339 70.3941C71.339 66.5755 71.339 62.7999 71.339 58.9722C67.6992 58.9722 64.0941 58.9722 60.3784 58.9728ZM38.7224 66.9336C38.7224 68.089 38.7224 69.2444 38.7224 70.3927C42.5755 70.3927 46.3482 70.3927 50.1095 70.3927C50.1095 66.5684 50.1095 62.7917 50.1095 59.0221C46.2981 59.0221 42.5253 59.0221 38.7224 59.0221C38.7224 61.6545 38.7224 64.2358 38.7224 66.9336ZM74.5278 77.8111C74.3147 76.9486 73.7546 76.368 72.9383 76.1136C72.2812 75.9087 71.6794 76.1662 71.2087 76.6776C69.1342 78.932 67.0607 81.1873 64.9868 83.4422C64.7828 83.6641 64.5783 83.8854 64.3325 84.1521C63.369 83.1742 62.4651 82.2415 61.5403 81.3301C61.3416 81.1343 61.0856 80.9645 60.8244 80.87C59.9129 80.5399 59.3235 81.075 58.7729 81.6896C58.1557 82.3784 58.1775 83.2803 58.8287 83.922C60.2375 85.3104 61.6444 86.7007 63.0513 88.091C63.9361 88.9653 65.0073 88.9602 65.8527 88.0496C68.5835 85.108 71.3029 82.1558 74.0367 79.2169C74.3899 78.8373 74.5868 78.4295 74.5278 77.8111ZM66.523 52.2134C68.1263 52.2134 69.7295 52.2134 71.3381 52.2134C71.3381 48.3695 71.3381 44.5952 71.3381 40.8174C67.5299 40.8174 63.756 40.8174 59.9738 40.8174C59.9738 44.6322 59.9738 48.4074 59.9738 52.2135C62.1407 52.2135 64.2736 52.2135 66.523 52.2134Z" fill="transparent"/>
<path d="M83.2859 93.1938C83.1698 92.1097 83.0196 90.9975 83.0222 89.8856C83.0363 83.8136 83.1006 77.7416 83.1228 71.6695C83.1415 66.5346 83.1314 61.3995 83.1212 56.2645C83.1196 55.4734 83.0127 54.6821 83.0162 53.8912C83.0445 47.5279 83.0907 41.1648 83.1137 34.8015C83.1146 34.5575 82.9884 34.2678 82.8284 34.0776C82.4642 33.6447 82.311 33.6806 82.0271 34.1414C81.758 34.099 81.5054 34.0455 81.2501 34.0213C80.3975 33.9405 79.544 33.869 78.6905 33.7974C78.5949 33.7894 78.491 33.7829 78.4019 33.8108C77.3142 34.1504 76.2465 34.0671 75.1367 33.8353C74.3732 33.6759 73.5507 33.7693 72.7563 33.7984C72.3084 33.8149 71.8657 33.9445 71.4174 33.9952C71.1499 34.0255 70.8527 34.0715 70.6094 33.9896C69.7072 33.6858 68.8444 33.7682 67.9214 33.9631C67.2593 34.1028 66.5255 33.9053 65.824 33.8538C65.6528 33.8412 65.483 33.7924 65.3125 33.792C63.5457 33.7872 61.779 33.7889 60.0122 33.7888C59.0316 33.7888 58.051 33.7888 57.0704 33.7888C55.8763 33.7889 54.6814 33.762 53.4884 33.799C52.75 33.8219 51.9954 34.088 51.2811 33.9939C47.7316 33.5265 44.173 33.9163 40.6215 33.803C39.9655 33.7821 39.305 33.9605 38.6439 34.0083C38.4311 34.0236 38.2115 33.9025 37.9913 33.8666C37.7662 33.8298 37.5102 33.7444 37.3129 33.8121C35.9981 34.263 34.6886 33.9174 33.3726 33.8561C31.9018 33.7875 30.4267 33.811 28.9535 33.7944C28.3522 34.3146 27.7533 33.748 27.1542 33.7914C26.2227 33.859 25.2495 34.1471 24.3719 33.9653C23.2091 33.7244 22.0717 33.8719 20.9271 33.7986C20.714 33.7849 20.4952 33.9084 20.2751 33.944C20.0499 33.9804 19.7874 34.0677 19.5977 33.9917C18.8281 33.6832 18.081 33.6678 17.3241 34.0054C17.2745 34.0276 17.2091 34.0176 17.1511 34.0177C15.8503 34.0182 14.5174 34.1989 13.2562 33.9753C11.4008 33.6464 9.56091 33.8907 7.71777 33.8016C7.12405 33.7729 6.5212 33.8774 5.92633 33.9515C5.61827 33.9899 5.39264 34.1339 5.42135 34.525C5.45253 34.9498 5.42767 35.3788 5.42767 35.8059C5.42771 54.425 5.42783 73.0441 5.4276 91.6632C5.4276 91.9155 5.42336 92.1677 5.41295 92.476C5.37252 92.5075 5.35276 92.4753 5.33973 92.3589C5.33559 90.5413 5.34135 88.8002 5.33787 87.0591C5.33374 84.9901 5.32168 82.921 5.32761 80.7993C5.33272 79.6191 5.32327 78.4917 5.32583 77.3106C5.33945 65.4426 5.34301 53.6284 5.34113 41.8142C5.34071 39.2158 5.32096 36.6174 5.32346 33.9836C5.36399 33.8523 5.39118 33.7565 5.47259 33.6653C27.8602 33.6702 50.1937 33.6714 72.5271 33.6701C76.1355 33.6698 79.744 33.6587 83.3524 33.6526C83.3977 33.906 83.4826 34.1594 83.4827 34.4129C83.4888 49.364 83.4876 64.315 83.4879 79.2661C83.488 83.4796 83.4954 87.6931 83.4847 91.9065C83.4836 92.3265 83.3789 92.7462 83.2859 93.1938Z" fill="#E3F1F3"/>
<path d="M5.41829 33.6606C5.3911 33.7565 5.36392 33.8523 5.2866 34.0162C5.21867 34.2557 5.1853 34.4273 5.18527 34.5989C5.18294 48.6553 5.18266 62.7117 5.18868 76.768C5.18877 76.9668 5.27025 77.1655 5.31374 77.3643C5.32319 78.4917 5.33265 79.6191 5.29034 80.8318C5.22014 81.1263 5.18582 81.3355 5.18563 81.5448C5.18235 85.0823 5.18331 88.6197 5.18333 92.1572C5.10559 91.9487 4.96102 91.7405 4.96011 91.5317C4.94583 88.2633 4.96016 84.9947 4.94475 81.7263C4.93919 80.5478 4.83628 79.3695 4.83929 78.1912C4.86877 66.6541 4.91307 55.1169 4.94874 43.5798C4.95747 40.7577 4.95261 37.9355 4.94525 35.1134C4.94467 34.8897 4.92927 34.6373 4.82794 34.448C4.51439 33.8619 4.68031 33.5416 5.39178 33.5505C5.41759 33.6079 5.41829 33.6606 5.41829 33.6606Z" fill="#ffffff"/>
<path d="M0.550596 93.2034C0.546049 86.4714 0.538596 79.7395 0.537578 73.0075C0.535629 60.1252 0.53734 47.2428 0.546946 34.3064C0.622894 34.451 0.745651 34.6492 0.74721 34.8484C0.761932 36.73 0.756037 38.6118 0.756022 40.4936C0.755905 58.0694 0.754748 75.6453 0.760264 93.2211C0.760442 93.7893 0.82879 94.3574 0.862328 94.9755C0.763355 94.591 0.667412 94.1566 0.590408 93.6334C0.589761 93.4308 0.570179 93.3171 0.550596 93.2034Z" fill="#ffffff"/>
<path d="M5.47258 33.6653C5.41836 33.6606 5.41766 33.6078 5.41773 33.5815C6.07983 33.5548 6.74186 33.5545 7.51209 33.5546C8.05083 33.5546 8.48136 33.5544 8.91189 33.5541C33.3148 33.5542 57.7177 33.5541 82.1206 33.5559C82.5129 33.5559 82.9053 33.5786 83.3251 33.6216C79.744 33.6587 76.1355 33.6698 72.5271 33.67C50.1937 33.6714 27.8602 33.6702 5.47258 33.6653Z" fill="#ffffff"/>
<path d="M0.599574 27.0175C0.550254 23.0242 0.541789 19.0161 0.54324 15.0079C0.543336 14.7412 0.618759 14.4746 0.696602 14.1724C0.741287 18.3228 0.749326 22.5087 0.751 26.6946C0.751041 26.7973 0.680421 26.9 0.599574 27.0175Z" fill="#ffffff"/>
<path d="M5.18644 92.1927C5.18332 88.6197 5.18236 85.0823 5.18564 81.5449C5.18583 81.3355 5.22015 81.1263 5.27579 80.8845C5.32161 82.921 5.33368 84.9901 5.33781 87.0591C5.34129 88.8002 5.33553 90.5413 5.32248 92.3357C5.27057 92.3355 5.23005 92.2819 5.18644 92.1927Z" fill="#ffffff"/>
<path d="M0.577082 32.2367C0.541373 31.2615 0.534234 30.2474 0.538015 29.1794C0.56784 30.1496 0.586746 31.1737 0.577082 32.2367Z" fill="#ffffff"/>
<path d="M8.90119 33.5085C8.48131 33.5544 8.05078 33.5546 7.56653 33.5545C7.94639 33.1359 8.41681 33.2744 8.90119 33.5085Z" fill="#ffffff"/>
<path d="M0.587481 32.8509C0.550396 32.8047 0.544254 32.7521 0.547317 32.6604C0.577154 32.6958 0.597788 32.7701 0.587481 32.8509Z" fill="#ffffff"/>
<path d="M22.4338 1.76154C22.993 2.2581 23.2487 2.93708 23.2505 3.69519C23.2608 7.95818 23.2589 12.2212 23.2493 16.4842C23.2487 16.7662 23.1493 17.0479 23.0549 17.352C23.0121 13.2558 23.0102 9.13729 23.0087 5.01878C23.0086 4.62133 23.0653 4.21458 22.999 3.82871C22.9101 3.31053 22.7284 2.80815 22.5839 2.2997C22.537 2.13455 22.4821 1.97167 22.4338 1.76154Z" fill="#ffffff"/>
<path d="M16.6521 17.3188C16.5717 17.033 16.4757 16.7137 16.4752 16.3942C16.4678 12.1302 16.4737 7.86619 16.4908 3.54889C16.5372 3.71948 16.597 3.94329 16.5973 4.16719C16.6031 8.12011 16.5992 12.073 16.6051 16.026C16.6058 16.4457 16.6544 16.8654 16.6521 17.3188Z" fill="#ffffff"/>
<path d="M21.1604 0.848328C21.534 1.05645 21.9222 1.30183 22.3267 1.58445C21.9537 1.37632 21.5643 1.13095 21.1604 0.848328Z" fill="#ffffff"/>
<path d="M22.8833 17.7312C22.6933 18.0811 22.4607 18.4271 22.1986 18.7939C22.0548 18.2434 22.6164 18.0895 22.8833 17.7312Z" fill="#ffffff"/>
<path d="M21.839 19.0191C21.7057 19.1458 21.5306 19.2569 21.3161 19.375C21.2867 19.0312 21.387 18.8044 21.839 19.0191Z" fill="#ffffff"/>
<path d="M22.0903 18.8278C22.0677 18.9052 22.0052 18.9604 21.9125 19.0254C21.9383 18.9587 21.9944 18.8822 22.0903 18.8278Z" fill="#ffffff"/>
<path d="M22.9596 17.613C22.9773 17.6327 22.9739 17.6716 22.9442 17.7259C22.9083 17.7017 22.9153 17.6654 22.9596 17.613Z" fill="#ffffff"/>
<path d="M0.538818 93.2452C0.570176 93.3171 0.589757 93.4308 0.588035 93.586C0.553501 93.514 0.540272 93.4005 0.538818 93.2452Z" fill="#ffffff"/>
<path d="M75.5131 8.41486C75.4859 8.44205 75.4208 8.45726 75.3381 8.45008C75.3721 8.41942 75.4237 8.41115 75.5131 8.41486Z" fill="#ffffff"/>
<path d="M24.6396 70.4331C22.2374 70.4331 19.8934 70.4331 17.5135 70.4331C17.5135 66.6097 17.5135 62.8329 17.5135 59.0136C21.31 59.0136 25.0807 59.0136 28.8881 59.0136C28.8881 62.8082 28.8881 66.5822 28.8881 70.4331C27.4806 70.4331 26.0892 70.4331 24.6396 70.4331Z" fill="#ffffff"/>
<path d="M60.4337 58.9725C64.0941 58.9722 67.6992 58.9722 71.339 58.9722C71.339 62.7999 71.339 66.5755 71.339 70.3941C67.5586 70.3941 63.7703 70.3941 59.9428 70.3941C59.9428 69.8517 59.9428 69.3308 59.9428 68.8099C59.9431 65.7049 59.9455 62.5999 59.9404 59.495C59.9399 59.1797 59.9277 58.8922 60.4337 58.9725Z" fill="#ffffff"/>
<path d="M38.7224 66.8753C38.7224 64.2358 38.7224 61.6545 38.7224 59.0221C42.5252 59.0221 46.298 59.0221 50.1095 59.0221C50.1095 62.7917 50.1095 66.5684 50.1095 70.3927C46.3482 70.3927 42.5755 70.3927 38.7224 70.3927C38.7224 69.2444 38.7224 68.089 38.7224 66.8753Z" fill="#ffffff"/>
<path d="M38.8548 77.2663C42.5944 77.2663 46.3341 77.2663 50.1112 77.2663C50.1112 81.0468 50.1112 84.817 50.1112 88.6587C46.4331 88.6587 42.7563 88.6587 39.0175 88.6016C38.9214 88.3171 38.8578 88.0898 38.8575 87.8624C38.8517 84.3303 38.8542 80.7983 38.8548 77.2663Z" fill="#ffffff"/>
<path d="M17.6525 77.2644C17.7037 77.258 17.755 77.2517 17.8823 77.2819C18.1702 77.3306 18.3821 77.3533 18.594 77.3535C21.7586 77.3556 24.9234 77.3664 28.0879 77.343C28.6032 77.3392 28.7431 77.4815 28.7393 77.9963C28.7158 81.1996 28.7274 84.4032 28.7271 87.6066C28.727 88.5174 28.6984 88.5494 27.7771 88.5501C24.9231 88.552 22.069 88.5565 19.2151 88.5454C18.696 88.5433 18.1773 88.4725 17.6553 88.3784C17.6523 84.637 17.6524 80.9507 17.6525 77.2644Z" fill="#ffffff"/>
<path d="M50.1218 41.1291C50.128 44.7035 50.1342 48.2779 50.0775 51.9064C46.5806 51.9612 43.1465 51.9623 39.7124 51.9623C38.9857 51.9623 38.8553 51.8439 38.8543 51.1297C38.8502 48.0061 38.8597 44.8824 38.8455 41.7588C38.843 41.2078 39.0507 40.9968 39.6022 41.0049C43.1085 41.0565 46.6152 41.0898 50.1218 41.1291Z" fill="#ffffff"/>
<path d="M74.531 77.8609C74.5868 78.4295 74.3899 78.8373 74.0368 79.2169C71.303 82.1558 68.5836 85.108 65.8527 88.0496C65.0073 88.9602 63.9362 88.9653 63.0514 88.091C61.6445 86.7007 60.2376 85.3104 58.8287 83.922C58.1775 83.2803 58.1557 82.3784 58.7729 81.6896C59.3235 81.075 59.9129 80.5399 60.8244 80.87C61.0856 80.9645 61.3416 81.1343 61.5403 81.3301C62.4652 82.2415 63.3691 83.1742 64.3326 84.1521C64.5784 83.8855 64.7828 83.6641 64.9868 83.4423C67.0608 81.1873 69.1342 78.932 71.2087 76.6777C71.6794 76.1662 72.2812 75.9087 72.9384 76.1136C73.7546 76.368 74.3148 76.9486 74.531 77.8609Z" fill="#ffffff"/>
<path d="M17.4542 42.0472C17.4639 41.9278 17.4736 41.8085 17.4876 41.604C17.5073 41.2732 17.5226 41.0275 17.5378 40.7818C17.5378 40.7818 17.5338 40.7776 17.5891 40.7814C21.3831 40.7851 25.1216 40.7851 28.8878 40.7851C28.8981 40.9865 28.9107 41.1189 28.9107 41.2513C28.9114 43.6388 28.9064 46.0264 28.9116 48.4139C28.9143 49.6355 28.9344 50.857 28.9467 52.0785C28.8923 52.1242 28.838 52.1698 28.6957 52.2125C24.9149 52.2095 21.2221 52.2095 17.5216 52.2095C17.4975 51.7742 17.4773 51.4098 17.4571 51.0454C17.4657 50.4172 17.4743 49.7889 17.4854 49.0622C17.4768 48.8353 17.4658 48.7068 17.4548 48.5784C17.4651 47.2975 17.4755 46.0167 17.4905 44.6301C17.4816 43.6986 17.4679 42.8729 17.4542 42.0472ZM17.6497 44.0986C17.6497 46.427 17.6497 48.7555 17.6497 51.0839C17.6498 51.9614 17.6498 51.9626 18.5556 51.9628C21.5244 51.9633 24.4932 51.9625 27.4619 51.9641C27.6551 51.9642 27.8598 51.9429 28.0393 51.9972C28.5627 52.1557 28.7157 51.8926 28.716 51.4432C28.7182 48.1834 28.714 44.9236 28.7205 41.6638C28.7214 41.1909 28.5089 41.0067 28.0474 41.0077C24.7681 41.0144 21.4889 41.0165 18.2097 41.0049C17.77 41.0033 17.6327 41.1783 17.6435 41.5956C17.664 42.3906 17.6496 43.1865 17.6497 44.0986Z" fill="#ffffff"/>
<path d="M66.4647 52.2135C64.2736 52.2135 62.1407 52.2135 59.9738 52.2135C59.9738 48.4074 59.9738 44.6322 59.9738 40.8174C63.756 40.8174 67.5299 40.8174 71.3381 40.8174C71.3381 44.5952 71.3381 48.3695 71.3381 52.2135C69.7295 52.2135 68.1262 52.2135 66.4647 52.2135ZM60.0584 42.1571C60.058 44.7966 60.0528 47.4361 60.0622 50.0756C60.0636 50.4977 60.1723 50.9212 60.1561 51.3411C60.1349 51.8878 60.4016 51.9731 60.87 51.9709C64.0528 51.9562 67.2358 51.9567 70.4186 51.9697C70.8761 51.9716 71.1641 51.9086 71.1418 51.3506C71.1251 50.9307 71.2342 50.5072 71.2359 50.0851C71.246 47.6397 71.2452 45.1943 71.2362 42.7489C71.2348 42.3849 71.1278 42.0191 71.1452 41.6577C71.173 41.0834 70.8849 40.9995 70.3944 41.0023C67.4057 41.0194 64.4168 41.0111 61.428 41.011C60.329 41.011 60.329 41.0107 60.0584 42.1571Z" fill="#ffffff"/>
<path d="M50.1331 41.0794C46.6152 41.0898 43.1086 41.0565 39.6022 41.0049C39.0507 40.9968 38.843 41.2078 38.8455 41.7588C38.8597 44.8824 38.8502 48.006 38.8543 51.1297C38.8553 51.8439 38.9857 51.9623 39.7124 51.9623C43.1465 51.9623 46.5806 51.9612 50.067 51.9599C50.1054 52.4053 49.7585 52.2022 49.5733 52.203C46.3532 52.2166 43.1331 52.2124 39.913 52.2122C39.5446 52.2121 39.1761 52.2122 38.7627 52.2122C38.7627 48.4192 38.7627 44.6324 38.7627 40.8075C38.9582 40.7988 39.1468 40.7832 39.3354 40.783C42.7689 40.7809 46.2023 40.777 49.6357 40.7905C49.8056 40.7912 49.9749 40.9464 50.1331 41.0794Z" fill="#ffffff"/>
<path d="M28.9933 52.0688C28.9345 50.857 28.9143 49.6355 28.9117 48.4139C28.9065 46.0264 28.9114 43.6388 28.9108 41.2513C28.9108 41.1189 28.8982 40.9865 28.8879 40.7851C25.1217 40.7851 21.3831 40.7851 17.5902 40.784C17.6658 40.6653 17.7951 40.4459 17.9258 40.445C20.8183 40.4256 23.711 40.4303 26.6036 40.4304C27.2203 40.4304 27.837 40.425 28.4535 40.4316C29.0155 40.4376 29.3306 40.8072 29.297 41.359C29.2465 42.1879 29.1918 43.0181 29.1872 43.848C29.1732 46.3718 29.1858 48.8956 29.1763 51.4193C29.1755 51.6327 29.0874 51.8458 28.9933 52.0688Z" fill="#ffffff"/>
<path d="M17.6584 88.4334C18.1773 88.4725 18.6961 88.5433 19.2151 88.5454C22.0691 88.5565 24.9231 88.552 27.7771 88.5501C28.6985 88.5494 28.7271 88.5174 28.7271 87.6066C28.7274 84.4032 28.7158 81.1996 28.7394 77.9963C28.7432 77.4815 28.6033 77.3392 28.0879 77.343C24.9234 77.3664 21.7587 77.3556 18.594 77.3535C18.3821 77.3533 18.1703 77.3306 17.9207 77.2887C21.5105 77.2529 25.1379 77.2469 28.7653 77.2427C28.7998 77.2427 28.8344 77.2688 28.9007 77.2955C28.9007 81.0569 28.9007 84.8299 28.9007 88.641C28.713 88.6519 28.5448 88.67 28.3766 88.6701C24.9423 88.6722 21.5079 88.6744 18.0736 88.6671C17.8807 88.6667 17.688 88.5859 17.5398 88.4891C17.6091 88.4349 17.6338 88.4341 17.6584 88.4334Z" fill="#ffffff"/>
<path d="M17.4358 51.0774C17.4774 51.4099 17.4976 51.7743 17.5217 52.2096C21.2222 52.2096 24.915 52.2096 28.6608 52.2225C28.5212 52.3483 28.3285 52.4612 28.1624 52.5585C27.7652 52.5148 27.371 52.4499 26.9746 52.432C25.8958 52.3831 24.8144 52.3003 23.7373 52.3337C22.8278 52.3619 21.9252 52.5751 21.0149 52.6305C20.1879 52.6809 19.3545 52.6316 18.5241 52.6194C18.4112 52.6178 18.2956 52.5469 18.1871 52.5592C17.9021 52.5915 17.6105 52.8225 17.4074 52.3732C17.2085 51.9333 17.0198 51.53 17.4358 51.0774Z" fill="#ffffff"/>
<path d="M38.8045 77.2767C38.8541 80.7983 38.8517 84.3303 38.8574 87.8623C38.8577 88.0898 38.9213 88.3171 38.9639 88.5911C38.8895 88.4925 38.7371 88.3484 38.7347 88.2019C38.7154 87.0019 38.7209 85.8015 38.7248 84.6012C38.7326 82.1632 38.7443 79.7251 38.8045 77.2767Z" fill="#ffffff"/>
<path d="M17.6554 88.3784C17.6338 88.4341 17.6092 88.4349 17.5475 88.4365C17.507 85.9924 17.5035 83.5476 17.523 80.9955C17.536 80.2854 17.5261 79.6827 17.5161 79.0799C17.5108 78.5884 17.5055 78.0969 17.5184 77.5126C17.5305 77.3924 17.5243 77.365 17.5181 77.3376C17.5426 77.3078 17.5671 77.278 17.6221 77.2563C17.6525 80.9507 17.6524 84.637 17.6554 88.3784Z" fill="#ffffff"/>
<path d="M17.4149 42.0742C17.468 42.8729 17.4817 43.6986 17.4789 44.5773C17.3699 44.514 17.1928 44.3935 17.1985 44.2823C17.2355 43.5542 17.312 42.828 17.4149 42.0742Z" fill="#ffffff"/>
<path d="M17.4958 40.7831C17.5226 41.0275 17.5073 41.2732 17.4752 41.5605C16.9476 41.3089 16.9466 41.1409 17.4958 40.7831Z" fill="#ffffff"/>
<path d="M17.5005 79.1264C17.5259 79.6827 17.5358 80.2854 17.5316 80.9431C17.5066 80.3897 17.4958 79.7813 17.5005 79.1264Z" fill="#ffffff"/>
<path d="M17.4233 48.5918C17.4659 48.7068 17.4769 48.8353 17.4715 49.0099C17.4339 48.9057 17.4129 48.7554 17.4233 48.5918Z" fill="#ffffff"/>
<path d="M17.502 77.3549C17.5243 77.365 17.5304 77.3924 17.5269 77.4608C17.5049 77.4743 17.4902 77.4476 17.4814 77.419C17.4772 77.4052 17.4841 77.388 17.502 77.3549Z" fill="#ffffff"/>
<path d="M5.32586 77.3105C5.27036 77.1655 5.18888 76.9668 5.18879 76.768C5.18277 62.7117 5.18305 48.6553 5.18538 34.5989C5.18541 34.4273 5.21878 34.2557 5.27337 34.0515C5.321 36.6174 5.34075 39.2158 5.34116 41.8142C5.34304 53.6284 5.33948 65.4426 5.32586 77.3105Z" fill="#ffffff"/>
<path d="M17.6498 44.0404C17.6497 43.1866 17.6641 42.3906 17.6435 41.5956C17.6327 41.1783 17.7701 41.0033 18.2098 41.0049C21.4889 41.0165 24.7682 41.0144 28.0474 41.0077C28.5089 41.0067 28.7214 41.1909 28.7205 41.6638C28.714 44.9236 28.7182 48.1834 28.716 51.4432C28.7157 51.8926 28.5628 52.1557 28.0393 51.9973C27.8598 51.9429 27.6551 51.9643 27.462 51.9641C24.4932 51.9625 21.5244 51.9633 18.5557 51.9628C17.6499 51.9626 17.6498 51.9614 17.6498 51.0839C17.6498 48.7555 17.6498 46.4271 17.6498 44.0404Z" fill="#ffffff"/>
<path d="M60.0602 42.1033C60.329 41.0107 60.329 41.011 61.428 41.011C64.4168 41.0111 67.4057 41.0194 70.3944 41.0023C70.8849 40.9995 71.173 41.0834 71.1452 41.6577C71.1278 42.0191 71.2348 42.3849 71.2362 42.7489C71.2452 45.1943 71.246 47.6397 71.2359 50.0851C71.2342 50.5072 71.1251 50.9307 71.1418 51.3506C71.1641 51.9086 70.8761 51.9716 70.4186 51.9697C67.2358 51.9567 64.0528 51.9562 60.8699 51.9709C60.4016 51.9731 60.1349 51.8878 60.1561 51.3411C60.1723 50.9212 60.0636 50.4977 60.0622 50.0756C60.0528 47.4361 60.058 44.7966 60.0602 42.1033Z" fill="#ffffff"/>
</svg>
