<svg width="32" height="32" viewBox="0 0 32 32" fill="none" xmlns="http://www.w3.org/2000/svg">
<g clip-path="url(#clip0_55346_1479)">
<g clip-path="url(#clip1_55346_1479)">
<g clip-path="url(#clip2_55346_1479)">
<path fill-rule="evenodd" clip-rule="evenodd" d="M14.5797 0.106201H17.4066C21.289 0.106201 23.5578 0.676437 25.5718 1.75625C27.5858 2.83605 29.1752 4.41329 30.2429 6.42734C31.3227 8.44136 31.8929 10.7102 31.8929 14.5926V17.4074C31.8929 21.2898 31.3227 23.5586 30.2429 25.5726C29.1631 27.5866 27.5858 29.1761 25.5718 30.2437C23.5578 31.3235 21.289 31.8938 17.4066 31.8938H14.5918C10.7094 31.8938 8.44056 31.3235 6.42655 30.2437C4.41255 29.1639 2.82317 27.5866 1.75551 25.5726C0.675698 23.5586 0.105469 21.2898 0.105469 17.4074V14.5926C0.105469 10.7102 0.675698 8.44136 1.75551 6.42734C2.83531 4.41329 4.41255 2.82392 6.42655 1.75625C8.42847 0.676437 10.7094 0.106201 14.5797 0.106201Z" fill="#0068FF"/>
<path opacity="0.12" fill-rule="evenodd" clip-rule="evenodd" d="M31.8935 16.9431V17.4076C31.8935 21.2901 31.3233 23.5589 30.2435 25.5729C29.1637 27.5869 27.5864 29.1763 25.5724 30.244C23.5584 31.3238 21.2896 31.894 17.4072 31.894H14.5924C11.4156 31.894 9.31917 31.5122 7.55866 30.7818L4.65625 27.7931L31.8935 16.9431Z" fill="#001A33"/>
<path fill-rule="evenodd" clip-rule="evenodd" d="M4.97778 27.8971C6.46443 28.0614 8.32312 27.6375 9.64287 26.9968C15.3736 30.1644 24.3318 30.0131 29.7543 26.5428C29.9646 26.2274 30.1611 25.8993 30.3434 25.5592C31.4272 23.5379 31.9995 21.2608 31.9995 17.3642V14.5392C31.9995 10.6426 31.4272 8.3655 30.3434 6.34415C29.2719 4.32279 27.6767 2.7398 25.6553 1.65605C23.634 0.572313 21.3569 0 17.4603 0H14.6232C11.3044 0 9.15007 0.417763 7.33995 1.21532C7.24101 1.30392 7.14392 1.39404 7.04888 1.48566C1.73832 6.60499 1.33463 17.702 5.8378 23.73C5.84283 23.7389 5.84839 23.7479 5.85451 23.757C6.54859 24.7798 5.87886 26.5699 4.83165 27.617C4.66118 27.7754 4.72206 27.8728 4.97778 27.8971Z" fill="white"/>
<path d="M13.1595 10.8799H6.93548V12.2145H11.2546L6.99609 17.4922C6.86265 17.6863 6.76562 17.8683 6.76562 18.2808V18.6205H12.6378C12.929 18.6205 13.1716 18.3779 13.1716 18.0867V17.3708H8.63404L12.6378 12.3479C12.6984 12.2751 12.8076 12.1417 12.8562 12.081L12.8804 12.0446C13.111 11.7049 13.1595 11.4137 13.1595 11.0619V10.8799Z" fill="#0068FF"/>
<path d="M21.0817 18.6205H21.9674V10.8799H20.6328V18.1716C20.6328 18.4143 20.8269 18.6205 21.0817 18.6205Z" fill="#0068FF"/>
<path d="M16.5214 12.603C14.8471 12.603 13.4883 13.9619 13.4883 15.6362C13.4883 17.3105 14.8471 18.6693 16.5214 18.6693C18.1957 18.6693 19.5546 17.3105 19.5546 15.6362C19.5667 13.9619 18.2079 12.603 16.5214 12.603ZM16.5214 17.4197C15.5387 17.4197 14.7379 16.6189 14.7379 15.6362C14.7379 14.6535 15.5387 13.8527 16.5214 13.8527C17.5042 13.8527 18.3049 14.6535 18.3049 15.6362C18.3049 16.6189 17.5163 17.4197 16.5214 17.4197Z" fill="#0068FF"/>
<path d="M25.9129 12.5544C24.2264 12.5544 22.8555 13.9255 22.8555 15.6119C22.8555 17.2983 24.2264 18.6693 25.9129 18.6693C27.5993 18.6693 28.9703 17.2983 28.9703 15.6119C28.9703 13.9255 27.5993 12.5544 25.9129 12.5544ZM25.9129 17.4197C24.918 17.4197 24.1172 16.6189 24.1172 15.624C24.1172 14.6291 24.918 13.8284 25.9129 13.8284C26.9078 13.8284 27.7085 14.6291 27.7085 15.624C27.7085 16.6189 26.9078 17.4197 25.9129 17.4197Z" fill="#0068FF"/>
<path d="M18.8502 18.6204H19.5661V12.7725H18.3164V18.0987C18.3164 18.3778 18.559 18.6204 18.8502 18.6204Z" fill="#0068FF"/>
</g>
</g>
</g>
<defs>
<clipPath id="clip0_55346_1479">
<rect width="32" height="32" fill="white"/>
</clipPath>
<clipPath id="clip1_55346_1479">
<rect width="32" height="32" fill="white"/>
</clipPath>
<clipPath id="clip2_55346_1479">
<rect width="32" height="32" fill="white"/>
</clipPath>
</defs>
</svg>
